<svg width="185" height="185" viewBox="0 0 185 185" fill="none" xmlns="http://www.w3.org/2000/svg">
<g id="LAA">
<rect x="3" y="3" width="179" height="179" rx="89.5" fill="#BA0021"/>
<rect x="3" y="3" width="179" height="179" rx="89.5" stroke="white" stroke-width="6"/>
<g id="108 1" clip-path="url(#clip0_1_15)">
<path id="Vector" d="M96.9479 164.501H133.073C129.732 161.918 126.787 157.404 125.472 152.257L115.375 112.881C114.279 108.645 116.058 104.41 118.902 101.541C114.871 100.141 111.301 96.9507 110.165 92.5723L104.516 70.5335C112.556 67.4874 117.8 62.0704 117.8 55.7852C117.8 47.5757 108.847 40.85 96.4021 38.9272L91.6798 20.5H86.3851L81.6607 38.9272C69.2102 40.85 60.2486 47.5757 60.2486 55.7852C60.2486 62.0704 65.4993 67.4866 73.5474 70.5335L67.8915 92.5723C66.7814 96.9507 63.1938 100.14 59.1644 101.541C61.9984 104.41 63.7848 108.645 62.7 112.881L52.5957 152.257C51.263 157.405 48.3311 161.918 45.0007 164.5H81.123C78.1671 161.917 76.5552 157.403 77.8779 152.257L78.7641 148.814H99.3067L100.188 152.257C101.514 157.404 99.8971 161.917 96.9492 164.499L96.9479 164.501ZM85.924 120.936L89.0398 108.761L92.1516 120.936H85.924Z" fill="white"/>
<path id="Vector_2" d="M126.991 161.707C125.275 159.141 123.898 156.163 123.096 153.042L113.069 113.943C111.473 107.733 114.418 103.328 114.804 102.62C111.317 100.477 108.765 97.2118 107.8 93.355L101.69 69.554C110.303 66.9462 116.17 61.7661 116.17 55.7845C116.17 48.2162 106.73 41.8961 94.2418 40.4957L89.8339 23.2933H88.2367L83.8289 40.4965C71.3257 41.8969 61.8863 48.2177 61.8863 55.7852C61.8863 61.7669 67.7648 66.9469 76.3726 69.5547L70.2669 93.3565C69.282 97.2126 66.746 100.477 63.2503 102.622C63.6448 103.33 66.5934 107.735 64.9961 113.943L54.9664 153.042C54.1641 156.164 52.7908 159.143 51.0637 161.707H76.0754C74.0517 156.636 75.1172 152.949 76.0221 149.473L76.9103 146.014H101.152L102.051 149.473C102.938 152.95 103.997 156.636 101.98 161.707H126.991ZM82.6082 123.747L89.0383 98.7303L95.4485 123.747H82.6082Z" fill="#003263"/>
<path id="Vector_3" d="M95.6784 61.9024L92.4667 49.3395L93.0977 51.8451C91.783 51.7694 90.4237 51.7104 89.0397 51.7104V59.8601L108.301 134.885L112.735 152.098L120.344 157.278C119.809 155.961 119.338 154.62 118.977 153.236L109.385 115.943C107.872 110.121 108.701 107.598 109.798 104.088C106.92 101.583 104.995 98.3087 104.064 94.6222L96.7879 66.2217L96.7772 66.2293L95.6784 61.9024ZM91.2973 44.7575L89.0384 35.9742V44.7068C89.8007 44.7068 90.543 44.7234 91.2973 44.7575ZM65.2167 152.553L71.3697 157.277C71.0499 154.924 71.3517 151.836 71.9494 149.634L73.9818 141.602L69.7552 134.885L65.2174 152.553L65.2167 152.553Z" fill="#BA0021"/>
<path id="Vector_4" d="M77.4228 128.16L89.039 82.9685V59.8608L69.7552 134.885H108.302L100.622 128.161" fill="#BA0021"/>
<path id="Vector_5" d="M89.0383 82.9692L100.621 128.161L108.301 134.885L89.039 59.86" fill="#862633"/>
<path id="Vector_6" d="M120.344 157.278L112.735 152.097L108.302 134.885H69.7545L89.0384 59.8601V51.7089C90.4244 51.7089 91.7837 51.7672 93.0977 51.8429L92.4667 49.3373C92.2954 49.3373 92.1175 49.3297 91.9469 49.3115C90.9954 49.2616 90.0299 49.2192 89.039 49.2192C87.8703 49.2192 86.7188 49.2706 85.6007 49.338L82.3777 61.9009H82.389L81.2789 66.2286H81.2675L73.9804 94.6222C73.0516 98.3087 71.1552 101.583 68.2686 104.089C69.3534 107.598 70.181 110.122 68.677 115.943L59.0864 153.237C58.7253 154.62 58.2648 155.962 57.7004 157.278H71.3704L65.2167 152.554L69.7545 134.885L73.9811 141.601H104.064L106.14 149.633C106.696 151.834 107.006 154.924 106.696 157.277H120.344V157.278ZM89.0384 35.9742L86.7861 44.7575C87.5285 44.7234 88.2828 44.7068 89.0404 44.7068V35.9742H89.0384Z" fill="#862633"/>
<path id="Vector_7" d="M82.3883 61.9024H82.377C75.3991 60.966 70.4449 58.5694 70.4449 55.786C70.4449 52.5786 76.9703 49.9118 85.6001 49.3387C86.7182 49.2706 87.8696 49.2207 89.0384 49.2207C90.0299 49.2207 90.9961 49.2638 91.9463 49.3138C92.1175 49.3312 92.2955 49.3395 92.466 49.3395C101.086 49.9042 107.629 52.5718 107.629 55.786C107.629 58.5694 102.656 60.9668 95.6851 61.9024H95.6785L96.7779 66.2308L96.7879 66.2232C105.772 64.7047 112.23 60.614 112.23 55.7867C112.23 50.0412 103.031 45.3078 91.2959 44.759C90.543 44.7249 89.8 44.7083 89.0384 44.7083C88.2808 44.7083 87.5258 44.7257 86.7842 44.759C75.0166 45.3078 65.8398 50.0405 65.8398 55.7867C65.8398 60.6132 72.282 64.704 81.2655 66.2316H81.2769L82.3883 61.9046V61.9024Z" fill="#C4CED4"/>
<g id="Group">
<g id="Group_2">
<path id="Vector_8" d="M138.265 158.788C138.265 157.7 137.7 157.522 136.884 157.522H135.15V161.59H135.9V159.97H136.516L137.333 161.59H138.165L137.3 159.97C137.932 159.91 138.266 159.515 138.266 158.789L138.265 158.788ZM136.899 159.252H135.899V158.265H136.72C137.069 158.265 137.529 158.265 137.529 158.705C137.529 159.134 137.3 159.252 136.898 159.252H136.899Z" fill="#003263"/>
<path id="Vector_9" d="M136.576 155.658C134.671 155.658 133.167 157.405 133.167 159.581C133.167 161.734 134.671 163.463 136.576 163.463C138.495 163.463 140 161.734 140 159.582C140 157.406 138.495 155.659 136.576 155.659V155.658ZM136.576 162.627C135.106 162.627 133.928 161.319 133.928 159.581C133.928 157.836 135.106 156.527 136.576 156.527C138.042 156.527 139.25 157.836 139.25 159.582C139.25 161.321 138.042 162.629 136.576 162.629V162.627Z" fill="#003263"/>
</g>
</g>
</g>
</g>
<defs>
<clipPath id="clip0_1_15">
<rect width="95" height="144" fill="white" transform="translate(45 20.5)"/>
</clipPath>
</defs>
</svg>
