<svg width="185" height="185" viewBox="0 0 185 185" fill="none" xmlns="http://www.w3.org/2000/svg">
<g id="AZ">
<circle id="Ellipse 3" cx="92.5" cy="92.5" r="89.5" fill="#A71930" stroke="white" stroke-width="6"/>
<g id="109 1" clip-path="url(#clip0_1_26)">
<path id="Vector" d="M150.532 140.737H149.329V144.75H148.51V140.737H147.301V139.868H150.532V140.737ZM156 144.75H155.183V140.866H155.167L154.007 144.75H153.223L152.1 140.865H152.077V144.75H151.26V139.866H152.68L153.609 143.052H153.632L154.601 139.866H156.001V144.749L156 144.75ZM70.3374 126.831L85.5995 95.5433C85.9982 97.4658 86.7983 101.293 86.9204 101.881C86.1365 103.53 74.3332 128.456 74.3332 128.456C74.3332 128.456 91.7461 110.89 92.5468 110.085C92.8397 110.511 105.45 129.187 105.45 129.187C105.45 129.187 99.5207 105.009 99.1192 103.361C99.4214 102.773 101.401 98.9128 102.653 96.4592L108.053 126.886L97.2646 144.999H143.63L121.469 24L90.6292 24.0238L28 145H77.4235L70.3374 126.831ZM86.1463 94.4242L95.8743 74.4844H98.7536L102.292 94.4242H86.1463Z" fill="#E3D4AD"/>
<path id="Vector_2" d="M95.245 28.7614H118.208L138.547 140.231H105.506L112.889 128.037L102.291 70.1753L93.5314 70.1674L65.2638 126.936L70.5376 140.182H37.8001L34.5887 142.611H74.0657L67.8198 126.887L94.6282 72.307H100.468L110.591 127.434L101.496 142.619H141.109L119.919 26.3158L93.9198 26.2913" fill="black"/>
<path id="Vector_3" d="M61.0868 119.882L64.5097 117.243L58.4223 99.5565L77.8152 84.7245L71.1511 70.1343L89.9083 59.0836L83.8544 46.0622L98.2958 38.228L93.0209 28.7614L91.796 26.5741L31.5683 142.57" fill="black"/>
<path id="Vector_4" d="M89.0783 102.242L81.683 117.847C81.683 117.847 91.4337 108.01 92.8175 106.618C93.7722 108.034 100.661 118.225 100.661 118.225C100.661 118.225 97.2548 104.326 96.9283 103L100.062 96.8943H87.9614C87.9614 96.8943 88.8706 101.27 89.0789 102.243L89.0783 102.242Z" fill="#A71930"/>
<path id="Vector_5" d="M65.2643 126.935L93.5319 70.1667L102.292 70.1747L112.89 128.036L105.507 140.231H138.548L118.208 28.7614H95.2444L100.904 39.3704L86.6372 47.2045L92.7806 60.1935L74.037 71.1481L80.3094 85.3444L60.9094 100.272L66.8852 118.169L37.8006 140.182H70.5381" fill="#A71930"/>
</g>
</g>
<defs>
<clipPath id="clip0_1_26">
<rect width="128" height="121" fill="white" transform="translate(28 24)"/>
</clipPath>
</defs>
</svg>
