<svg width="185" height="185" viewBox="0 0 185 185" fill="none" xmlns="http://www.w3.org/2000/svg">
<g id="BAL">
<circle id="Ellipse 3" cx="92.5" cy="92.5" r="89.5" fill="#DF4601" stroke="white" stroke-width="6"/>
<g id="110 1" clip-path="url(#clip0_1_40)">
<path id="Vector" d="M127.132 147.915H125.547V152.261H124.464V147.915H122.874V146.965H127.132V147.915ZM134.362 152.261H133.276V148.037H133.256L131.724 152.261H130.69L129.212 148.037H129.178V152.261H128.104V146.965H129.969L131.198 150.438H131.227L132.506 146.965H134.361L134.362 152.261Z" fill="#DF4601"/>
<path id="Vector_2" d="M163.467 38.7541C162.112 35.4869 158.849 32.5172 153.611 31.5922C145.337 30.7508 131.421 34.2248 117.518 37.1286C112.563 38.1761 102.178 39.5382 102.178 39.5382C94.0634 30.0241 84.8053 27.4828 78.9324 26.7158C75.6011 26.2626 74.0062 26.6012 72.6338 26.1471C71.4123 25.3305 67.6792 22.1463 60.7341 23.2185C60.7341 23.2185 54.3108 24.0514 49.3038 29.2818C48.3109 30.289 46.5252 32.6319 45.6962 35.0732C44.4415 36.2291 43.4332 36.4755 40.5899 39.2492C22.7403 54.4771 30.0448 74.3281 32.9205 80.9291C16.8158 93.5608 20.3234 108.214 20.3234 108.214L25.2896 107.405C24.9255 172.501 118.648 177.203 129.915 127.47C134.001 109.426 137.3 101.284 153.426 97.0349C156.684 96.1361 157.971 93.9668 157.856 92.3413C157.161 85.9457 143.337 78.9085 122.517 80.9058C121.28 76.7299 121.178 75.1222 121.178 75.1222C131.714 72.7298 146.148 68.0099 156.169 59.9501C164.156 53.5141 167.088 47.4252 163.468 38.7541M139.642 60.1732C129.597 64.7846 117.905 67.5396 115.036 68.3159C110.479 69.5695 110.65 70.7735 111.536 72.7631C113.532 77.249 114.161 80.1133 114.93 90.6733C121.517 88.693 133.388 88.982 143.975 91.5317C137.385 94.1876 130.504 98.768 124.693 106.523C107.279 129.772 79.6313 127.636 67.1157 115.54C64.391 117.858 67.944 125.72 67.944 125.72C67.3867 126.249 66.0543 125.713 66.0543 125.713C56.7677 110.202 66.6901 106.134 74.4319 105.697C77.6985 105.095 77.2844 107.076 74.2841 107.636C61.3629 110.607 79.1948 125.548 101.28 119.724C120.759 114.575 119.592 102.085 136.972 92.3902C123.063 89.7343 113.316 93.2579 109.165 95.4272C106.402 96.8528 101.845 96.9458 99.8162 96.2353C97.2554 104.13 88.854 106.358 72.797 102.423C61.3922 99.6272 52.3473 110.914 57.3673 125.402C62.5067 140.26 88.0265 155.144 115.939 137.669C113.661 140.574 110.825 143.146 107.493 145.285C100.264 149.92 90.916 152.495 81.1461 152.495C67.2274 152.477 54.2985 147.461 45.6916 138.691C37.8066 130.655 33.8842 120.037 34.0404 107.133C34.0404 104.857 34.8317 99.824 35.6029 98.2729L29.9748 98.6526C29.9748 98.6526 31.7575 90.4269 43.9143 83.3324H43.8812L43.3655 82.2841C30.9015 58.3905 42.742 48.9043 47.9222 44.6051C52.1387 41.0823 53.2209 41.2225 53.9914 38.2032C54.4424 36.4213 56.2451 34.5409 58.4911 33.3277C61.3645 31.579 64.8359 31.3884 66.881 32.907C68.8191 34.8462 72.5846 35.3087 74.8721 35.3087C92.7849 35.9347 98.1667 49.1196 98.1667 49.1196C102.24 47.849 108.897 47.7003 120.334 45.3737C142.276 40.4725 143.899 40.3571 147.451 40.0278C151.559 39.6559 154.977 39.9038 156.419 43.3438C157.858 46.7101 154.009 50.9427 153.013 51.9328C151.687 53.2608 146.799 56.8913 139.643 60.1763" fill="#DF4601"/>
<path id="Vector_3" d="M81.5062 56.2606C82.0966 56.1366 82.4245 55.9228 82.797 55.3463C83.3997 54.4127 83.5182 52.8617 83.5051 51.7235C83.4936 50.3212 83.215 48.4726 82.8093 47.1935C80.8619 48.3076 79.2032 48.3247 77.4252 47.2013C77.0149 48.6291 77.0326 50.2383 77.4329 51.6561C78.0356 53.7449 79.585 56.6324 81.507 56.2613M79.8421 46.4923C80.6949 46.8309 81.5431 46.8565 82.5638 46.3358C81.8834 43.9922 80.5964 41.2038 79.1463 41.2116C78.5474 41.2193 78.0517 41.475 77.7361 41.9631C77.3182 42.5984 77.2897 43.5544 77.6538 44.4206C78.0386 45.3294 78.8669 46.122 79.8421 46.4923ZM89.8129 50.1725C89.7021 50.4033 89.7313 50.6683 89.8899 50.8411C90.0546 51.0146 90.2925 51.0557 90.5257 50.9651C90.772 50.8643 90.9105 50.7171 90.9929 50.494C91.0745 50.3135 91.1161 50.0245 90.976 49.6851C90.9529 49.6363 90.9313 49.5767 90.8944 49.5379C90.8944 49.5379 90.8497 49.4961 90.8205 49.4791C90.294 49.6449 89.9576 49.8742 89.8129 50.1725Z" fill="black"/>
<path id="Vector_4" d="M156.415 43.3414C154.968 39.9015 151.562 39.6535 147.447 40.0254C143.894 40.3539 142.271 40.4701 120.33 45.3713C108.891 47.6971 102.235 47.8459 98.1659 49.1165C98.1659 49.1165 92.7809 35.9316 74.8743 35.304C72.576 35.304 68.809 34.8423 66.8755 32.9115C64.8311 31.3853 61.3597 31.5751 58.4856 33.3322C56.2442 34.537 54.4462 36.4173 53.9867 38.2001C53.22 41.2193 52.1393 41.0791 47.909 44.6019C42.7396 48.9003 30.896 58.3881 43.3508 82.2895L42.1623 79.897C42.1623 79.897 51.3011 78.8317 60.851 74.3265L43.9042 83.3308H43.9165C31.7566 90.4261 29.9693 98.6509 29.9693 98.6509L35.5959 98.2884C34.8262 99.8224 34.0303 104.847 34.0303 107.125C33.8787 120.037 37.8004 130.654 45.6853 138.691C54.2961 147.461 67.2219 152.477 81.1383 152.494C90.9182 152.494 100.258 149.919 107.487 145.29C110.82 143.144 113.655 140.572 115.933 137.659C88.0233 155.133 62.4997 140.257 57.3611 125.4C52.3464 110.912 61.3867 99.6248 72.7961 102.42C88.8493 106.348 97.2499 104.129 99.8115 96.2337C101.841 96.9434 106.394 96.852 109.165 95.4171C113.312 93.2571 123.058 89.7334 136.963 92.3901C119.583 102.085 120.755 114.575 101.276 119.724C79.1947 125.548 61.359 110.607 74.2801 107.637C77.2766 107.076 77.6946 105.096 74.4318 105.697C66.69 106.126 56.7592 110.201 66.0465 125.713C66.0465 125.713 67.3781 126.241 67.94 125.72C67.94 125.72 64.3824 117.858 67.1118 115.54C79.6273 127.634 107.283 129.771 124.689 106.522C130.5 98.7586 137.385 94.1875 143.971 91.5317C133.38 88.9827 121.513 88.6929 114.926 90.6817C114.152 80.1124 113.525 77.2489 111.532 72.7615C110.647 70.7727 110.475 69.5695 115.037 68.3143C117.898 67.5396 129.596 64.7837 139.64 60.1716C146.799 56.8866 151.685 53.2576 153.012 51.9296C154.005 50.9457 157.854 46.7054 156.415 43.3399M57.1217 40.4112C59.3693 32.0361 65.918 37.0852 65.918 37.0852L57.1225 40.4105L57.1217 40.4112ZM88.449 48.8097C88.4698 48.248 88.5106 47.5716 88.6507 47.1749L89.5712 46.4908L89.6451 46.4498L89.6621 46.5481C89.719 46.7883 89.8345 47.0099 90.0223 47.1757L90.3094 47.4066L91.113 48.0915C91.4439 48.4122 91.6364 48.6431 91.6903 48.8167L91.7888 49.163L91.8219 49.3117C91.962 50.1206 91.5725 50.8961 90.839 51.2998C90.4949 51.4989 90.1 51.4904 89.8514 51.4005C89.6636 51.3261 89.425 51.12 89.3311 50.8396C89.1925 50.4103 89.3965 49.5767 90.5395 49.1397C90.5395 49.1397 90.5934 49.1149 90.6504 49.0987C90.6019 49.0568 90.5565 49.032 90.5565 49.032C90.2039 48.7841 89.5635 48.2573 89.3188 47.8606L89.2572 47.7537C89.2372 47.8118 89.2202 47.8699 89.2202 47.8699C89.1664 48.0427 89.1217 48.2573 89.0848 48.5455L89.0232 49.5434L89.0024 49.8161L88.9485 50.7567L88.7977 51.7793C88.5237 53.0174 88.0318 53.7604 87.3029 54.0649L87.209 54.1153L87.3968 53.0848H87.4176C88.0026 52.7052 88.1873 51.8708 88.3027 50.6497L88.449 48.8074V48.8097ZM87.1251 45.7571C87.2736 45.4433 87.3676 45.3116 87.4946 45.2613C87.5238 45.2458 87.5685 45.221 87.6139 45.221C87.4984 45.6502 87.4984 45.6998 87.4707 45.9725C87.7293 45.9384 87.8686 45.9957 87.9217 46.1453C88.0218 46.3599 87.9425 46.7806 87.7709 47.0517C87.697 47.1835 87.6192 47.2423 87.4999 47.2997C87.1813 47.4314 87.0089 47.4391 86.9596 47.3167C86.8226 47.0029 86.9042 46.2437 87.1259 45.7571M75.6387 44.5849C75.2123 43.3972 75.4332 42.0359 76.1136 41.0458C76.7625 40.0967 77.7746 39.5691 78.9661 39.5118C81.0113 39.4033 82.9178 41.3758 84.3849 45.262C84.7082 44.9157 85.0361 44.4617 85.2285 43.9914L86.0159 44.2804C85.7004 44.9893 85.1962 45.7315 84.7043 46.1275C85.6688 48.7849 85.882 52.8927 84.612 55.5586C84.017 56.7797 83.1526 57.604 82.0296 57.9914C81.129 58.2974 79.9721 58.2316 79.0585 57.6947C77.4929 56.7882 76.2467 55.0217 75.4486 52.5789C74.6681 50.2197 74.5788 47.192 75.641 44.5849M90.2093 100.019C87.4799 100.927 84.2671 99.0631 81.9195 95.6302C83.3166 96.7109 84.886 97.0658 86.0837 96.3817C87.9802 95.3249 88.2389 92.1236 86.6456 89.2446C85.0584 86.357 82.2274 84.8718 80.3339 85.9363C79.6366 86.316 79.1563 87.0001 78.92 87.8422C78.1733 82.7846 79.682 78.3785 82.8424 77.3396C86.6463 76.0844 91.3754 80.1442 93.4129 86.4221C95.4434 92.6837 94.0171 98.7718 90.2109 100.019M105.287 93.8133C102.713 94.4982 99.8654 92.8061 97.7464 89.7226C98.8116 90.423 99.9631 90.6291 100.91 90.1673C102.713 89.3011 103.115 86.3632 101.795 83.6167C100.479 80.8779 97.9588 79.3516 96.1554 80.2348C95.5088 80.5486 95.0493 81.1103 94.7737 81.8432C94.0248 76.3982 95.7951 71.6536 99.1919 70.7463C103.054 69.6988 107.549 74.0391 109.237 80.4076C110.915 86.7762 109.157 92.7744 105.288 93.8141M86.8218 69.1232C77.83 67.9022 71.9941 67.9688 77.7808 64.1236C77.7808 64.1236 91.2315 53.5791 106.44 51.8297C120.546 50.0555 142.943 45.0567 142.943 45.0567C142.943 45.0567 131.911 51.7979 121.071 59.4139C109.21 66.5417 100.55 69.4284 86.8211 69.1216M129.111 59.1218C129.111 59.1218 151.107 43.6777 151.914 44.7832C153.892 47.5143 142.783 54.4523 129.111 59.1218Z" fill="black"/>
<path id="Vector_5" d="M57.1256 40.412L65.9126 37.0867C65.9126 37.0867 59.367 32.0384 57.1248 40.412M106.44 51.8305C91.2308 53.5799 77.7808 64.1074 77.7808 64.1074C71.9941 67.9765 77.8301 67.8936 86.8218 69.1317C100.555 69.4292 109.207 66.5572 121.066 59.4131C131.912 51.7972 142.943 45.0567 142.943 45.0567C142.943 45.0567 120.546 50.0563 106.44 51.8297M129.112 59.1233C142.784 54.4538 153.894 47.515 151.915 44.7848C151.107 43.6792 129.112 59.1233 129.112 59.1233Z" fill="#DF4601"/>
<path id="Vector_6" d="M42.1631 79.8986L43.3515 82.2903L43.8803 83.3377L43.905 83.33L60.851 74.3273C51.2988 78.841 42.1623 79.8978 42.1623 79.8978M82.8393 77.3419C79.6835 78.38 78.1672 82.7861 78.9161 87.843C79.1624 87.0016 79.6319 86.3167 80.3293 85.9371C82.2228 84.8733 85.0538 86.3585 86.641 89.2453C88.2381 92.1336 87.9726 95.3272 86.0744 96.3824C84.8814 97.0665 83.3112 96.7117 81.9149 95.6309C84.2625 99.0709 87.4722 100.92 90.214 100.021C94.0125 98.7757 95.4388 92.6868 93.4067 86.4252C91.3701 80.1457 86.641 76.086 82.8386 77.3411M99.1903 70.7486C95.7928 71.6551 94.0225 76.4005 94.776 81.8456C95.0516 81.1111 95.5096 80.5416 96.1538 80.2371C97.955 79.3617 100.477 80.8802 101.793 83.619C103.112 86.3663 102.71 89.3042 100.908 90.1696C99.9608 90.6314 98.8093 90.4253 97.7441 89.7241C99.8623 92.8092 102.71 94.4936 105.285 93.8164C109.154 92.7767 110.912 86.7792 109.237 80.4099C107.547 74.0414 103.052 69.7104 99.1919 70.7486" fill="white"/>
<path id="Vector_7" fill-rule="evenodd" clip-rule="evenodd" d="M79.0523 57.697C79.9698 58.2331 81.1252 58.2998 82.0273 57.9937C83.1511 57.6141 84.0147 56.7812 84.6135 55.5532C85.8797 52.8958 85.668 48.7872 84.7036 46.1298C85.1993 45.7269 85.708 44.9909 86.0152 44.282L85.2277 43.9922C85.0353 44.4625 84.7028 44.9165 84.3841 45.2628C82.9171 41.3603 81.0113 39.4056 78.9654 39.5118C77.7769 39.5699 76.7609 40.1068 76.1136 41.0458C75.4285 42.0375 75.213 43.398 75.6387 44.5865C74.5765 47.1928 74.675 50.2205 75.4462 52.5898C76.2483 55.0225 77.4906 56.789 79.0516 57.6954M77.7315 41.9623C78.0509 41.4758 78.5474 41.2108 79.1493 41.2108C80.6041 41.2031 81.8834 43.9922 82.5669 46.3428C81.5385 46.8542 80.6857 46.8387 79.8421 46.4916C78.8745 46.1197 78.0332 45.3279 77.653 44.4207C77.2882 43.5545 77.3174 42.6062 77.7315 41.9623ZM77.4236 47.2005C79.2017 48.3224 80.8565 48.3061 82.8116 47.2005C83.2142 48.4711 83.4928 50.3189 83.5098 51.722C83.5175 52.8609 83.3989 54.4105 82.7962 55.344C82.4237 55.9205 82.0958 56.1343 81.5054 56.2583C79.5834 56.6301 78.034 53.7504 77.4313 51.6546C77.0311 50.2446 77.0095 48.6276 77.4236 47.2005Z" fill="#DF4601"/>
<path id="Vector_8" d="M87.4976 47.3012C87.6169 47.2353 87.6947 47.185 87.7686 47.0533C87.941 46.7744 88.0187 46.3614 87.9194 46.1468C87.8656 45.9981 87.727 45.9407 87.4684 45.9733C87.4969 45.7021 87.4969 45.6517 87.6115 45.2217C87.5654 45.2217 87.5215 45.2481 87.493 45.2636C87.3652 45.3046 87.2713 45.4449 87.1236 45.7594C86.9019 46.2452 86.8203 46.9959 86.9558 47.3183C87.0066 47.4422 87.179 47.4329 87.4976 47.3012ZM87.416 53.0763L87.3953 53.0933L87.2067 54.116L87.3006 54.0672C88.0341 53.7612 88.5221 53.019 88.7961 51.7817L88.9439 50.7497L89.0009 49.8176L89.0217 49.5449L89.0909 48.547C89.1202 48.258 89.1656 48.0434 89.2187 47.8707C89.2187 47.8707 89.2341 47.8133 89.2549 47.7637C89.2834 47.8048 89.3165 47.8629 89.3165 47.8629C89.5628 48.258 90.2063 48.7872 90.5542 49.0266C90.5542 49.0266 90.6003 49.0599 90.6481 49.101C90.5911 49.118 90.538 49.142 90.538 49.142C89.3942 49.579 89.1895 50.4049 89.3295 50.8419C89.4219 51.1223 89.6682 51.3199 89.8491 51.4028C90.0985 51.4942 90.4918 51.5113 90.8359 51.3036C91.5694 50.9008 91.9597 50.1244 91.8196 49.3156L91.7865 49.1668L91.6879 48.8205C91.6341 48.647 91.4416 48.4176 91.1091 48.0946L90.3055 47.4097L90.0184 47.1788C89.8314 47.013 89.7159 46.7914 89.6667 46.5512L89.642 46.4521L89.5689 46.5016L88.6391 47.178C88.5113 47.5731 88.4667 48.2503 88.4467 48.8112L88.2989 50.6513C88.185 51.8715 88.0003 52.7044 87.4137 53.0763M90.8928 49.5372C90.9313 49.5775 90.956 49.6363 90.9713 49.6844C91.1145 50.0237 91.0737 50.3119 90.9998 50.494C90.9098 50.7171 90.7705 50.8659 90.5249 50.9643C90.2917 51.0557 90.0531 51.0139 89.8899 50.8403C89.7306 50.6598 89.7013 50.4034 89.8129 50.1725C89.9553 49.875 90.2878 49.6441 90.8243 49.4791C90.849 49.4961 90.8928 49.5372 90.8928 49.5372Z" fill="#DF4601"/>
</g>
</g>
<defs>
<clipPath id="clip0_1_40">
<rect width="145" height="138" fill="white" transform="translate(20 23)"/>
</clipPath>
</defs>
</svg>
