<svg width="185" height="185" viewBox="0 0 185 185" fill="none" xmlns="http://www.w3.org/2000/svg">
<g id="BOS">
<circle id="Ellipse 3" cx="92.5" cy="92.5" r="89.5" fill="#0C2340" stroke="white" stroke-width="6"/>
<g id="111 1" clip-path="url(#clip0_1_49)">
<path id="Vector" d="M129.904 104.249C128.384 99.0761 126.688 95.5107 123.821 93.0032C126.687 90.511 128.385 86.9393 129.903 81.7577C131.778 75.377 132.717 70.6928 139.999 67.5619C129.076 62.7511 128.034 56.8923 125.01 49.1542C121.676 40.6311 110.85 30 95.1906 30C88.6167 30 82.5361 31.917 77.5941 35.1564C74.1299 32.0199 69.492 30.0875 64.3878 30.0875C53.6788 30.0868 45 38.5406 45 48.9513C45 52.791 46.1693 56.3641 48.1835 59.3376C49.3631 54.6695 53.0817 51.0887 57.015 51.1433C61.1224 51.1993 64.5449 54.9606 64.55 59.6524L64.5405 78.6114C64.5405 85.5519 57.1298 91.0721 47.5338 93.0032C57.1298 94.9447 64.5405 100.465 64.5405 107.397L64.5493 126.364C64.5442 131.049 61.1216 134.809 57.0143 134.872C53.0809 134.928 49.3624 131.339 48.1828 126.679C46.1693 129.651 45 133.224 45 137.048C45 147.474 53.6788 155.92 64.3878 155.92C69.4913 155.92 74.1299 154.003 77.5941 150.85C82.5368 154.091 88.6152 155.999 95.1899 155.999C110.85 155.999 121.676 145.393 125.012 136.843C128.035 129.131 129.075 123.263 140 118.445C132.717 115.33 131.779 110.645 129.904 104.249ZM104.839 124.896C104.839 129.101 100.662 132.602 95.5136 132.602C92.0348 132.602 89.1041 131.37 87.3998 129.352V106.694C89.1049 104.668 92.0334 103.524 95.5144 103.524C100.662 103.524 104.838 106.932 104.838 111.142C104.838 113.902 102.346 116.371 99.4755 118.02C102.348 119.667 104.839 122.143 104.839 124.896ZM104.838 74.7788C104.838 78.9906 100.662 82.3979 95.5129 82.3979C92.0341 82.3979 89.1034 81.254 87.3991 79.2355V56.5761C89.1041 54.5492 92.0326 53.4221 95.5136 53.4221C100.661 53.4221 104.838 56.8209 104.838 61.0244C104.838 63.7845 102.346 66.2606 99.4748 67.9005C102.347 69.5566 104.838 72.0257 104.838 74.7781" fill="white"/>
<path id="Vector_2" d="M95.2067 47.5863C89.197 47.5863 83.978 50.4409 81.3331 54.6289V81.1735C83.9787 85.363 89.197 88.2106 95.2067 88.2106C103.882 88.2106 110.908 82.2636 110.908 74.9453C110.908 72.3587 110.035 69.9456 108.515 67.9026C110.035 65.8597 110.909 63.4389 110.909 60.8523C110.909 53.527 103.883 47.587 95.2081 47.587M107.016 74.9453C107.016 80.1898 101.717 84.4724 95.2067 84.4724C91.0175 84.4724 87.3267 82.7134 85.2307 80.0478V55.7491C87.3267 53.0904 91.0175 51.3252 95.2067 51.3252C101.718 51.3252 107.016 55.591 107.016 60.8516C107.016 63.6432 105.528 66.1507 103.155 67.9019C105.528 69.6287 107.016 72.1523 107.016 74.9439" fill="#0D2B56"/>
<path id="Vector_3" d="M128.521 107.278C127.329 103.918 126.918 97.4599 120.188 92.9962C126.917 88.5394 127.33 82.0817 128.521 78.7304C130.468 73.2871 131.754 69.9442 135.889 67.5864C121.155 59.4166 128.269 51.9948 116.048 40.2918C105.492 30.1889 88.9002 29.3843 77.3997 37.8941C74.2205 34.4714 69.5987 32.327 64.4492 32.327C54.8773 32.327 47.1172 39.7559 47.1172 48.9191C47.1172 50.8991 47.4717 52.8001 48.1434 54.5674C49.7994 51.286 53.0824 49.0472 56.8674 49.0472C62.3049 49.0472 66.7162 53.676 66.7162 59.3621V78.2406C66.7162 80.2206 66.0249 89.0138 54.2071 92.9962C66.0249 96.9946 66.7162 105.78 66.7162 107.759V126.631C66.7162 132.333 62.3049 136.939 56.8674 136.939C53.0817 136.939 49.8002 134.722 48.1441 131.434C47.4732 133.2 47.1187 135.109 47.1187 137.08C47.1187 146.243 54.8788 153.672 64.4514 153.672C69.5994 153.672 74.2213 151.519 77.4019 148.105C88.9017 156.606 105.493 155.801 116.05 145.7C128.271 134.013 121.157 126.583 135.891 118.405C131.756 116.063 130.47 112.718 128.522 107.277M120.885 130.795C119.501 134.699 118.184 138.389 113.294 143.066C103.372 152.569 86.9123 152.253 76.9809 142.752C74.852 147.182 69.864 149.944 64.4514 149.944C57.8847 149.944 52.4027 145.409 51.245 139.439C52.9508 140.243 54.8656 140.678 56.8674 140.678C64.4426 140.678 70.6124 134.377 70.6124 126.632V107.761C70.6124 104.488 69.299 97.8237 62.5512 92.9983C69.299 88.1637 70.6124 81.515 70.6124 78.2427V59.36C70.6124 51.6317 64.4426 45.33 56.8674 45.33C54.8649 45.33 52.9501 45.7707 51.245 46.5445C52.4027 40.5906 57.8847 36.0568 64.4514 36.0568C69.864 36.0568 74.8513 38.8163 76.9809 43.2401C86.9131 33.7445 103.372 33.4297 113.294 42.9323C118.184 47.6087 119.501 51.293 120.886 55.2041C122.385 59.3991 123.926 63.7216 129.553 67.9796C127.275 70.6851 126.122 73.9336 124.842 77.5228C124.561 78.2952 124.348 79.146 124.103 80.0226C123.42 82.6092 120.718 89.4238 114.886 92.9962C120.718 96.5854 123.421 103.383 124.104 105.97C124.348 106.861 124.562 107.698 124.842 108.47C126.123 112.066 127.276 115.323 129.553 118.02C123.926 122.285 122.385 126.599 120.886 130.796" fill="#0D2B56"/>
<path id="Vector_4" d="M95.2067 97.7908C89.197 97.7908 83.978 100.645 81.3331 104.817V131.379C83.9787 135.566 89.197 138.414 95.2067 138.414C103.882 138.414 110.908 132.467 110.908 125.148C110.908 122.562 110.035 120.149 108.515 118.106C110.035 116.047 110.909 113.642 110.909 111.055C110.909 103.729 103.883 97.7894 95.2081 97.7894M107.017 125.148C107.017 130.4 101.718 134.675 95.2081 134.675C91.019 134.675 87.3282 132.908 85.2321 130.25V105.952C87.3282 103.287 91.019 101.528 95.2081 101.528C101.72 101.528 107.017 105.795 107.017 111.055C107.017 113.847 105.53 116.355 103.157 118.106C105.53 119.841 107.017 122.364 107.017 125.148ZM116.423 148.941H117.049V150.59H117.449V148.941H118.08V148.618H116.424M119.641 150.022L119.08 148.618H118.499V150.59H118.87V149.06H118.882L119.492 150.59H119.777L120.386 149.06H120.397V150.591H120.763V148.619H120.196" fill="#0D2B56"/>
<path id="Vector_5" d="M124.105 105.969C123.418 103.382 120.712 96.5762 114.883 92.9961C120.712 89.4153 123.417 82.6092 124.105 80.0226C124.34 79.148 124.558 78.3036 124.839 77.5221C126.115 73.9343 127.281 70.6851 129.547 67.9789C123.924 63.7131 122.383 59.3991 120.884 55.2033C119.501 51.2923 118.183 47.6017 113.298 42.9315C103.371 33.4304 86.9072 33.7452 76.9846 43.2408C74.8505 38.8169 69.8633 36.0568 64.4506 36.0568C57.8877 36.0568 52.402 40.5905 51.2443 46.5445C52.9501 45.7721 54.8649 45.3222 56.8667 45.3222C64.4419 45.3222 70.6065 51.624 70.6065 59.3599V78.2406C70.6065 81.5219 69.2983 88.1686 62.5512 92.9961C69.2983 97.8307 70.6073 104.486 70.6073 107.759V126.631C70.6073 134.376 64.4419 140.677 56.8674 140.677C54.8649 140.677 52.9501 140.243 51.2443 139.439C52.402 145.408 57.8877 149.942 64.4506 149.942C69.8633 149.942 74.8505 147.182 76.9846 142.75C86.9072 152.261 103.371 152.568 113.298 143.065C118.183 138.388 119.501 134.697 120.884 130.793C122.384 126.599 123.924 122.285 129.547 118.018C127.282 115.321 126.116 112.064 124.839 108.467C124.559 107.696 124.341 106.86 124.106 105.97M110.907 125.148C110.907 132.466 103.877 138.413 95.2067 138.413C89.197 138.413 83.978 135.565 81.3331 131.378V104.817C83.9787 100.645 89.197 97.7901 95.2067 97.7901C103.877 97.7901 110.908 103.729 110.908 111.055C110.908 113.642 110.035 116.047 108.515 118.106C110.035 120.14 110.909 122.561 110.909 125.148M110.909 74.9432C110.909 82.2615 103.878 88.2085 95.2081 88.2085C89.1984 88.2085 83.9795 85.3609 81.3346 81.1735V54.6289C83.9802 50.4402 89.1984 47.5856 95.2081 47.5856C103.878 47.5856 110.91 53.5242 110.91 60.8509C110.91 63.4375 110.037 65.8583 108.517 67.9012C110.037 69.9442 110.91 72.3566 110.91 74.9432" fill="#BD3039"/>
</g>
</g>
<defs>
<clipPath id="clip0_1_49">
<rect width="95" height="126" fill="white" transform="translate(45 30)"/>
</clipPath>
</defs>
</svg>
