<svg width="185" height="185" viewBox="0 0 185 185" fill="none" xmlns="http://www.w3.org/2000/svg">
<g id="CHC">
<g id="112 1" clip-path="url(#clip0_1_70)">
<path id="Vector" d="M0 92.4996C0 41.4156 41.4128 0 92.4905 0C143.587 0 185 41.4156 185 92.4996C185 143.584 143.587 184.999 92.4913 184.999C41.4136 184.999 0 143.584 0 92.4996Z" fill="white"/>
<path id="Vector_2" d="M5.96432 92.1361C5.96432 44.3683 44.692 5.63376 92.4667 5.63376C140.237 5.63376 178.977 44.3683 178.977 92.1361C178.977 139.904 140.237 178.647 92.4667 178.647C44.692 178.647 5.96432 139.904 5.96432 92.1361ZM92.4667 156.044C127.75 156.044 156.361 127.428 156.361 92.1361C156.361 56.8532 127.751 28.244 92.466 28.244C57.1767 28.244 28.5693 56.8524 28.5693 92.1361C28.5709 127.428 57.1775 156.044 92.4667 156.044Z" fill="#0E3386"/>
<path id="Vector_3" d="M120.598 110.204C114.647 119.442 104.276 125.567 92.4667 125.567C74.0035 125.567 59.0475 110.602 59.0475 92.1369C59.0475 73.6951 74.0035 58.7145 92.4667 58.7145C104.631 58.7145 115.286 65.2282 121.14 74.956L137.59 58.9093C127.375 45.0701 110.976 36.1026 92.4667 36.1026C61.526 36.1026 36.4307 61.2102 36.4307 92.1361C36.4307 123.079 61.526 148.16 92.4667 148.16C110.781 148.16 127.036 139.388 137.255 125.82L120.598 110.204Z" fill="#CC3433"/>
<path id="Vector_4" d="M82.5769 97.6938V77.3741H92.6442V97.9385C92.6442 105.323 90.9016 107.049 85.0426 107.049H74.5738C69.7469 107.049 68.1873 103.927 68.1873 97.3968V77.3741H78.249V97.693C78.249 100.46 82.5769 100.46 82.5769 97.6938ZM96.2901 107.049V77.3741H112.181C118.166 77.3741 120.734 78.7792 120.734 85.7245C120.734 89.3703 120.04 91.2648 117.956 92.3143C120.734 93.8698 120.734 96.8225 120.734 99.4268C120.734 106.009 117.823 107.049 112.181 107.049H96.2901Z" fill="#CC3433"/>
<path id="Vector_5" d="M111.141 85.4608C111.106 84.2513 109.964 84.3361 106.859 84.3361V88.4982C108.594 88.4982 111.141 88.6757 111.141 87.1106V85.4608H111.141ZM111.068 97.5496C110.539 96.1279 110.244 96.2982 106.859 96.2982V100.46C109.026 100.46 111.069 100.637 111.069 99.0735C111.069 98.6918 111.172 97.8459 111.069 97.5496H111.068Z" fill="white"/>
<path id="Vector_6" d="M140.812 107.049C146.23 107.049 149.035 105.578 149.035 100.789C149.035 100.205 149.005 94.7411 149.005 94.1486C149.035 90.6716 146.535 88.4127 143.041 88.4127H135.792C133.824 88.4127 134.264 85.5455 134.264 84.6822C134.264 83.2961 138.363 82.8637 138.363 85.1226V86.5007H149.035C149.035 79.5736 147.77 77.3741 140.812 77.3741C139.204 77.4002 133.279 77.4002 131.434 77.4002C126.977 77.4002 124.54 79.1427 124.371 84.3369C124.209 89.5406 124.371 87.2817 124.371 89.2016C124.371 91.0969 124.078 95.3517 129.915 95.3517H137.278C139.364 95.3517 138.95 97.7793 138.95 97.7793V99.327C138.95 101.077 135.43 101.154 134.636 99.7151C134.111 98.7686 134.39 97.2629 134.39 97.2629H124.371C124.371 99.327 123.244 107.05 129.293 107.05H140.81L140.812 107.049Z" fill="#CC3433"/>
<g id="Group">
<path id="Vector_7" d="M138.249 112.303H136.536V116.989H135.372V112.302H133.663V111.286H138.249V112.301L138.249 112.303ZM146.044 116.989H144.878V112.464H144.855L143.206 116.989H142.081L140.494 112.464H140.451V116.989H139.301V111.288H141.307L142.635 115.026H142.659L144.043 111.288H146.043V116.989H146.044Z" fill="#0E3386"/>
</g>
</g>
</g>
<defs>
<clipPath id="clip0_1_70">
<rect width="185" height="185" fill="white"/>
</clipPath>
</defs>
</svg>
