<svg width="185" height="185" viewBox="0 0 185 185" fill="none" xmlns="http://www.w3.org/2000/svg">
<g id="CIN">
<circle id="Ellipse 3" cx="92.5" cy="92.5" r="89.5" fill="#C6011F" stroke="white" stroke-width="6"/>
<g id="113 1" clip-path="url(#clip0_1_75)">
<path id="Vector" d="M97.6136 57.8318C116.615 57.8318 130.955 67.8286 135.768 76.4993H159.691C159.252 75.5056 158.18 72.2034 158.18 72.2034H135.334C130.519 63.5327 115.521 53.5384 96.5197 53.5384C64.2091 53.5384 51.5287 78.003 51.5287 89.7286C51.5287 96.5138 53.2679 102.487 56.2163 107.567C54.2871 103.428 53.8314 97.2028 53.8314 93.1733C53.8314 81.4539 66.03 57.8318 97.6136 57.8318Z" fill="#C6011F"/>
<path id="Vector_2" d="M95.6704 147.789C62.6372 147.789 49.6509 131.639 34.3566 113.133C28.0813 105.541 24.1596 98.6867 14.0011 90.1505L16.0922 95.6509C25.8604 104.753 29.8904 111.332 36.1634 118.916C51.46 137.435 64.2248 151.999 97.2602 151.999C126.177 151.999 148.568 135.714 159.089 115.683L157.511 111.466C146.98 131.504 124.596 147.789 95.6704 147.789Z" fill="#C6011F"/>
<path id="Vector_3" d="M96.5196 53.5378C115.521 53.5378 130.519 63.5345 135.334 72.2052H158.18C147.588 48.3611 120.24 34 92.8892 34C66.03 34 45.5013 51.6547 33.7265 67.5529C22.3008 82.9594 17.0572 87.9005 15.048 89.4535C14.3107 90.0222 14 90.1511 14 90.1511C24.1607 98.6873 28.0824 105.541 34.3555 113.134C49.652 131.639 62.6382 147.79 95.6693 147.79C124.596 147.79 146.979 131.505 157.511 111.465H134.922C124.347 120.613 111.404 127.986 94.9515 127.986C79.7535 127.986 63.8789 120.764 56.2185 107.57C53.2678 102.486 51.5287 96.5132 51.5287 89.7311C51.5287 78.0024 64.2091 53.5378 96.5196 53.5378ZM153.527 135.127H151.873V140.249H150.76V135.127H149.107V134.016H153.527V135.127ZM161 140.241H159.889V135.286H159.861L158.276 140.241H157.196L155.671 135.286H155.645V140.249H154.534V134.016H156.466L157.733 138.092H157.762L159.077 134.016H160.999V140.241H161Z" fill="white"/>
</g>
</g>
<defs>
<clipPath id="clip0_1_75">
<rect width="147" height="118" fill="white" transform="translate(14 34)"/>
</clipPath>
</defs>
</svg>
