<svg width="185" height="185" viewBox="0 0 185 185" fill="none" xmlns="http://www.w3.org/2000/svg">
<g id="CLE">
<circle id="Ellipse 3" cx="92.5" cy="92.5" r="89.5" fill="#0C2340" stroke="white" stroke-width="6"/>
<path id="Vector" d="M131.804 159.723H129.777V164.961H128.419V159.723H126.412V158.583H131.804V159.723ZM140.946 164.961H139.588V159.897H139.547L137.622 164.961H136.304L134.439 159.897H134.419V164.961H133.02V158.602H135.392L136.953 162.758H136.993L138.615 158.602H140.966V164.961H140.946ZM107.682 111.635V131.021C102.412 132.761 97.0811 134.249 91.4459 135.486C86.1959 133.959 81.1284 132.316 76.2432 130.499C76.223 105.237 76.527 79.956 77.0135 54.6941C82.0203 52.7033 87.5135 50.6931 92.2365 49.2049C97.3243 50.7125 102.068 52.336 106.932 54.0949C107.135 58.6757 107.034 65.4792 106.912 76.9215C111.757 77.7913 122.095 77.0375 133.628 75.5492C134.155 71.7995 134.804 68.0499 135.453 64.3195C137.804 50.8284 140.034 37.5886 142 25.2379C131.784 23.7303 120.655 22.8606 115.162 23.6144L113.054 29.0069C106.385 25.8371 99.5743 22.8219 92.2365 20C75.3513 26.243 59.8851 32.9885 44.1757 40.7391C47.1959 54.8487 48.3716 65.9624 48.3716 84.5754C48.3716 111.674 46.4054 132.413 43 146.02C58.973 153.268 74.4392 159.511 91.2027 165C107.054 159.762 122.905 154.002 140.966 145.768C139.405 136.162 136.122 119.791 133.628 109.547C125.216 109.76 116.581 110.514 107.682 111.635Z" fill="#002B5C"/>
<path id="Vector_2" d="M112.242 115.899V134.589C105.539 136.911 98.6744 138.923 91.2408 140.413C84.6196 138.478 78.0796 136.369 71.8037 133.912C71.7428 106.747 72.0678 79.4851 72.6162 52.32C78.8514 49.7273 86.285 47.0378 92.1547 45.1417C98.8978 47.0572 104.971 49.2049 111.226 51.5267C111.653 56.0155 111.592 62.4198 111.429 73.5258C116.019 73.6419 122.458 73.1389 129.79 72.2682C132.288 57.5247 134.786 42.8973 137 29.2567C129.912 28.386 123.087 27.8829 118.355 27.999L115.512 35.3321C107.976 31.6365 100.401 28.2312 92.236 25C77.1454 30.6304 63.2328 36.6284 49.0561 43.4971C51.6762 56.3831 52.7323 67.6245 52.7323 84.9994C52.7323 110.249 51.0262 130.255 48 144.128C62.2985 150.494 76.2111 156.008 91.1798 161C106.534 155.873 121.625 150.378 135.924 143.877C135.131 138.13 132.511 124.509 130.155 114.37C124.326 114.641 118.416 115.144 112.242 115.899Z" fill="#E31937"/>
</g>
</svg>
