<svg width="185" height="185" viewBox="0 0 185 185" fill="none" xmlns="http://www.w3.org/2000/svg">
<g id="COL">
<path id="Ellipse 3" d="M182 92.5C182 141.929 141.929 182 92.5 182C43.0705 182 3 141.929 3 92.5C3 43.0705 43.0705 3 92.5 3C141.929 3 182 43.0705 182 92.5Z" fill="#33006F" stroke="white" stroke-width="6"/>
<g id="115 1" clip-path="url(#clip0_1_90)">
<path id="Vector" d="M158.169 156.09L156.908 159.297H156.883L155.673 156.09H153.827V161H154.894V157.093H154.918L156.377 161H157.402L158.91 157.093H158.94V161H160.001V156.09M148.671 156.964H150.241V161H151.302V156.964H152.872V156.09H148.671" fill="black"/>
<path id="Vector_2" d="M54.7384 33.664C54.7384 33.664 30.8846 42.4763 30.8613 71.1301C30.8329 100.486 53.8594 106.032 53.8594 106.032C53.8594 106.032 42.0052 91.9983 42.0402 69.4758C42.0836 45.224 54.7384 33.664 54.7384 33.664Z" fill="#C4CED4"/>
<path id="Vector_3" d="M135.85 151.467C130.917 146.895 121.914 122.875 114.476 121.294C117.203 120.001 134.362 116.232 134.439 98.7426C134.362 79.8348 115.785 73.7085 97.2064 73.7085C93.2589 73.7085 86.0605 73.9843 78.7453 74.3933C69.4576 74.9404 64.6968 75.3509 57.6217 75.8971V82.3282C67.5987 82.3282 69.6903 84.5168 69.6903 94.7775V107.012C55.9421 104.276 46.9159 89.8548 46.9159 69.5838C46.9159 48.1229 57.6113 33.0316 73.2371 33.0316C79.115 33.0316 84.2831 35.2467 88.3973 39.2618C92.5142 43.2748 95.4474 49.0916 96.7425 56.1538H102.264L101.213 27.2145H96.8578C96.3902 28.5997 95.8044 29.1544 94.7404 29.1544C91.8061 29.1544 84.8766 24.9988 72.301 24.9988C58.67 24.9988 47.0352 29.7078 38.9301 38.0155C30.7017 46.4619 25.9987 57.9546 25.9987 71.7995C25.9987 81.3541 28.935 92.1523 35.6394 100.737C42.3335 109.322 53.1488 115.552 68.8895 115.552C69.1613 115.552 69.4198 115.533 69.69 115.528V142.524C69.69 152.51 67.3689 154.562 57.6213 154.562V160.994H101.619V154.562C92.5619 154.562 89.1945 153.332 89.1945 143.208V124.875H95.3469C95.3469 124.875 118.027 161.002 118.644 160.999C120.249 160.994 145.73 160.983 145.73 160.983V154.586C145.731 154.586 140.611 155.378 135.85 151.467V151.467ZM30.8607 71.1299C30.8841 42.4754 54.7378 33.6638 54.7378 33.6638C54.7378 33.6638 42.0837 45.2238 42.0396 69.4755C42.0046 91.9983 53.8588 106.032 53.8588 106.032C53.8588 106.032 30.8326 100.486 30.861 71.1299H30.8607ZM84.4708 154.543H74.4444V81.2191L84.4702 80.5652V154.543H84.4708ZM128.521 99.1116C128.572 113.515 109.881 117.144 109.881 117.144C109.881 117.144 116.786 113.222 116.791 99.2734C116.799 85.1917 110.184 81.2093 110.184 81.2093C110.184 81.2093 128.471 82.7636 128.522 99.1116H128.521ZM89.1952 118.172V113.654C89.636 113.639 90.0825 113.614 90.5123 113.614C91.9284 113.614 93.2175 113.614 94.2728 113.892C95.4474 114.029 96.6287 114.306 97.6817 114.721L98.039 113.754C101.442 104.339 104.266 94.0925 105.204 86.1966H99.6811C96.8738 93.2919 93.3678 98.6041 89.1945 102.15V80.2772H94.882C106.143 80.2772 112.069 87.3895 112.069 98.1952C112.069 112.288 106.036 118.444 89.1952 118.171V118.172ZM119.189 154.582C119.189 154.582 106.273 132.811 100.336 125.013C100.336 125.013 104.694 124.363 106.82 123.785C108.758 123.266 110.17 122.74 110.17 122.74C115.233 125.142 122.469 135.798 126.335 144.513C130.502 152.376 133.483 154.612 133.483 154.612L119.189 154.582V154.582Z" fill="black"/>
<path id="Vector_4" d="M74.4443 154.543H84.4707V80.5654L74.444 81.2193M116.791 99.2736C116.786 113.221 109.881 117.144 109.881 117.144C109.881 117.144 128.572 113.516 128.522 99.1115C128.471 82.7641 110.183 81.2099 110.183 81.2099C110.183 81.2099 116.799 85.1923 116.791 99.2739V99.2736ZM126.336 144.513C122.469 135.798 115.233 125.141 110.171 122.741C110.171 122.741 108.758 123.266 106.82 123.785C104.694 124.363 100.337 125.014 100.337 125.014C106.274 132.811 119.189 154.582 119.189 154.582L133.483 154.613C133.483 154.613 130.501 152.377 126.336 144.513V144.513Z" fill="#C4CED4"/>
</g>
</g>
<defs>
<clipPath id="clip0_1_90">
<rect width="134" height="136" fill="white" transform="translate(26 25)"/>
</clipPath>
</defs>
</svg>
