<svg width="185" height="185" viewBox="0 0 185 185" fill="none" xmlns="http://www.w3.org/2000/svg">
<g id="DET">
<path id="Ellipse 3" d="M182 92.5C182 141.929 141.929 182 92.5 182C43.0705 182 3 141.929 3 92.5C3 43.0705 43.0705 3 92.5 3C141.929 3 182 43.0705 182 92.5Z" fill="#FA4616" stroke="white" stroke-width="6"/>
<path id="Vector" d="M139.237 125.109V62.5653C139.621 57.2249 140.931 55.5086 144.752 51.8844C136.236 48.6437 126.48 38.5406 121.226 27.8597C94.9601 41.5908 65.6865 41.5908 43.5561 21.7592C41.3578 19.7879 38.8683 18.7882 40.5559 22.5198C46.8028 36.3181 59.7785 44.9044 74.3694 48.7153C65.9727 56.1146 61.0226 60.4739 59.9219 69.8381C52.7372 70.3814 45.053 75.7225 42.6189 80.6788C39.8477 86.3242 43.9542 86.436 46.7418 84.4922C50.3081 82.0135 55.3638 81.0598 59.6861 81.2496L59.6766 88.3351C52.4976 88.8797 45.4279 94.2189 42.9944 99.1758C40.2219 104.82 44.3278 104.93 47.1142 102.991C50.683 100.51 55.3638 99.1758 59.6854 99.3663V120.723C59.6854 129.114 55.5594 133.306 53.1146 135.597C50.683 137.885 52.0233 140.273 55.56 138.837C62.9775 135.82 70.6843 128.67 72.4398 117.78C75.2777 118.151 78.6817 118.183 81.0768 117.796L81.0743 120.723C81.0743 129.114 76.9457 133.306 74.5078 135.597C74.4701 135.633 74.4449 135.67 74.4084 135.706C66.5148 136.406 59.4534 139.113 53.8297 143.558C41.0301 153.711 39.0614 172.782 41.0301 176.998C41.1509 177.271 48.2407 153.428 69.293 150.893C81.49 149.431 96.4646 153.139 109.22 164.39C117.099 151.039 130.427 143.415 146 140.721C140.742 134.645 139.43 131.975 139.237 125.109ZM122.354 54.9346V73.6733C113.934 76.253 101.787 76.1597 94.2104 73.3971V70.9554C94.2104 64.3206 94.7576 55.9139 100.128 50.6131C105.256 50.057 110.239 48.9639 114.848 47.3116L122.354 54.9346H122.354ZM94.2104 79.8824C101.788 82.6424 113.935 82.7364 122.354 80.1572V98.3653C113.934 95.7849 101.787 95.8789 94.2104 98.6402V79.8837V79.8824ZM93.7091 51.0209C89.7541 54.53 86.374 57.7912 84.1028 61.5803C81.095 60.5666 78.3351 59.967 75.6525 59.8162C77.3866 56.275 79.8686 52.9672 82.8581 50.4085C86.4646 50.8841 90.1007 51.0861 93.7097 51.0221M72.8153 112.373V70.9567C72.8153 69.135 73.0983 67.2033 73.6122 65.25C76.5784 64.9073 79.5497 65.2167 82.0857 66.1372C81.4882 68.0765 81.1064 70.1513 81.1189 72.5086L81.0831 112.134C78.9666 112.599 75.7136 112.652 72.814 112.373M105.093 142.268C96.9445 138.175 88.9157 136.052 81.4202 135.616C88.1502 131.019 94.2104 122.914 94.2104 112.145V105.128C101.788 102.363 113.935 102.271 122.354 104.851V131.977C117.099 133.5 110.722 137.312 105.092 142.268M145.999 153.291H145.273V150.555L144.29 153.291H143.862L142.878 150.555V153.291H142.153V149.902H143.324L144.077 151.906L144.826 149.902H146V153.292L145.999 153.291ZM141.749 150.557H140.732V153.293H139.932V150.557H138.92V149.902H141.75L141.749 150.557Z" fill="#0C2C56"/>
</g>
</svg>
