<svg width="185" height="185" viewBox="0 0 185 185" fill="none" xmlns="http://www.w3.org/2000/svg">
<g id="HOU">
<g id="117 1" clip-path="url(#clip0_1_110)">
<path id="Vector" d="M92.5059 185C41.5027 185 0 143.504 0 92.5004C0 41.4964 41.5027 0 92.5059 0C143.511 0 185 41.4964 185 92.5004C185 143.504 143.51 185 92.5059 185Z" fill="#002D62"/>
<path id="Vector_2" d="M137.978 65.9878H168.399C157.592 35.027 128.397 12.7415 93.896 12.1419L106.901 52.1556H137.978V65.9878ZM47.0391 138.824V125.027L57.9494 121.106V98.9816L15.7988 68.3528C13.3453 76.1711 12.0994 84.318 12.1039 92.5123C12.1039 118.756 24.6815 142.046 44.137 156.711L49.9443 138.824H47.0391ZM47.0391 52.1556H78.1107L91.1159 12.1419C56.6093 12.7177 27.4203 35.0278 16.5955 65.9878H47.0391V52.1556ZM98.4549 128.434L92.5067 124.097L86.5459 128.435V138.827H72.2417L45.8827 157.986C59.0289 167.372 75.1144 172.898 92.5051 172.898C109.89 172.898 125.971 167.36 139.128 157.987L112.757 138.826H98.4526V128.434H98.4549ZM169.214 68.3765L127.081 98.9808V121.107L137.979 125.028V138.825H135.057L140.87 156.711C160.325 142.034 172.896 118.744 172.896 92.5123C172.904 84.3265 171.662 76.1875 169.214 68.3765Z" fill="#002D62"/>
<path id="Vector_3" d="M92.5059 6.26025C44.853 6.26025 6.26105 44.853 6.26105 92.5004C6.26105 140.146 44.853 178.74 92.5059 178.74C140.134 178.74 178.746 140.148 178.746 92.5012C178.746 44.8538 140.134 6.26105 92.5051 6.26105M140.869 156.712L135.055 138.825H112.758L139.128 157.973C125.977 167.347 109.89 172.897 92.5051 172.897C75.1199 172.897 59.0218 167.371 45.8882 157.975L72.2417 138.826H58.3795L43.063 160.031L44.1363 156.711C24.6807 142.058 12.0984 118.755 12.0984 92.5004C12.0984 84.0945 13.3973 75.9864 15.7972 68.3528L57.9438 98.9808V93.6758L25.7523 70.2758L12.5094 65.9878H16.5963C27.4203 35.027 56.6085 12.7177 91.1032 12.1419L92.5051 7.85383V86.6457H109.36V69.8814L98.4557 65.9862V52.1556H106.896L93.896 12.1419C128.391 12.7304 157.592 35.0278 168.4 65.9878H172.51L159.265 70.2885H127.081V98.9816L169.214 68.3773C171.66 76.1847 172.902 84.3195 172.897 92.5012C172.897 118.745 160.324 142.035 140.869 156.712Z" fill="#EB6E1F"/>
<path id="Vector_4" d="M109.358 121.107V104.36H83.2922L75.6546 114.921V121.107L86.5451 125.017V128.434L92.4996 124.097L98.4589 128.435V125.017" fill="#EB6E1F"/>
<path id="Vector_5" d="M127.086 69.883V70.2885H159.259L172.503 65.9878H137.978M86.5459 52.1556V65.9885L75.6554 69.8814V86.6298H92.5004V7.85384L91.1159 12.1419L78.1107 52.1556M75.6554 114.921L83.2874 104.36H75.6554M44.137 156.711L43.0646 160.032L58.3905 138.825H49.9458M47.0391 65.9878H12.5094L25.7523 70.2758L57.951 93.6758V69.883" fill="#F4911E"/>
<path id="Vector_6" d="M47.0391 125.017V138.824L50.5375 135.308H83.03V127.479L86.5467 125.017L75.6562 121.108L72.1316 123.583V100.845H112.876L109.359 104.362V121.109L98.4557 125.018V138.826L101.977 135.309H134.463V127.481L137.98 125.019L127.082 121.11L123.547 123.585V67.4103L134.463 63.5V55.6841L137.98 52.1548H98.4557V65.987L101.977 63.5L112.876 67.4087L109.359 69.8814V86.6298H75.6554L72.1308 90.1583V67.4103L83.0292 63.5V55.6841L86.5459 52.1548H47.0391V65.987L50.5375 63.5L61.4597 67.4087L57.951 69.8814V121.106" fill="white"/>
<path id="Vector_7" d="M137.978 65.9878V52.1556L134.456 55.6841V63.5L123.551 67.4095V123.581L127.086 121.106V69.8838M137.978 125.017L134.456 127.48V135.308H101.976L98.4486 138.824H137.979M75.6554 104.36H109.357L112.867 100.844H72.1308V123.583L75.6554 121.096V114.921M86.5459 128.434V125.017L83.0371 127.48V135.308H50.543L47.0391 138.824H86.5459M61.4605 67.4103L50.5383 63.5L47.0399 65.987L57.9462 69.8957M101.976 63.5L98.4549 65.987L109.358 69.8957L112.875 67.4087M86.5459 65.9878V52.1556L83.0371 55.6841V63.5L72.1245 67.4103V90.1599L75.6538 86.6314V69.883" fill="#E7E9EA"/>
<path id="Vector_8" d="M164.981 168.215H163.065V173.411H161.777V168.215H159.86V167.089H164.981V168.216V168.215ZM173.636 173.411H172.345V168.374H172.308L170.476 173.411H169.232L167.456 168.374H167.43V173.411H166.131V167.088H168.368L169.851 171.217H169.868L171.406 167.088H173.636V173.411Z" fill="#002D62"/>
</g>
</g>
<defs>
<clipPath id="clip0_1_110">
<rect width="185" height="185" fill="white"/>
</clipPath>
</defs>
</svg>
