<svg width="185" height="185" viewBox="0 0 185 185" fill="none" xmlns="http://www.w3.org/2000/svg">
<g id="KC">
<path id="Ellipse 3" d="M182 92.5C182 141.929 141.929 182 92.5 182C43.0705 182 3 141.929 3 92.5C3 43.0705 43.0705 3 92.5 3C141.929 3 182 43.0705 182 92.5Z" fill="#7AB2DD" stroke="white" stroke-width="6"/>
<g id="118 1" clip-path="url(#clip0_1_114)">
<g id="Group">
<path id="Vector" d="M39.422 53.5679C39.422 45.1146 34.2031 42.3978 29.5263 42.461L28 42.3978V38.0176H58.4843L58.4896 42.4795C54.1195 42.8394 49.6548 45.7388 49.6548 53.5679V79.8996L51.7677 78.6092C56.1601 71.8536 67.6882 53.9375 70.0864 48.7637C73.0391 42.4242 68.5263 42.4242 64.198 42.4242V38H91.2197V42.4242H89.3181C86.3779 42.4242 82.7414 42.4242 77.8853 48.9533C71.6769 57.3232 59.3464 77.605 59.3464 77.605C78.2303 79.1499 85.3339 107.424 90.1837 111.26C87.4111 91.0618 101.107 65.8748 121.199 66.8518C123.448 66.951 126.217 66.6429 132.629 68.5671C139.043 70.4895 139.63 67.0397 140.487 63.1843H145.283V96.4621H141.134C140.791 90.6993 138.173 71.6376 121.252 71.0583C104.051 70.4903 100.814 92.217 100.581 107.044C99.7193 161.839 134.712 160.114 141.122 142.415C142.058 139.859 141.65 139.128 140.599 138.569C132.973 134.54 141.814 123.76 146.712 133.186C148.958 137.512 144.938 158.002 123.964 158.002C91.4015 158.002 81.8722 108.37 69.7476 92.217C60.3021 79.638 52.5977 85.2999 49.6994 88.3783L49.5719 97.0212L49.6494 112.418C49.6494 120.88 54.863 123.597 59.5496 123.542L61.0768 123.595V127.958H28V123.595L29.5272 123.542C34.204 123.595 39.4229 120.877 39.4229 112.416L39.422 53.5679ZM150.104 152.592H148.351V157.279H147.173V152.592H145.431V151.598H150.105V152.593L150.104 152.592ZM158 157.279H156.821V152.754H156.795L155.124 157.278H153.983L152.36 152.754H152.327V157.278H151.159V151.599H153.203L154.54 155.301H154.567L155.966 151.596H157.999V157.278L158 157.279Z" fill="#004687"/>
</g>
</g>
</g>
<defs>
<clipPath id="clip0_1_114">
<rect width="130" height="120" fill="white" transform="translate(28 38)"/>
</clipPath>
</defs>
</svg>
