<svg width="185" height="185" viewBox="0 0 185 185" fill="none" xmlns="http://www.w3.org/2000/svg">
<g id="LAD">
<path id="Ellipse 3" d="M182 92.5C182 141.929 141.929 182 92.5 182C43.0705 182 3 141.929 3 92.5C3 43.0705 43.0705 3 92.5 3C141.929 3 182 43.0705 182 92.5Z" fill="#005A9C" stroke="#CCCCCC" stroke-width="6"/>
<g id="119 1" clip-path="url(#clip0_1_121)">
<g id="Group">
<path id="Vector" d="M123.076 100.38V114.715L116.664 114.722C116.368 113.478 102.747 57.0936 102.747 57.0936H82.33C82.33 57.0936 68.7349 113.479 68.4395 114.723H63.5971V36.5702H74.2769V23L39.5482 23.089V36.5702H49.6083V115.388H39V129.084H64.9691C64.5382 130.859 60.5211 147.475 60.2615 148.595H49.7073V163L85.7631 162.928V148.595H75.6116C75.9977 146.828 79.854 130.228 80.1038 129.084H104.981C105.258 130.228 109.096 146.827 109.491 148.595H99.3316V162.928L135.387 163L135.378 148.595H124.833C124.574 147.475 120.556 130.859 120.136 129.084H137.594V100.38H123.076ZM83.4158 114.722C83.8444 112.929 91.5031 79.8468 92.5432 75.2907C93.6015 79.8468 101.25 112.928 101.663 114.723H83.415L83.4158 114.722ZM145.206 158.426C145.206 157.449 144.624 157.28 143.772 157.28H141.97V160.966H142.742V159.5H143.387L144.248 160.965H145.1L144.203 159.5C144.858 159.445 145.207 159.091 145.207 158.424L145.206 158.426ZM143.781 158.843H142.741V157.955H143.601C143.97 157.955 144.436 157.955 144.436 158.364C144.436 158.746 144.203 158.843 143.781 158.843Z" fill="white"/>
<path id="Vector_2" d="M143.458 155.61C141.467 155.61 139.916 157.191 139.916 159.154C139.916 161.1 141.467 162.662 143.458 162.662C145.44 162.662 147.001 161.1 147.001 159.154C146.999 157.191 145.439 155.61 143.458 155.61ZM143.458 161.916C141.925 161.916 140.696 160.727 140.696 159.154C140.696 157.565 141.925 156.374 143.458 156.374C144.982 156.374 146.229 157.565 146.229 159.154C146.229 160.726 144.981 161.916 143.458 161.916Z" fill="white"/>
</g>
</g>
</g>
<defs>
<clipPath id="clip0_1_121">
<rect width="108" height="140" fill="white" transform="translate(39 23)"/>
</clipPath>
</defs>
</svg>
