<svg width="185" height="185" viewBox="0 0 185 185" fill="none" xmlns="http://www.w3.org/2000/svg">
<g id="WAS">
<path id="Ellipse 3" d="M182 92.5C182 141.929 141.929 182 92.5 182C43.0705 182 3 141.929 3 92.5C3 43.0705 43.0705 3 92.5 3C141.929 3 182 43.0705 182 92.5Z" fill="#14264B" stroke="white" stroke-width="6"/>
<g id="120 1" clip-path="url(#clip0_1_126)">
<path id="Vector" d="M142.942 23.1099C129.49 12.0863 117.27 25.8637 117.27 33.7593C130.743 36.6847 142.75 50.4626 137.364 86.2472C132.981 115.489 116.104 133.709 105.47 134.064C114.282 121.755 120.199 107.844 123.428 94.2393C133.074 53.6376 117.629 40.5324 105.39 39.9181C90.5251 39.1602 75.6564 59.8537 71.507 84.2709C68.2276 103.623 68.6315 123.375 80.1515 137.862C69.9789 151.006 45.5135 155.064 49.8057 123.405C53.4097 96.9061 66.2858 67.6926 73.404 53.3207L73.6155 52.9364C77.4398 44.9347 80.4714 39.2549 81.7757 37.0004L78.9084 36.9623C51.0651 37.452 28.9501 44.0142 18.6277 58.4243C8.96043 71.9151 8.68069 86.1143 16.6661 94.5479L17.8345 95.7276C20.1715 98.1346 23.2399 99.3739 26.2949 99.3739H26.3182C29.0724 99.3739 31.8687 98.3181 33.9714 96.159C36.0776 94.02 37.1149 91.1518 37.1068 88.3313C37.1068 85.2033 35.8858 82.0664 33.5354 79.6772C32.3058 78.4201 30.8698 77.4799 29.3452 76.865L29.3918 76.7793C29.5987 76.2609 29.8476 75.7622 30.1191 75.2731C31.9864 71.9246 35.2477 68.8741 39.4991 66.6857C42.8362 64.9686 46.777 63.7883 51.0383 63.3475L50.3658 64.8149C44.4633 75.9922 35.8386 97.2803 33.1222 108.381C24.6339 143.093 38.3539 163.422 53.1865 166.262C71.0448 169.668 84.7648 160.813 92.0095 149.377C100.653 154.979 123.467 158.213 140.616 126.994C160.351 91.016 161.068 37.9704 142.942 23.1099ZM92.4588 125.919C89.067 117.486 87.5185 107.556 87.5185 98.1346C87.5185 86.756 89.7372 76.1745 93.5795 69.9668C96.1146 65.8796 99.1125 63.9033 102.514 64.1244C103.72 64.2209 105.091 64.6237 106.057 67.0021C106.846 68.9301 107.202 71.4826 107.202 74.4556C107.202 89.2989 98.5303 114.598 92.4588 125.919ZM140.408 135.609C140.408 133.652 141.905 132.491 143.572 132.491C145.214 132.491 146.715 133.651 146.715 135.609C146.715 137.576 145.214 138.746 143.572 138.746C141.905 138.746 140.408 137.576 140.408 135.609ZM143.572 133.086C142.253 133.086 141.211 134.112 141.211 135.609C141.211 137.116 142.253 138.132 143.572 138.132C144.833 138.132 145.907 137.115 145.907 135.609C145.907 134.112 144.833 133.086 143.572 133.086ZM143.046 137.327H142.319V133.901H143.576C144.454 133.901 144.956 134.14 144.956 134.937C144.956 135.57 144.599 135.819 144.027 135.849L144.899 137.327H144.163L143.378 135.897H143.046V137.327ZM143.046 135.322H143.679C144.078 135.322 144.228 135.129 144.228 134.861C144.228 134.545 143.999 134.487 143.637 134.487H143.047V135.321L143.046 135.322Z" fill="#AB0003"/>
</g>
</g>
<defs>
<clipPath id="clip0_1_126">
<rect width="145" height="148" fill="white" transform="translate(11 19)"/>
</clipPath>
</defs>
</svg>
