<svg width="185" height="185" viewBox="0 0 185 185" fill="none" xmlns="http://www.w3.org/2000/svg">
<g id="NYM">
<path id="Ellipse 3" d="M182 92.5C182 141.929 141.929 182 92.5 182C43.0705 182 3 141.929 3 92.5C3 43.0705 43.0705 3 92.5 3C141.929 3 182 43.0705 182 92.5Z" fill="#002D72" stroke="white" stroke-width="6"/>
<g id="121 1" clip-path="url(#clip0_1_131)">
<path id="Vector" d="M142 124.135C142 122.423 141.453 120.746 140.464 119.326C138.885 121.711 136.371 122.837 133.508 122.156C130.974 121.57 128.965 119.79 128.941 118.143V80.5453L129.479 80.754C132.35 81.8996 134.435 84.5884 135.054 87.9311C135.175 88.5751 135.233 89.2377 135.233 89.891C135.233 92.1723 134.352 94.1985 132.947 95.8271C135.577 95.297 143.324 93.0058 143.324 83.4341C143.324 74.6099 136.033 69.2038 129.251 67.9158L128.942 67.8601V41.5768C128.966 39.9296 130.976 38.1498 133.509 37.5622C136.372 36.8711 138.887 38.0167 140.466 40.3934C141.454 38.9728 142.002 37.2971 142.002 35.5837C142.002 33.2739 141.12 30.9164 139.41 29.0612C135.632 24.9902 129.392 24.9803 122.707 29.024L122.495 29.1652L122.293 29.0228C115.6 24.9791 109.356 24.9896 105.583 29.0599C103.863 30.9164 102.996 33.2733 102.996 35.5831C102.996 37.2971 103.535 38.9722 104.532 40.3928C106.112 38.0167 108.63 36.8705 111.499 37.5616C114.023 38.1498 116.033 39.9289 116.056 41.5761V70.9545L115.844 71.0678C110.616 73.7182 105.937 77.4584 101.921 82.1733L101.625 82.5232L101.316 82.1641C101.316 82.1641 66.9619 41.4541 66.8846 41.1328C67.2623 39.41 69.5631 37.7715 72.1154 37.4111C74.7166 37.0618 76.9109 38.2161 78.3595 40.394C79.3435 38.9734 79.8904 37.2978 79.8904 35.5843C79.8904 33.2745 79.0147 30.917 77.2987 29.0618C73.5203 24.9902 67.2724 24.9809 60.5874 29.0234L60.3834 29.1658L60.1806 29.0234C53.4911 24.9797 47.2477 24.9902 43.4731 29.0605C41.7546 30.917 40.8776 33.2739 40.8776 35.5837C40.8776 37.2978 41.42 38.9728 42.4136 40.3934C44.0028 38.0173 46.5165 36.8711 49.3838 37.5622C51.9076 38.1505 53.9233 39.9296 53.9423 41.5768V67.9443L53.633 68.0013C46.8549 69.4689 40 74.8086 40 83.4348C40 93.0058 47.7794 95.3057 50.3957 95.8271C49.0048 94.2078 48.1082 92.1637 48.1082 89.8625C48.1082 89.3325 48.1526 88.8018 48.235 88.2618C48.7292 84.986 50.6523 82.2594 53.3885 80.972L53.9397 80.6964V118.142C53.9207 119.789 51.9057 121.569 49.3819 122.156C46.5146 122.837 44.0009 121.71 42.4117 119.325C41.4187 120.746 40.8757 122.421 40.8757 124.124C40.8757 126.435 41.7527 128.803 43.4718 130.649C47.2458 134.729 53.4898 134.739 60.1787 130.706L60.3815 130.573L60.5855 130.706C67.275 134.739 73.5184 134.729 77.2975 130.649C79.0128 128.803 79.8891 126.435 79.8891 124.125C79.8891 122.421 79.3416 120.744 78.3576 119.324C76.769 121.71 74.2502 122.837 71.3772 122.156C68.8528 121.569 66.853 119.789 66.8181 118.142V83.462L67.4378 83.8695C76.9616 90.213 84.3145 103.184 85.1966 111.364V154.272C85.1966 158.844 82.0321 162.337 78.9906 163.096C76.84 163.616 74.9606 162.706 73.6527 160.776C72.6845 162.176 72.1421 163.777 72.1421 165.406C72.1421 167.441 72.8961 169.477 74.3941 171.086C78.1009 175.091 84.4742 174.958 91.4254 170.745L91.6389 170.613L91.8525 170.745C98.8037 174.959 105.174 175.093 108.884 171.086C110.381 169.477 111.136 167.441 111.136 165.406C111.136 163.778 110.589 162.177 109.62 160.776C108.356 162.622 106.563 163.493 104.475 162.983C101.38 162.216 98.0769 158.541 98.0769 154.272V111.942C98.2752 109.036 99.4329 105.267 101.333 101.358L101.594 100.81L101.995 101.283C101.995 101.283 115.952 118.039 116.04 118.324C115.865 120.009 113.734 121.723 111.176 122.226C109.839 122.479 106.637 122.631 104.491 119.394C103.532 120.804 102.995 122.442 102.995 124.147C102.995 126.447 103.861 128.805 105.582 130.651C109.355 134.732 115.599 134.741 122.289 130.708L122.492 130.576L122.704 130.708C129.389 134.741 135.629 134.731 139.406 130.651C141.117 128.804 141.999 126.437 141.999 124.137L142 124.135ZM91.6472 100.022L91.3031 99.1407C84.8367 82.4768 74.5385 74.5442 67.0405 70.8226L66.8219 70.7278V59.0445L94.7375 92.5606L94.8731 92.7588L91.6459 100.021L91.6472 100.022ZM116.056 99.6423L108.416 90.5827L108.63 90.3456C110.772 87.9026 113.068 85.8387 115.436 84.1915L116.057 83.7561V99.6417L116.056 99.6423ZM157.879 115.227L156.426 119.079H156.388L154.996 115.227H152.861V121.116H154.086V116.428H154.12L155.801 121.116H156.993L158.742 116.428H158.761V121.116H160.001V115.227M146.897 116.286H148.708V121.116H149.944V116.286H151.756V115.227H146.896" fill="#FF5910"/>
</g>
</g>
<defs>
<clipPath id="clip0_1_131">
<rect width="120" height="148" fill="white" transform="translate(40 26)"/>
</clipPath>
</defs>
</svg>
