<svg width="185" height="185" viewBox="0 0 185 185" fill="none" xmlns="http://www.w3.org/2000/svg">
<g id="OAK">
<path id="Ellipse 3" d="M182 92.5C182 141.929 141.929 182 92.5 182C43.0705 182 3 141.929 3 92.5C3 43.0705 43.0705 3 92.5 3C141.929 3 182 43.0705 182 92.5Z" fill="#EFB21E" stroke="white" stroke-width="6"/>
<g id="133 1" clip-path="url(#clip0_1_143)">
<path id="Vector" d="M137.653 116.057C122.48 132.315 117.83 126.006 115.138 118.241L90.6645 44.9569C88.4619 38.1624 84.3015 32.3385 76.9595 30.1546C65.9465 27.2427 54.1994 32.3385 50.0389 49.8102C53.9546 44.229 61.2966 39.3757 67.9044 43.501C73.5332 46.8982 73.5332 50.5382 71.3306 57.3327L69.6175 62.4286C62.765 55.1487 48.081 56.6047 46.3679 72.863C50.7731 68.7378 67.1702 69.2231 62.2755 83.5401L47.5916 126.249C35.3549 126.249 23.1183 132.558 19.4473 147.603C22.8736 142.264 47.8363 131.587 70.5964 147.845L85.0357 130.374C84.0567 129.403 76.2253 127.704 70.3517 133.528C67.1702 130.859 63.2545 128.918 58.8493 127.704L66.436 105.622H94.3355L104.125 134.742C108.041 146.389 116.851 152.941 122.724 144.205C122.724 144.205 138.143 121.153 140.1 118.483C141.814 116.057 138.143 115.814 137.653 116.057ZM80.6305 64.8552L90.4198 94.2172H70.5964L80.6305 64.8552Z" fill="#003831"/>
<path id="Vector_2" d="M111.712 71.8924H114.404L120.277 64.1272V55.8767H111.467V64.8552H114.404L111.712 71.8924Z" fill="#003831"/>
<path id="Vector_3" d="M152.582 76.2603C145.485 74.8043 139.611 73.3483 141.324 68.2524C142.793 63.8845 153.316 64.3699 156.987 69.7084L162.616 64.1272C156.253 55.3914 140.59 54.1781 134.227 62.9139C125.417 75.047 135.451 81.5988 146.708 84.5108C151.358 85.7241 157.232 88.3933 154.295 92.7613C151.848 96.6438 142.303 94.7025 134.961 88.1507L130.066 94.7025C134.472 99.7984 151.603 110.233 162.126 97.3718C171.182 87.18 159.679 77.7162 152.582 76.2603ZM142.303 141.051L140.835 144.691L139.611 141.051H137.408V146.632H138.632V142.022L140.345 146.632H141.324L143.037 142.022V146.632H144.261V141.051H142.303ZM131.78 142.022H133.493V146.632H134.716V142.022H136.429V141.051H131.78V142.022Z" fill="#003831"/>
</g>
</g>
<defs>
<clipPath id="clip0_1_143">
<rect width="151" height="124" fill="white" transform="translate(17 27)"/>
</clipPath>
</defs>
</svg>
