<svg width="185" height="185" viewBox="0 0 185 185" fill="none" xmlns="http://www.w3.org/2000/svg">
<g id="PIT">
<path id="Ellipse 3" d="M182 92.5C182 141.929 141.929 182 92.5 182C43.0705 182 3 141.929 3 92.5C3 43.0705 43.0705 3 92.5 3C141.929 3 182 43.0705 182 92.5Z" fill="black" stroke="white" stroke-width="6"/>
<g id="134 1" clip-path="url(#clip0_1_149)">
<path id="Vector" d="M137.613 68.767C137.613 61.5871 138.636 53.7871 143.223 46.0394C131.127 43.0891 121.8 31.882 118.779 21.9737C113.766 26.7908 108.82 27.9134 101.066 27.9134L49.0704 27.8416L42 45.2692C44.1146 46.1441 45.9164 47.6183 47.1756 49.5038C48.4348 51.3893 49.0944 53.6008 49.0704 55.8563V135.553C49.0949 137.808 48.4354 140.019 47.176 141.903C45.9167 143.788 44.1146 145.261 42 146.134L49.0704 163H68.9274L76.0111 146.134C73.8939 145.263 72.0891 143.791 70.8273 141.906C69.5655 140.021 68.904 137.809 68.9274 135.553V104.131H101.066C108.847 104.131 113.766 106.018 118.779 110.835C122.052 100.926 131.904 93.5376 144.007 90.6004C139.419 82.8526 137.62 75.973 137.62 68.7931M110.181 86.8342H69.0203V44.6687H110.181C116.694 44.6687 120.804 48.7025 120.804 54.0548V78.1466C120.804 83.7665 117.577 86.8342 110.181 86.8342Z" fill="#FFCE34"/>
<path id="Vector_2" d="M77.5712 162.909V158.607H79.1778V157.667H74.8692V158.607H76.4824V162.909H77.5712ZM86.4673 162.909V157.667H84.5952L83.3006 161.094H83.274L82.0392 157.667H80.1537V162.909H81.2425V158.744H81.2624L82.7562 162.909H83.8118L85.352 158.744H85.3785V162.909H86.4673Z" fill="#FFCE34"/>
</g>
</g>
<defs>
<clipPath id="clip0_1_149">
<rect width="102" height="141" fill="white" transform="translate(42 22)"/>
</clipPath>
</defs>
</svg>
