<svg width="185" height="185" viewBox="0 0 185 185" fill="none" xmlns="http://www.w3.org/2000/svg">
<g id="SD">
<path id="Ellipse 3" d="M182 92.5C182 141.929 141.929 182 92.5 182C43.0705 182 3 141.929 3 92.5C3 43.0705 43.0705 3 92.5 3C141.929 3 182 43.0705 182 92.5Z" fill="#FFC425" stroke="white" stroke-width="6"/>
<g id="135 1" clip-path="url(#clip0_1_155)">
<g id="Group">
<path id="Vector" d="M126.223 53.1567L60.882 53.161C60.882 53.161 64.7876 57.9249 64.7876 66.978V73.9859H50.9574C47.6379 73.9859 44.9475 71.7037 44.9475 68.8886V40.3943C44.9475 37.591 47.6521 35.2971 50.9574 35.2971L95.8009 35.2976C99.2506 35.3368 101.519 38.2423 101.048 41.141C100.592 43.9478 98.8636 45.6286 98.8636 45.6286L116.657 45.6289V39.0945C116.657 30.7581 108.689 24 98.8599 24H45.7968C35.9678 24 28 30.7581 28 39.0945V70.4653C28 78.8017 35.9678 85.5595 45.7968 85.5595H94.7574C98.0761 85.5595 100.767 87.8417 100.767 90.6568V117.836C100.767 120.638 98.0647 122.93 94.7617 122.93H81.7327V90.9902H64.7876V122.93H49.9949C46.6778 122.93 43.9894 120.649 43.9894 117.836V115.123C43.9894 106.094 46.8505 104.008 46.8505 104.008L29.057 104.008V119.41C29.057 127.745 37.0241 134.502 46.8515 134.502H64.7873V147.183C64.7873 156.236 60.8816 161 60.8816 161L126.231 161C139.049 161 149.44 152.187 149.44 141.315V72.8468C149.44 61.9715 139.045 53.1559 126.223 53.1567ZM132.495 141.59C132.495 145.883 128.391 149.363 123.33 149.363H81.7327V134.502H99.9206C109.748 134.502 117.715 127.745 117.715 119.409V89.0804C117.715 80.744 109.747 73.9859 99.9176 73.9859H81.7327V64.7932H123.332C128.392 64.7932 132.495 68.273 132.495 72.5656L132.495 141.59ZM151.225 155.964V156.876H149.865V161H148.55V156.876H147.109V155.964H151.225ZM155.685 155.962L154.388 158.749L153.09 155.962H151.775V161H153.09V158.204L154.275 160.693H154.5L155.685 158.204V161H157V155.962H155.685Z" fill="#2F241C"/>
</g>
</g>
</g>
<defs>
<clipPath id="clip0_1_155">
<rect width="129" height="137" fill="white" transform="translate(28 24)"/>
</clipPath>
</defs>
</svg>
