<svg width="185" height="185" viewBox="0 0 185 185" fill="none" xmlns="http://www.w3.org/2000/svg">
<g id="SEA">
<path id="Ellipse 3" d="M182 92.5C182 141.929 141.929 182 92.5 182C43.0705 182 3 141.929 3 92.5C3 43.0705 43.0705 3 92.5 3C141.929 3 182 43.0705 182 92.5Z" fill="#005C5C" stroke="white" stroke-width="6"/>
<g id="136 1" clip-path="url(#clip0_1_188)">
<path id="Vector" d="M98.4119 70.4847C99.6417 70.8012 100.836 71.2209 101.965 71.737L104.986 69.9076C102.551 68.6662 100.034 67.3115 97.6375 65.8501L98.4128 70.4855L98.4119 70.4847ZM84.8523 107.22H84.8639L84.8523 107.209V107.22ZM83.3418 106.505L83.3472 106.514C83.3418 106.505 83.3356 106.505 83.3356 106.505H83.3418Z" fill="#005C5C"/>
<path id="Vector_2" d="M130.911 92.159C129.628 92.3688 128.243 92.599 126.776 92.8317L126.598 92.8622C130.086 98.8744 132.176 106.305 132.176 115.565C132.176 143.386 113.133 163.094 91.101 163.094C76.9817 163.094 71.4585 157.807 68.0383 156.799L52.7962 162.031V116.374C56.4436 116.774 59.5484 119.926 61.2585 123.174C68.0267 136.02 75.6976 146.917 90.2473 146.917C98.8049 146.917 104.472 139.424 104.472 128.766C104.472 122.837 101.682 118.129 97.5591 114.113C97.5208 114.333 97.4878 114.553 97.4477 114.775C97.1215 116.699 96.8114 118.517 96.5851 119.81C98.9983 123.079 100.254 126.337 100.254 129.49C100.254 133.453 99.1756 142.65 89.1752 142.65C75.4935 142.65 67.7504 126.233 64.4461 119.222C61.8885 113.798 54.7059 110.288 50.5051 109.846L48.32 109.615V168.18C48.32 168.18 66.1847 162.096 67.5125 161.632C67.9545 161.822 68.4197 162 68.4197 162C73.7273 164.155 81.7467 167.393 90.2482 167.393C113.083 167.393 136.71 148.159 136.71 115.965C136.71 107.063 134.741 99.0834 130.911 92.159ZM112.792 74.0167C112.475 74.6894 112.133 75.4044 111.757 76.1711C111.757 76.1711 111.513 76.6872 111.147 77.4429C111.109 77.5157 111.076 77.5893 111.038 77.6739C114.874 79.9434 118.421 82.6546 121.476 85.9454C121.542 85.9573 121.61 85.9674 121.67 85.9776C123.618 86.2932 125.594 86.608 127.52 86.9338C123.745 81.9218 118.814 77.5918 112.793 74.0175L112.792 74.0167ZM110.837 22.0741C105.873 18.5413 97.9369 15 89.1752 15C72.5269 15 47.8887 29.5257 47.8887 60.7213C47.8887 71.2843 50.3072 79.9975 55.4259 87.3442C56.7537 87.1343 58.1707 86.8923 59.666 86.6604L60.2363 86.5657C55.4375 80.2074 52.3827 71.8191 52.3827 59.7008C52.3827 36.346 72.0635 18.9094 89.4987 18.9094C96.6635 18.9094 105.397 23.4501 110.102 27.0024C112.875 26.1088 123.02 22.1469 123.02 22.1469V63.6644C119.981 62.9494 116.617 60.8153 115.062 58.2826C108.432 47.5191 104.263 35.3898 93.1346 35.3898C84.5778 35.3898 80.516 41.2234 80.516 49.3477C80.516 55.0138 83.6261 60.0588 88.6236 64.4843C88.6459 64.3684 88.6637 64.2423 88.6905 64.1273C88.9783 62.3824 89.2545 60.7636 89.4479 59.5976C86.6212 56.6952 84.7721 53.4373 84.7721 49.7589C84.7721 46.7533 85.5135 39.7638 92.3878 39.7638C99.8867 39.7638 103.643 46.4376 105.217 50.4114C106.71 54.1837 110.22 60.3016 115.129 64.4852L117.842 63.0027L116.625 65.5353C119.214 67.4079 122.141 68.7847 125.396 69.0893L127.554 69.2789V16.1982C127.552 16.1982 112.494 21.4954 110.838 22.0733L110.837 22.0741Z" fill="#005C5C"/>
<path id="Vector_3" d="M83.1707 72.9031H83.1645H83.1761M101.096 107.157H101.101H101.092M107.494 128.892C107.494 142.871 99.4082 150.04 90.7633 150.04C65.6643 150.04 60.0866 123.889 55.9125 121.409V157.829C59.4325 157.104 67.3414 153.163 67.3414 153.163C70.8284 153.163 77.5138 160.342 90.0601 160.342C109.027 160.342 129.095 142.683 129.095 116.207C129.095 106.379 126.682 99.107 122.903 93.419C120.268 93.8201 116.328 94.4175 113.107 94.9015C112.519 96.9197 111.613 98.8109 110.433 100.514C110.744 101.176 110.948 101.608 110.948 101.608C111.474 102.711 117.694 117.057 117.694 117.057C117.694 117.057 107.372 110.899 101.866 107.62C100.781 108.114 99.6408 108.523 98.4618 108.828C98.3513 109.448 98.2417 110.131 98.125 110.835C103.682 115.251 107.495 120.651 107.495 128.893L107.494 128.892ZM109.112 101.049H109.106H109.112ZM72.7043 94.838C72.6508 94.838 72.5884 94.8279 72.5332 94.8177C72.6045 94.8702 72.6775 94.9235 72.7488 94.987C72.7381 94.9336 72.7159 94.8905 72.7043 94.838ZM74.5472 76.9699C70.2314 67.8564 68.8198 62.8757 68.8198 62.8757C68.8198 62.8757 78.4156 68.5088 83.8801 71.7252C85.0697 71.1896 86.3191 70.7478 87.6211 70.4221C87.7369 69.7493 87.8635 69.014 87.9918 68.2473C81.7699 63.7786 77.3783 58.2826 77.3783 49.4315C77.3783 38.7746 84.2062 32.3325 91.7382 32.3325C109.859 32.3325 112.067 53.6159 119.898 58.9976V26.4574C116.936 27.5828 110.422 30.316 110.422 30.316C108.746 30.316 106.516 28.297 103.177 26.0893C99.8235 24.0602 95.358 22.0428 89.5085 22.0428C73.4742 22.0428 55.3226 37.3047 55.3226 59.9132C55.3226 71.5788 58.5538 79.8198 63.4017 86.0842C65.9031 85.7051 69.5684 85.1381 72.6446 84.6753C73.2238 82.553 74.1657 80.5662 75.4 78.79C74.9009 77.7374 74.5472 76.9699 74.5472 76.9699ZM113.167 84.6118C113.788 84.7176 114.446 84.8217 115.105 84.9274C114.303 84.2657 113.478 83.6243 112.636 83.0151C112.835 83.5397 113.011 84.0762 113.167 84.6118Z" fill="#C4CED4"/>
<path id="Vector_4" d="M79.5732 75.3097C79.2907 75.5517 79.0145 75.792 78.7444 76.0458C79.0358 75.7725 79.3353 75.5102 79.6445 75.2572C79.6178 75.2673 79.5955 75.2893 79.5732 75.3097Z" fill="#C4CED4"/>
<path id="Vector_5" d="M123.8 162.894H126.555V170H128.415V162.894H131.167V161.349H123.801M138.217 167.005H138.172L136.051 161.349H132.83V170.001H134.684V163.115H134.735L137.281 170.001H139.079L141.72 163.115H141.759V170.001H143.624V161.349H140.42" fill="#0C2C56"/>
<path id="Vector_6" d="M87.3769 80.7744C87.1986 80.8911 87.0561 80.9757 87.0338 80.9757C87.0338 80.9757 86.6417 80.903 86.4813 80.7752H86.4679H86.4741C86.4456 80.7557 86.4242 80.7244 86.4189 80.7033C86.4189 80.7033 87.1051 80.2514 87.4972 80.0094C87.6861 78.7993 87.9071 77.4031 88.162 75.869C88.4115 74.3238 88.6949 72.6315 88.9818 70.8765C88.4783 70.9822 87.9811 71.0863 87.4874 71.2133C86.5134 71.4756 85.5732 71.8022 84.6651 72.1906C84.1572 72.4106 83.6581 72.6425 83.1769 72.9056H83.1653C82.8891 73.0529 82.6182 73.1993 82.3517 73.3575L82.3018 73.3888C82.0523 73.5369 81.8153 73.685 81.5773 73.8415C81.5444 73.8627 81.506 73.8838 81.4668 73.905C81.2503 74.0514 81.0346 74.1986 80.8252 74.345C80.7753 74.3873 80.7254 74.4186 80.6808 74.4499C80.4313 74.6293 80.188 74.818 79.9439 75.0084C80.0383 75.0913 80.1987 75.2284 80.2201 75.3029C80.2201 75.3029 79.8441 76.5849 79.6836 76.6373C79.6836 76.6373 79.5393 76.5104 79.4341 76.4055C79.2675 76.4478 78.3665 76.7101 77.9842 76.7947C77.7615 77.0249 77.5476 77.2686 77.3426 77.4988C77.3301 77.5072 77.3248 77.5191 77.3141 77.5301C77.1145 77.7611 76.9149 78.0022 76.726 78.2552C76.3891 78.675 76.0629 79.1167 75.7706 79.5787C75.5372 79.9256 75.3278 80.2827 75.1219 80.6508C75.0889 80.7033 75.056 80.7667 75.0221 80.8184C74.8171 81.1991 74.6246 81.5765 74.4428 81.9548C74.4428 81.9759 74.4366 81.9759 74.4366 81.9861C74.2495 82.3863 74.0819 82.7951 73.9224 83.2046C73.9171 83.2266 73.9108 83.2385 73.9108 83.2385C73.7442 83.6683 73.5989 84.11 73.4742 84.5399V84.5509C73.3405 85.0146 73.2193 85.4775 73.1195 85.9607C75.5416 85.5926 77.855 85.2456 79.8806 84.9511C83.3899 84.4367 86.0473 84.0686 86.9206 83.995C86.9322 83.8799 86.9491 83.7326 86.9705 83.5549C87.0507 82.9541 87.1897 81.9979 87.3778 80.7777L87.3769 80.7744ZM79.0643 77.7365C79.0643 77.7365 78.6437 77.4962 78.6651 77.327C78.6651 77.327 80.2691 76.8548 80.3529 76.865L80.696 77.0638L81.0453 75.8453L81.072 75.7294L81.1843 75.792C81.1843 75.792 81.5889 76.0137 81.6326 76.1178C81.6326 76.1178 81.2494 77.4632 81.1023 77.5157C81.1023 77.5157 80.8742 77.3887 80.7423 77.2838C80.6416 77.3058 79.1463 77.7365 79.0643 77.7365ZM80.2816 78.3153C80.2816 78.3153 81.8411 77.7585 81.9249 77.7687L82.3009 77.9464L82.5175 76.7177L82.5389 76.5908L82.6618 76.6543C82.6618 76.6543 83.0923 76.8556 83.1484 76.9504C83.1484 76.9504 82.9105 78.3043 82.7652 78.3805C82.7652 78.3805 82.5121 78.2637 82.3687 78.1588C82.2956 78.1901 80.8127 78.7054 80.7343 78.7054C80.7343 78.7054 80.2709 78.4846 80.2816 78.3153ZM82.1414 79.2207C82.1414 79.2207 83.6626 78.6115 83.741 78.6115L84.1509 78.768L84.2552 77.5377L84.2605 77.4107L84.3817 77.4632C84.3817 77.4632 84.8451 77.6409 84.9075 77.7255C84.9075 77.7255 84.7899 79.0921 84.6518 79.1767C84.6518 79.1767 84.3809 79.071 84.2311 78.9762C84.1991 78.9872 82.7162 79.5855 82.6387 79.5855C82.6387 79.5871 82.1414 79.3976 82.1414 79.2191V79.2207ZM84.6527 80.3656C84.6527 80.3656 84.2819 80.2709 84.1385 80.1346H84.1331C84.1117 80.1135 84.0832 80.0822 84.0796 80.05C84.0796 80.05 85.4609 79.2935 85.534 79.2834L85.9885 79.3984L85.837 78.1901L85.8218 78.0428L85.9662 78.0852C85.9662 78.0852 86.4804 78.2121 86.5526 78.2967C86.5526 78.2967 86.713 79.6616 86.5909 79.7564C86.5909 79.7564 86.2754 79.6718 86.1043 79.6091C86.0758 79.6193 84.7329 80.3555 84.6527 80.3656Z" fill="white"/>
<path id="Vector_7" d="M79.3744 76.1406L79.6445 75.2572C79.3352 75.511 79.0358 75.7734 78.7444 76.0458C78.9529 75.9824 79.1142 75.9511 79.141 75.9612L79.3727 76.1406H79.3744ZM73.1632 93.556C73.2683 94.0401 73.3967 94.5122 73.5348 94.976C74.0713 96.731 74.8688 98.392 75.8874 99.905C76.1904 100.357 76.5067 100.799 76.8498 101.219C77.0762 101.503 77.3132 101.786 77.5583 102.05C77.585 102.092 77.6082 102.114 77.6296 102.145C77.8844 102.418 78.1438 102.692 78.4102 102.954C78.3701 102.827 78.3434 102.723 78.3478 102.692C78.3478 102.692 78.6918 102.418 78.8406 102.45C78.8406 102.45 79.2684 103.533 79.2417 103.638L79.1909 103.68C79.3352 103.817 79.4849 103.942 79.64 104.069L80.5311 104.394L80.3975 104.498C80.3975 104.498 80.3485 104.53 80.287 104.583C80.5133 104.76 80.7504 104.93 80.9954 105.097C81.0337 105.129 81.0667 105.15 81.1068 105.17C81.3162 105.316 81.5274 105.453 81.7484 105.602L81.8153 105.632C82.047 105.79 82.2902 105.928 82.5282 106.072C82.5398 106.072 82.546 106.084 82.562 106.084C82.8116 106.221 83.07 106.368 83.3302 106.504C83.3302 106.504 83.3418 106.504 83.348 106.513C83.8399 106.767 84.3372 106.987 84.8523 107.207L84.8639 107.219C85.698 107.555 86.5624 107.86 87.4526 108.09C87.9454 108.228 88.4436 108.344 88.9462 108.439C88.6646 106.746 88.3937 105.118 88.1504 103.614C88.0016 102.679 87.8581 101.796 87.7244 100.976C87.5908 100.997 87.4482 101.029 87.3974 101.019C87.3974 101.019 86.4733 100.293 86.23 99.9778L86.1917 99.9575L86.2032 99.9456C86.1747 99.9143 86.164 99.8822 86.164 99.861C86.164 99.861 86.4902 99.7781 86.6675 99.7561C86.7005 99.5462 86.8547 98.6306 86.9215 98.5689C86.9215 98.5689 87.1443 98.5156 87.3377 98.4927C87.2156 97.6948 87.1149 97.022 87.0436 96.4873L87.0276 96.4974C87.032 96.4864 87.0382 96.4762 87.0382 96.4653C86.983 96.0658 86.9438 95.7409 86.9224 95.5302C86.0535 95.4566 83.4354 95.0885 79.976 94.5825C77.9388 94.2795 75.6094 93.9326 73.1623 93.5544L73.1632 93.556ZM80.5133 102.637L80.27 102.836L81.7921 103.395L81.6656 103.488C81.6656 103.488 81.3554 103.75 81.2556 103.773C81.2556 103.773 80.0722 103.341 79.763 103.12H79.7576C79.7238 103.088 79.7015 103.067 79.6952 103.047C79.6952 103.047 79.8735 102.91 79.9947 102.827C79.918 102.605 79.6026 101.786 79.6186 101.69C79.6186 101.69 79.9679 101.416 80.1176 101.459C80.1159 101.459 80.5365 102.53 80.5133 102.635V102.637ZM84.4931 100.461C84.5199 100.283 84.6865 99.3271 84.7471 99.2628C84.7471 99.2628 85.2462 99.0724 85.3834 99.1781C85.3834 99.1781 85.1838 100.346 85.1223 100.408L84.7908 100.524L86.1917 101.406L86.0152 101.47C86.0152 101.47 85.5447 101.647 85.4556 101.637C85.4556 101.637 84.4263 100.996 84.1438 100.702L84.1109 100.682H84.1224C84.0939 100.65 84.0725 100.619 84.0725 100.597C84.0725 100.597 84.3167 100.503 84.4931 100.461ZM82.9034 99.9575C82.9034 99.9575 83.3578 99.7375 83.5031 99.8204C83.5031 99.8204 83.5361 100.965 83.4853 101.05L83.193 101.198L84.6544 101.997L84.4878 102.07C84.4878 102.07 84.0556 102.269 83.962 102.259C83.962 102.259 82.8998 101.681 82.6004 101.419L82.5558 101.399L82.5674 101.388C82.5335 101.355 82.5121 101.324 82.5121 101.303C82.5121 101.303 82.7287 101.21 82.8891 101.146C82.8837 100.955 82.8561 100.041 82.9051 99.9575H82.9034ZM81.8803 100.556C81.8803 100.556 82.014 101.691 81.9694 101.786L81.6976 101.934L83.1912 102.649L83.037 102.734C83.037 102.734 82.6449 102.954 82.5442 102.964C82.5442 102.964 81.4098 102.417 81.1157 102.164L81.0943 102.156H81.1059C81.0721 102.122 81.0507 102.103 81.0507 102.08C81.0507 102.08 81.2396 101.976 81.384 101.913C81.3661 101.714 81.2619 100.81 81.3055 100.726C81.3055 100.726 81.7377 100.484 81.8812 100.557L81.8803 100.556Z" fill="white"/>
<path id="Vector_8" d="M86.9277 99.8728L87.6362 100.431L87.4669 99.3059C87.4223 99.5369 87.3715 99.7375 87.3439 99.7688L86.9286 99.8737L86.9277 99.8728ZM99.1373 95.5319C99.1194 95.6588 99.1034 95.8365 99.0749 96.0481C98.9991 96.6362 98.8646 97.5289 98.6881 98.6543C98.8218 98.5799 98.9109 98.5274 98.9314 98.5172C98.9314 98.5172 99.3235 98.59 99.4786 98.7161L99.4839 98.7271C99.5178 98.7483 99.5392 98.7694 99.5463 98.7999C99.5463 98.7999 98.9644 99.179 98.5714 99.4303C98.378 100.649 98.1454 102.07 97.8905 103.636C97.641 105.127 97.3764 106.724 97.0939 108.396H97.0992C97.6027 108.292 98.1009 108.176 98.5928 108.028H98.5981C99.4563 107.797 100.281 107.502 101.088 107.155H101.093C101.607 106.935 102.112 106.703 102.599 106.451C102.881 106.293 103.158 106.146 103.435 105.977C103.444 105.977 103.457 105.969 103.474 105.957C103.717 105.81 103.965 105.661 104.209 105.505L104.314 105.442C104.535 105.296 104.757 105.149 104.967 104.991C105.016 104.959 105.061 104.928 105.104 104.898C105.354 104.717 105.603 104.529 105.847 104.339C105.791 104.287 105.747 104.233 105.735 104.202C105.735 104.202 106.106 102.92 106.267 102.868C106.267 102.868 106.421 102.994 106.52 103.099C106.649 103.067 107.135 102.921 107.545 102.815C107.816 102.542 108.071 102.268 108.32 101.994C108.347 101.952 108.369 101.922 108.398 101.901C108.641 101.617 108.874 101.334 109.102 101.049H109.107C109.44 100.617 109.754 100.177 110.054 99.7256C110.524 99.0004 110.95 98.2448 111.321 97.4663C111.321 97.4544 111.326 97.4544 111.326 97.4544C111.503 97.077 111.663 96.6979 111.813 96.3205C111.824 96.2867 111.835 96.2562 111.847 96.2359C112.001 95.8467 112.145 95.4363 112.267 95.0276C112.412 94.5647 112.533 94.0908 112.643 93.6187C110.275 93.9656 108.027 94.3024 106.052 94.596C102.645 95.0919 100.06 95.4507 99.1364 95.5336L99.1373 95.5319ZM100.14 101.449L99.9954 101.418C99.9954 101.418 99.4786 101.281 99.4073 101.208C99.4073 101.208 99.2424 99.8415 99.3627 99.7468C99.3627 99.7468 99.6898 99.8314 99.8564 99.8948C99.8947 99.8745 101.229 99.1384 101.3 99.1274C101.3 99.1274 101.676 99.2221 101.82 99.3694H101.832H101.828C101.854 99.3897 101.878 99.4218 101.878 99.454C101.878 99.454 100.505 100.21 100.428 100.221L99.9731 100.094L100.142 101.45L100.14 101.449ZM102.225 100.893L101.815 100.734L101.699 102.091L101.578 102.04C101.578 102.04 101.115 101.861 101.047 101.766C101.047 101.766 101.169 100.412 101.302 100.326C101.302 100.326 101.578 100.431 101.734 100.526C101.773 100.506 103.252 99.9067 103.323 99.9067C103.323 99.9067 103.816 100.106 103.816 100.275C103.816 100.275 102.298 100.894 102.226 100.894L102.225 100.893ZM104.041 101.734L103.658 101.554L103.426 102.9L103.305 102.847C103.305 102.847 102.868 102.648 102.812 102.543C102.812 102.543 103.051 101.186 103.196 101.124C103.196 101.124 103.449 101.239 103.593 101.334C103.677 101.313 105.152 100.799 105.226 100.799C105.226 100.799 105.535 100.946 105.641 101.092H105.652H105.647C105.668 101.135 105.685 101.156 105.685 101.187C105.685 101.185 104.117 101.734 104.041 101.734ZM107.301 102.174C107.301 102.174 105.684 102.648 105.608 102.626L105.269 102.436L104.888 103.771L104.776 103.708C104.776 103.708 104.379 103.488 104.329 103.382C104.329 103.382 104.717 102.037 104.855 101.984C104.855 101.984 105.081 102.111 105.214 102.215C105.33 102.183 106.818 101.752 106.896 101.762C106.896 101.762 107.322 102.006 107.301 102.174Z" fill="white"/>
<path id="Vector_9" d="M106.437 103.857C106.559 103.751 106.68 103.637 106.802 103.531L106.581 103.363L106.437 103.857ZM97.8594 75.8453C98.0091 76.7913 98.1535 77.6849 98.2854 78.5159C98.4012 78.4956 98.5188 78.4736 98.5572 78.4846C98.5572 78.4846 99.4768 79.2004 99.7299 79.5152L99.7745 79.5474L99.7593 79.5584C99.786 79.5905 99.8039 79.6218 99.7976 79.643C99.7976 79.643 99.4715 79.7276 99.2932 79.7471C99.2549 79.9586 99.1061 80.8725 99.0437 80.9351C99.0437 80.9351 98.8512 80.9774 98.6694 80.9977C98.7898 81.8076 98.8949 82.4803 98.9671 83.0066C99.0223 83.4382 99.0669 83.7741 99.0892 83.984C99.9803 84.0669 102.559 84.4138 105.975 84.9181C107.984 85.2118 110.281 85.5486 112.694 85.9065C112.65 85.6645 112.583 85.4242 112.522 85.1813C112.469 84.9503 112.401 84.7193 112.329 84.4874C111.821 82.7637 111.062 81.1348 110.094 79.643C109.794 79.1911 109.479 78.7494 109.14 78.3179C108.915 78.0242 108.677 77.7289 108.427 77.4547C108.389 77.404 108.356 77.3617 108.322 77.3295C108.068 77.0359 107.808 76.7516 107.531 76.4892C107.586 76.6475 107.62 76.7736 107.614 76.8049C107.614 76.8049 107.272 77.0892 107.117 77.0469C107.117 77.0469 106.695 75.9748 106.716 75.8588L106.805 75.7954L106.457 75.4823L105.444 75.1133L105.566 75.0076C105.566 75.0076 105.643 74.9441 105.726 74.8806C105.493 74.7029 105.261 74.5252 105.017 74.356C104.99 74.3348 104.957 74.3137 104.928 74.2925C104.708 74.1351 104.487 73.9879 104.265 73.8407C104.253 73.8407 104.238 73.8297 104.227 73.8204C103.729 73.4937 103.22 73.1984 102.694 72.9149C102.206 72.6628 101.707 72.4216 101.199 72.2109C100.346 71.8437 99.4608 71.5289 98.5465 71.2759C98.0546 71.1388 97.5555 71.0237 97.0529 70.9188C97.3327 72.6535 97.6036 74.3145 97.8594 75.8478V75.8453ZM101.472 79.0414C101.445 79.2089 101.273 80.1769 101.218 80.2396C101.218 80.2396 100.714 80.4291 100.581 80.3242C100.581 80.3242 100.774 79.1674 100.836 79.0837L101.162 78.9686L99.7611 78.0953L99.9438 78.0327C99.9438 78.0327 100.414 77.855 100.503 77.8635C100.503 77.8635 101.527 78.5049 101.808 78.7892L101.846 78.8095L101.837 78.8205C101.864 78.8527 101.886 78.8848 101.886 78.9051C101.886 78.9051 101.644 78.9897 101.471 79.0422L101.472 79.0414ZM103.056 79.5457C103.056 79.5457 102.601 79.7657 102.457 79.6828C102.457 79.6828 102.424 78.5362 102.475 78.4524L102.767 78.3052L101.312 77.5064L101.472 77.4336C101.472 77.4336 101.903 77.233 101.998 77.233C101.998 77.233 103.07 77.822 103.37 78.0962L103.408 78.1063L103.399 78.1165C103.425 78.1469 103.448 78.1782 103.448 78.1994C103.448 78.1994 103.232 78.2942 103.072 78.3466C103.076 78.5666 103.105 79.4611 103.054 79.5448L103.056 79.5457ZM104.655 78.7782C104.655 78.7782 104.222 79.01 104.079 78.9474C104.079 78.9474 103.941 77.811 103.99 77.7171L104.261 77.5698L102.768 76.8548L102.923 76.76C102.923 76.76 103.315 76.5502 103.409 76.54C103.409 76.54 104.561 77.0858 104.849 77.338H104.86L104.855 77.349C104.888 77.3701 104.915 77.4023 104.915 77.4226C104.915 77.4226 104.723 77.5284 104.573 77.5901C104.594 77.8017 104.694 78.6961 104.655 78.7799V78.7782ZM106.197 76.3835H106.203C106.236 76.4038 106.266 76.4342 106.266 76.4342C106.266 76.4342 106.093 76.5933 105.965 76.6771C106.042 76.887 106.364 77.7179 106.341 77.811C106.341 77.811 105.998 78.0852 105.844 78.0429C105.844 78.0429 105.418 76.9716 105.439 76.8666L105.689 76.6669L104.167 76.1085L104.289 76.0052C104.289 76.0052 104.604 75.7514 104.703 75.7319C104.703 75.7319 105.893 76.1618 106.197 76.3835Z" fill="white"/>
<path id="Vector_10" d="M99.0375 79.6295L98.3781 79.1133C98.4288 79.4399 98.4788 79.7564 98.5295 80.061C98.5616 79.8918 98.5946 79.7564 98.6169 79.7352L99.0375 79.6295Z" fill="white"/>
<path id="Vector_11" d="M106.272 102.868C106.111 102.921 105.74 104.203 105.74 104.203C105.751 104.234 105.795 104.287 105.851 104.34C105.896 104.298 105.94 104.266 105.99 104.224C106.05 104.182 106.111 104.118 106.173 104.077C106.195 104.055 106.217 104.034 106.24 104.023C106.307 103.96 106.373 103.908 106.439 103.856L106.582 103.361L106.805 103.528C106.876 103.465 106.947 103.391 107.02 103.328C107.109 103.243 107.203 103.16 107.291 103.076C107.38 102.991 107.462 102.898 107.552 102.813C107.142 102.919 106.655 103.066 106.528 103.098C106.426 102.992 106.272 102.866 106.272 102.866V102.868Z" fill="#D50032"/>
<path id="Vector_12" d="M104.855 101.985C104.717 102.037 104.329 103.383 104.329 103.383C104.379 103.489 104.776 103.709 104.776 103.709L104.888 103.772L105.271 102.437L105.608 102.626C105.685 102.648 107.301 102.174 107.301 102.174C107.322 102.007 106.896 101.764 106.896 101.764C106.82 101.756 105.332 102.185 105.214 102.216C105.08 102.111 104.855 101.985 104.855 101.985ZM105.645 101.091H105.652H105.64C105.535 100.946 105.225 100.799 105.225 100.799C105.153 100.799 103.674 101.313 103.591 101.334C103.447 101.239 103.194 101.124 103.194 101.124C103.049 101.186 102.811 102.542 102.811 102.542C102.866 102.648 103.303 102.846 103.303 102.846L103.425 102.899L103.656 101.553L104.039 101.731C104.116 101.731 105.682 101.185 105.682 101.185C105.682 101.155 105.666 101.133 105.644 101.092L105.645 101.091ZM103.321 99.905C103.25 99.905 101.771 100.503 101.733 100.525C101.578 100.432 101.301 100.326 101.301 100.326C101.167 100.41 101.046 101.766 101.046 101.766C101.112 101.861 101.576 102.039 101.576 102.039L101.698 102.09L101.815 100.734L102.225 100.893C102.296 100.893 103.813 100.272 103.813 100.272C103.813 100.103 103.321 99.905 103.321 99.905ZM101.876 99.4523C101.876 99.421 101.854 99.3888 101.827 99.3677H101.832H101.821C101.677 99.2213 101.301 99.1265 101.301 99.1265C101.23 99.1375 99.8957 99.8737 99.8573 99.894C99.6907 99.8305 99.3645 99.7468 99.3645 99.7468C99.2442 99.8424 99.4091 101.209 99.4091 101.209C99.4804 101.282 99.9973 101.419 99.9973 101.419L100.142 101.45L99.975 100.096L100.429 100.221C100.506 100.211 101.878 99.454 101.878 99.454L101.876 99.4523ZM99.4857 98.7271L99.4804 98.7161C99.3262 98.5892 98.9332 98.5173 98.9332 98.5173C98.9118 98.5283 98.8218 98.5799 98.69 98.6543C98.657 98.9065 98.6124 99.1578 98.5741 99.4311C98.9662 99.179 99.5481 98.8007 99.5481 98.8007C99.541 98.7694 99.5196 98.75 99.4857 98.7271ZM86.6685 99.7569C86.492 99.7781 86.1641 99.8627 86.1641 99.8627C86.1641 99.883 86.1748 99.9152 86.2024 99.9473L86.1908 99.9575L86.2291 99.9778C86.4724 100.293 87.3965 101.019 87.3965 101.019C87.4464 101.03 87.5908 100.997 87.7227 100.976C87.6942 100.787 87.6621 100.608 87.6336 100.43L86.9251 99.8729L87.3404 99.7671C87.3698 99.7358 87.4206 99.5361 87.4634 99.3042C87.4188 99.0309 87.3742 98.7576 87.3368 98.4953C87.1434 98.5164 86.9207 98.5697 86.9207 98.5697C86.8547 98.6323 86.6996 99.5471 86.6667 99.7569H86.6685ZM84.1109 100.682L84.1439 100.703C84.4263 100.997 85.4556 101.639 85.4556 101.639C85.5447 101.65 86.0152 101.471 86.0152 101.471L86.1917 101.408L84.7908 100.525L85.1232 100.41C85.1856 100.347 85.3852 99.1798 85.3852 99.1798C85.2471 99.0741 84.748 99.2644 84.748 99.2644C84.6857 99.3271 84.5208 100.283 84.4932 100.462C84.3167 100.504 84.0726 100.599 84.0726 100.599C84.0726 100.62 84.094 100.651 84.1225 100.684H84.1109V100.682ZM82.5113 101.303C82.5113 101.323 82.5336 101.354 82.5674 101.388L82.5558 101.398L82.6004 101.418C82.8998 101.68 83.9621 102.258 83.9621 102.258C84.0565 102.268 84.4878 102.069 84.4878 102.069L84.6536 101.994L83.1921 101.195L83.4862 101.048C83.5361 100.964 83.504 99.8187 83.504 99.8187C83.3588 99.7341 82.9043 99.9558 82.9043 99.9558C82.8562 100.039 82.8838 100.953 82.8891 101.142C82.7287 101.206 82.5131 101.301 82.5131 101.301L82.5113 101.303ZM81.3047 100.725C81.2601 100.81 81.3671 101.713 81.3831 101.912C81.2387 101.976 81.0507 102.08 81.0507 102.08C81.0507 102.101 81.073 102.122 81.1068 102.154H81.0953L81.1166 102.163C81.4107 102.417 82.5451 102.963 82.5451 102.963C82.645 102.952 83.0379 102.732 83.0379 102.732L83.1921 102.648L81.6986 101.932L81.9695 101.785C82.014 101.692 81.8821 100.556 81.8821 100.556C81.7396 100.483 81.3065 100.725 81.3065 100.725H81.3047ZM79.6169 101.692C79.599 101.785 79.9163 102.606 79.9929 102.826C79.8717 102.911 79.6935 103.048 79.6935 103.048C79.6988 103.068 79.722 103.09 79.7559 103.121H79.7603C80.0696 103.341 81.2539 103.772 81.2539 103.772C81.3519 103.752 81.6638 103.489 81.6638 103.489L81.7886 103.394L80.2674 102.837L80.5107 102.638C80.533 102.532 80.1132 101.462 80.1132 101.462C79.9653 101.42 79.616 101.692 79.616 101.692H79.6169ZM78.8416 102.448C78.6927 102.417 78.3497 102.69 78.3497 102.69C78.3443 102.72 78.371 102.825 78.412 102.952C78.5101 103.057 78.6045 103.15 78.7088 103.245C78.8309 103.361 78.9521 103.465 79.0742 103.571C79.1187 103.613 79.1517 103.644 79.19 103.677L79.2408 103.635C79.2675 103.531 78.8416 102.448 78.8416 102.448ZM80.5312 104.392L79.64 104.067C79.7113 104.13 79.7888 104.194 79.861 104.244C79.9377 104.309 80.0054 104.371 80.082 104.435L80.1319 104.467C80.1818 104.509 80.2317 104.54 80.287 104.583C80.3494 104.53 80.3984 104.498 80.3984 104.498L80.5303 104.393L80.5312 104.392ZM79.6837 76.6348C79.8441 76.5823 80.2202 75.3003 80.2202 75.3003C80.1979 75.2267 80.0366 75.0905 79.9439 75.0059C79.8432 75.0905 79.7389 75.1734 79.6436 75.258L79.3727 76.1415L79.1392 75.9638C79.1125 75.9519 78.9521 75.9832 78.7418 76.0467C78.658 76.1195 78.5751 76.2041 78.4922 76.2879C78.3987 76.3725 78.3096 76.4571 78.2213 76.5519C78.1429 76.6348 78.0609 76.7084 77.9834 76.7922C78.3666 76.7076 79.2666 76.4452 79.4342 76.4029C79.5393 76.5087 79.6837 76.6348 79.6837 76.6348Z" fill="#D50032"/>
<path id="Vector_13" d="M81.1006 77.5165C81.2494 77.464 81.6308 76.1186 81.6308 76.1186C81.5863 76.0145 81.1835 75.7928 81.1835 75.7928L81.0721 75.7302L81.0454 75.8444L80.6952 77.063L80.3521 76.8649C80.2692 76.8548 78.6642 77.3278 78.6642 77.3278C78.6429 77.497 79.0635 77.7382 79.0635 77.7382C79.1472 77.7382 80.6408 77.3067 80.7406 77.2863C80.8743 77.3913 81.1006 77.5165 81.1006 77.5165ZM82.7662 78.3796C82.9105 78.3035 83.1494 76.9496 83.1494 76.9496C83.0932 76.8548 82.6619 76.6534 82.6619 76.6534L82.5389 76.5916L82.5175 76.7186L82.301 77.9472L81.9249 77.7678C81.842 77.7594 80.2817 78.3145 80.2817 78.3145C80.2692 78.482 80.7344 78.7037 80.7344 78.7037C80.8128 78.7037 82.2939 78.1875 82.3678 78.1571C82.5104 78.262 82.7653 78.3771 82.7653 78.3771L82.7662 78.3796ZM84.6527 79.1776C84.7908 79.093 84.9076 77.7264 84.9076 77.7264C84.8452 77.6417 84.3818 77.464 84.3818 77.464L84.2597 77.4116L84.2544 77.5385L84.1492 78.768L83.7393 78.6098C83.6609 78.6098 82.1397 79.219 82.1397 79.219C82.1397 79.3967 82.6369 79.5871 82.6369 79.5871C82.7136 79.5871 84.1964 78.988 84.2303 78.9779C84.3818 79.071 84.6518 79.1767 84.6518 79.1767L84.6527 79.1776ZM86.5517 78.295C86.4804 78.2104 85.9654 78.0835 85.9654 78.0835L85.821 78.0411L85.837 78.1892L85.9867 79.3976L85.5323 79.2825C85.461 79.291 84.0779 80.05 84.0779 80.05C84.0824 80.0813 84.1109 80.1126 84.1314 80.1346H84.1376C84.282 80.27 84.6518 80.3648 84.6518 80.3648C84.7302 80.3538 86.0741 79.6176 86.1026 79.6074C86.2737 79.6718 86.5892 79.7555 86.5892 79.7555C86.7139 79.6624 86.5517 78.295 86.5517 78.295ZM86.4742 80.7743H86.468H86.4804C86.6408 80.9013 87.0329 80.9757 87.0329 80.9757C87.0561 80.9757 87.2005 80.8911 87.3769 80.7752C87.4152 80.5239 87.4536 80.2725 87.4981 80.0094C87.106 80.2505 86.4198 80.7033 86.4198 80.7033C86.4252 80.7244 86.4466 80.754 86.4733 80.776L86.4742 80.7743ZM99.2915 79.7445C99.4697 79.7242 99.7959 79.6404 99.7959 79.6404C99.8012 79.6193 99.7843 79.588 99.7575 79.5558L99.7736 79.5457L99.729 79.5144C99.4759 79.1996 98.5572 78.4846 98.5572 78.4846C98.5189 78.4761 98.4021 78.4955 98.2863 78.5167C98.3201 78.7164 98.3487 78.917 98.3816 79.1158L99.0411 79.632L98.6196 79.7369C98.5973 79.7572 98.5643 79.8943 98.5304 80.0619C98.5812 80.3876 98.6311 80.7033 98.6695 80.9969C98.8521 80.9774 99.0402 80.9351 99.0402 80.9351C99.1052 80.8717 99.2541 79.9586 99.2933 79.7471L99.2915 79.7445ZM101.849 78.8095L101.811 78.7892C101.528 78.5049 100.505 77.8634 100.505 77.8634C100.416 77.855 99.9465 78.0327 99.9465 78.0327L99.7638 78.0953L101.163 78.9686L100.838 79.0837C100.775 79.1683 100.583 80.3233 100.583 80.3233C100.715 80.4291 101.219 80.2387 101.219 80.2387C101.274 80.1769 101.445 79.2097 101.473 79.0413C101.644 78.9889 101.888 78.9043 101.888 78.9043C101.888 78.884 101.866 78.8518 101.838 78.8196L101.847 78.8095H101.849ZM103.4 78.1173L103.409 78.1055L103.371 78.0945C103.072 77.8211 101.999 77.2313 101.999 77.2313C101.904 77.2313 101.473 77.4327 101.473 77.4327L101.313 77.5064L102.769 78.3052L102.475 78.4532C102.426 78.5379 102.459 79.6836 102.459 79.6836C102.603 79.7665 103.057 79.5457 103.057 79.5457C103.107 79.4611 103.079 78.5683 103.073 78.3475C103.234 78.2967 103.45 78.2011 103.45 78.2011C103.448 78.1808 103.426 78.1503 103.4 78.1182V78.1173ZM104.915 77.4234C104.915 77.4023 104.888 77.3701 104.855 77.3498L104.86 77.3388H104.848C104.56 77.0866 103.409 76.54 103.409 76.54C103.315 76.551 102.923 76.76 102.923 76.76L102.768 76.8556L104.262 77.5698L103.991 77.7171C103.941 77.8101 104.08 78.9466 104.08 78.9466C104.223 79.0109 104.655 78.7799 104.655 78.7799C104.694 78.6953 104.593 77.8025 104.572 77.5918C104.724 77.5267 104.915 77.4226 104.915 77.4226L104.915 77.4234ZM104.291 76.0035L104.168 76.1076L105.69 76.6661L105.44 76.8658C105.419 76.9707 105.845 78.042 105.845 78.042C105.999 78.0843 106.342 77.8118 106.342 77.8118C106.364 77.7187 106.043 76.8869 105.966 76.6779C106.093 76.5933 106.266 76.4461 106.266 76.4461C106.266 76.4461 106.237 76.4038 106.203 76.3826H106.199C105.896 76.1609 104.706 75.731 104.706 75.731C104.606 75.7505 104.291 76.0035 104.291 76.0035ZM107.112 77.0443C107.267 77.0866 107.609 76.8023 107.609 76.8023C107.615 76.771 107.583 76.6449 107.527 76.4867L107.218 76.1711C107.124 76.0763 107.025 75.9934 106.924 75.9088C106.887 75.8664 106.842 75.8241 106.803 75.7928L106.714 75.8563C106.693 75.9722 107.112 77.0443 107.112 77.0443ZM105.44 75.1099L106.454 75.478C106.364 75.4044 106.271 75.3316 106.183 75.258C106.127 75.2157 106.078 75.1734 106.028 75.1201C105.971 75.0778 105.921 75.0355 105.865 74.9932C105.816 74.9627 105.772 74.9212 105.721 74.8789C105.638 74.9416 105.561 75.0059 105.561 75.0059L105.439 75.1108L105.44 75.1099Z" fill="#D50032"/>
<path id="Vector_14" d="M87.0445 96.4881C87.0445 96.4881 87.0445 96.4779 87.0392 96.4678C87.0392 96.4788 87.0347 96.4889 87.0285 96.4999L87.0463 96.4889L87.0445 96.4881ZM74.5472 76.9699C74.5472 76.9699 74.9018 77.7374 75.3991 78.7892C75.7021 78.3373 76.0229 77.9159 76.3669 77.4962C73.5544 71.5678 70.7322 65.6089 70.8329 65.5768C70.8329 65.5768 76.6761 69.0351 82.432 72.4614C82.9025 72.1991 83.3784 71.9562 83.8774 71.7252C78.4147 68.5097 68.8171 62.8757 68.8171 62.8757C68.8171 62.8757 70.2305 67.8573 74.5472 76.9699ZM115.038 113.831C115.038 113.831 109.254 110.404 103.35 106.884C102.869 107.146 102.369 107.389 101.866 107.62C107.371 110.9 117.693 117.057 117.693 117.057C117.693 117.057 111.472 102.71 110.947 101.608C110.947 101.608 110.742 101.176 110.433 100.514C110.129 100.966 109.808 101.398 109.471 101.807C112.353 107.902 115.148 113.789 115.037 113.832L115.038 113.831Z" fill="#0C2C56"/>
<path id="Vector_15" d="M79.075 74.763C80.1087 73.8914 81.2334 73.1239 82.4346 72.4614C76.6778 69.0343 70.8337 65.5776 70.8337 65.5776L79.075 74.763ZM106.692 74.7114C107.722 75.5728 108.668 76.5189 109.503 77.5588C112.324 71.737 115.352 65.7765 115.336 65.5565L106.692 74.7114ZM79.3566 104.792C78.3051 103.94 77.348 102.994 76.4898 101.974C73.6676 107.923 70.8783 113.81 70.9826 113.852L79.3575 104.792H79.3566ZM106.731 104.572C105.69 105.443 104.556 106.222 103.35 106.884C109.255 110.405 115.038 113.831 115.038 113.831L106.731 104.572Z" fill="#C4CED4"/>
<path id="Vector_16" d="M98.9492 83.9704C98.7826 84.1176 98.2363 84.6321 97.5537 85.2955C95.8543 86.9346 93.2379 89.4884 93 89.7617C92.844 89.9521 92.2853 90.5191 91.5474 91.2442C92.2853 90.5191 92.844 89.9513 93 89.7634C93.2201 89.5096 95.849 86.9354 97.5537 85.2955C98.2399 84.633 98.7835 84.1185 98.9492 83.9704Z" fill="white"/>
<path id="Vector_17" d="M92.9938 89.7727C93.0098 89.7838 93.0437 89.8154 93.0651 89.8358C93.049 89.8154 93.0267 89.7932 93.0152 89.7727H92.9938Z" fill="white"/>
<path id="Vector_18" d="M98.9493 83.9704C98.9876 83.9704 99.0384 83.9814 99.0874 83.9814C99.066 83.7715 99.0214 83.4348 98.9662 83.0041C98.8949 82.4777 98.7897 81.805 98.6677 80.996C98.6284 80.7024 98.5785 80.3868 98.5286 80.061C98.4787 79.7564 98.4288 79.4408 98.3789 79.115C98.346 78.9153 98.3165 78.7147 98.2845 78.5159C98.1508 77.6849 98.0082 76.7913 97.8585 75.8453C97.6036 74.312 97.3327 72.6509 97.0502 70.9162C97.0057 70.6649 96.9674 70.4119 96.9237 70.1496C95.2287 59.9445 93.1435 47.9726 93 48.0259V89.7626C93.2379 89.4893 95.8552 86.9363 97.5537 85.2964C98.2355 84.6313 98.7835 84.1168 98.9493 83.9696V83.9704Z" fill="#C4CED4"/>
<path id="Vector_19" d="M73.1204 85.9573C73.2202 85.4749 73.3414 85.0112 73.4742 84.5484V84.5374C73.599 84.1058 73.7442 83.6658 73.9055 83.2444C73.9055 83.2444 73.9171 83.2232 73.9233 83.2021C74.082 82.7908 74.2486 82.3813 74.4366 81.9819C74.4366 81.9734 74.442 81.9734 74.442 81.9506C74.6247 81.574 74.818 81.1949 75.0212 80.8167C75.0569 80.7642 75.0889 80.7007 75.1219 80.6474C75.3269 80.2802 75.5363 79.9231 75.7698 79.5761C76.0621 79.1133 76.3882 78.6724 76.726 78.2527C76.9131 77.9988 77.1136 77.7585 77.3141 77.5275C77.3248 77.5165 77.3293 77.5064 77.3409 77.4962C77.5458 77.2652 77.7615 77.0223 77.9825 76.7913C78.06 76.7067 78.1429 76.6339 78.2213 76.5502C78.3104 76.4554 78.3995 76.3725 78.4922 76.2862C78.5751 76.2015 78.658 76.1186 78.7417 76.045C79.0126 75.7928 79.2889 75.5517 79.5705 75.3088C79.5937 75.2893 79.6151 75.2665 79.6418 75.258C79.7371 75.1734 79.8423 75.0888 79.9421 75.0042C80.1845 74.8155 80.4287 74.6276 80.6782 74.4474C80.7227 74.4161 80.7726 74.3848 80.8225 74.3433C81.032 74.1952 81.2476 74.0471 81.4642 73.9016C81.5025 73.8804 81.5408 73.8593 81.5756 73.8381C81.8135 73.6807 82.0514 73.5335 82.3001 73.3863L82.35 73.3541C82.6173 73.1959 82.8873 73.0495 83.1636 72.9022H83.1734C83.6546 72.6399 84.1536 72.4081 84.6616 72.1872C85.5705 71.798 86.5098 71.4722 87.4838 71.2099C87.9766 71.0829 88.4748 70.9788 88.9792 70.8731C88.6922 72.6281 88.4088 74.3205 88.1593 75.8656C87.9062 77.4006 87.6843 78.7976 87.4963 80.0068C87.4517 80.2692 87.4134 80.5213 87.3751 80.7735C87.188 81.992 87.049 82.9499 86.9705 83.549C86.9491 83.7267 86.9322 83.8739 86.9206 83.989C86.9545 83.9789 86.9919 83.9789 87.0258 83.9789C88.5479 85.3133 92.533 89.2024 92.9982 89.7583V48.0268C92.8931 48.0048 90.8113 59.9327 89.1075 70.1191C88.604 70.2037 88.1058 70.3087 87.6193 70.4238C86.3182 70.7495 85.0679 71.1912 83.8765 71.7269C83.3775 71.9579 82.9025 72.2007 82.4328 72.4631C81.2316 73.1248 80.1087 73.8931 79.0732 74.7647L70.8337 65.5768C70.7339 65.6089 73.5562 71.5678 76.3677 77.4962C76.0255 77.9159 75.7047 78.3365 75.4 78.7892C74.1657 80.5662 73.2256 82.5522 72.6445 84.6744C72.5225 85.1255 72.4182 85.5993 72.3237 86.0706C72.5884 86.0283 72.854 85.9979 73.1204 85.9564V85.9573Z" fill="#005C5C"/>
<path id="Vector_20" d="M92.9937 89.7727L92.9991 89.7617C92.8431 89.9521 92.2844 90.5191 91.5465 91.2443C91.4432 91.35 91.338 91.4541 91.2257 91.5599C90.9281 91.8535 90.618 92.159 90.2918 92.4738C89.7037 93.0407 89.0959 93.6305 88.5363 94.156C87.9392 94.7229 87.4081 95.2078 87.0267 95.5438C86.9937 95.5438 86.9554 95.5437 86.9215 95.5327C86.9438 95.7443 86.9839 96.0684 87.0374 96.4678L87.0436 96.4788C87.1149 97.0254 87.2147 97.6973 87.3377 98.497C87.3751 98.7593 87.4197 99.0326 87.4624 99.3059C87.5186 99.6613 87.5747 100.042 87.6344 100.43C87.6629 100.607 87.6968 100.787 87.7235 100.976C87.8572 101.797 87.9998 102.679 88.1486 103.614C88.3919 105.118 88.6628 106.746 88.9453 108.44C88.9916 108.692 89.0299 108.943 89.0745 109.196C90.7793 119.423 92.893 131.52 92.9982 131.499L92.9937 89.7727Z" fill="#C4CED4"/>
<path id="Vector_21" d="M103.35 106.884C104.555 106.222 105.691 105.443 106.731 104.572L115.038 113.831C115.149 113.788 112.354 107.902 109.47 101.806C109.809 101.398 110.13 100.966 110.432 100.513C111.612 98.8109 112.518 96.9188 113.106 94.9006C113.232 94.4386 113.355 93.9656 113.455 93.4926L112.647 93.6195C112.536 94.0908 112.415 94.5647 112.271 95.0276C112.149 95.4363 112.004 95.8467 111.85 96.2359C111.839 96.2562 111.828 96.2867 111.816 96.3205C111.667 96.6971 111.507 97.0762 111.33 97.4443C111.33 97.4443 111.324 97.4528 111.324 97.4646C110.953 98.2431 110.527 98.9996 110.056 99.7239C109.758 100.177 109.443 100.618 109.112 101.048H109.106C108.877 101.332 108.646 101.615 108.402 101.899C108.375 101.92 108.353 101.951 108.324 101.993C108.075 102.267 107.821 102.54 107.549 102.814C107.46 102.897 107.378 102.992 107.289 103.077C107.199 103.159 107.106 103.243 107.018 103.328C106.946 103.391 106.873 103.465 106.801 103.528C106.68 103.635 106.559 103.75 106.436 103.855C106.37 103.907 106.302 103.959 106.236 104.023C106.215 104.034 106.192 104.054 106.17 104.075C106.108 104.117 106.047 104.179 105.987 104.222C105.937 104.265 105.892 104.295 105.848 104.337C105.604 104.527 105.355 104.715 105.105 104.896C105.061 104.926 105.016 104.958 104.967 104.989C104.759 105.147 104.536 105.294 104.315 105.441C104.282 105.462 104.244 105.483 104.21 105.504C103.966 105.662 103.718 105.809 103.474 105.956C103.457 105.966 103.446 105.976 103.436 105.976C103.16 106.145 102.882 106.291 102.598 106.449C102.113 106.702 101.609 106.932 101.1 107.153H101.089C100.281 107.5 99.4563 107.795 98.599 108.027H98.5937C98.1018 108.173 97.6027 108.289 97.1001 108.394H97.0948C97.3773 106.724 97.6419 105.126 97.8915 103.634C98.1463 102.069 98.3789 100.649 98.5723 99.4286C98.6106 99.1561 98.6552 98.904 98.6881 98.6526C98.8646 97.5272 98.9983 96.6345 99.0758 96.0464C99.1025 95.8348 99.1203 95.6571 99.1364 95.5302C99.074 95.5302 99.025 95.5412 98.976 95.5412C97.5029 94.2491 93.7227 90.5597 93.0641 89.8345C93.0428 89.8142 93.0089 89.7837 92.9929 89.7719L92.9982 131.498C93.1025 131.52 95.2394 119.39 96.9665 109.163C97.47 109.059 97.9672 108.953 98.46 108.827C99.6381 108.523 100.777 108.113 101.862 107.62C102.366 107.39 102.865 107.148 103.347 106.885L103.35 106.884Z" fill="#005C5C"/>
<path id="Vector_22" d="M93 89.7609C92.5366 89.2041 88.5496 85.3159 87.0275 83.9814C86.9946 83.9814 86.9563 83.9814 86.9224 83.9924C86.0491 84.0652 83.3917 84.4324 79.8824 84.9486C77.8568 85.2431 75.5425 85.5892 73.1204 85.9573C72.8531 85.9996 72.5884 86.03 72.3237 86.0724C61.802 87.6801 49.5818 89.6263 49.6379 89.7617H93.0009L93 89.7609Z" fill="#C4CED4"/>
<path id="Vector_23" d="M126.777 92.8326C128.243 92.6007 129.627 92.3688 130.912 92.159C139.489 90.7078 144 89.6568 144 89.6568C144 89.6568 136.219 88.3537 127.518 86.9346C125.593 86.6088 123.615 86.2932 121.669 85.9784L121.476 85.9463C118.42 82.6563 114.873 79.9451 111.038 77.6748C111.078 77.5901 111.11 77.5165 111.149 77.4437C111.514 76.6873 111.759 76.1719 111.759 76.1719C112.135 75.4053 112.477 74.6911 112.792 74.0184C115.902 67.534 116.624 65.5362 116.624 65.5362L117.841 63.0044L104.99 69.9093L101.968 71.7387C102.467 71.9697 102.948 72.2109 103.418 72.4749C109.184 68.9751 115.212 65.3805 115.34 65.559C115.356 65.779 112.328 71.7387 109.506 77.5614C109.848 77.9828 110.169 78.4135 110.468 78.856C111.353 80.1482 112.085 81.5359 112.637 83.0168C113.478 83.626 114.304 84.2691 115.106 84.9291C114.446 84.8242 113.789 84.7201 113.168 84.6144C113.289 85.0865 113.4 85.5604 113.489 86.0326C123.064 87.4846 134.165 89.2286 136.512 89.6594C136.8 89.7228 136.961 89.7541 136.961 89.7651C136.981 89.8607 124.226 91.8789 113.455 93.4968C113.355 93.9707 113.232 94.4446 113.106 94.9057C116.328 94.4234 120.268 93.8243 122.903 93.4249C126.683 99.1113 129.095 106.383 129.095 116.211C129.095 142.688 109.026 160.345 90.061 160.345C77.5137 160.345 70.8284 153.165 67.3423 153.165C67.3423 153.165 59.4334 157.107 55.9134 157.832V121.412C60.0875 123.894 65.6651 150.043 90.7659 150.043C99.41 150.043 107.496 142.876 107.496 128.895C107.496 120.655 103.682 115.253 98.1258 110.838C98.2417 110.135 98.3513 109.452 98.4627 108.832C97.9699 108.958 97.4717 109.062 96.9691 109.167C95.2421 119.394 93.1051 131.524 93.0009 131.503C92.8939 131.524 90.7819 119.427 89.0763 109.2C88.5719 109.115 88.0747 109.01 87.5881 108.884C87.7253 109.713 87.8804 110.629 88.0363 111.564L89.7562 121.749C91.5724 132.207 92.9946 138.661 92.9946 138.661C92.9946 138.661 94.4329 132.207 96.2598 121.76L96.5859 119.816C96.8123 118.523 97.1224 116.704 97.4486 114.781C97.4887 114.561 97.5199 114.341 97.56 114.119C101.683 118.134 104.473 122.844 104.473 128.772C104.473 139.431 98.8049 146.923 90.2499 146.923C75.6976 146.923 68.0275 136.025 61.2593 123.181C59.5483 119.932 56.4445 116.78 52.7971 116.38V162.037L68.0382 156.803C71.4584 157.812 76.9817 163.098 91.101 163.098C113.132 163.098 132.176 143.391 132.176 115.571C132.176 106.31 130.084 98.8794 126.598 92.8673L126.776 92.8351L126.777 92.8326Z" fill="#0C2C56"/>
<path id="Vector_24" d="M66.9386 93.9546C67.1596 93.9969 67.3752 94.0291 67.598 94.0604C69.7225 95.7748 71.9958 97.3301 74.3493 98.8117C73.6863 97.6034 73.1427 96.3214 72.7497 94.987C72.6784 94.9235 72.6071 94.871 72.5341 94.8177C72.5893 94.8287 72.6499 94.8389 72.7052 94.8389C72.5715 94.387 72.4556 93.9131 72.3576 93.43C61.8475 91.8222 49.6219 89.8565 49.6389 89.7617C49.5854 89.6246 61.8029 87.6801 72.3255 86.0723C72.42 85.6002 72.5243 85.1263 72.6463 84.6744C69.5692 85.1373 65.9049 85.7042 63.4034 86.0833C58.5556 79.819 55.3243 71.578 55.3243 59.9124C55.3243 37.3039 73.4769 22.042 89.5103 22.042C95.3597 22.042 99.8261 24.061 103.18 26.0893C106.518 28.2979 108.747 30.3152 110.425 30.3152C110.425 30.3152 116.94 27.582 119.898 26.4566V58.9977C112.067 53.6142 109.86 32.33 91.739 32.33C84.2071 32.33 77.3783 38.7737 77.3783 49.4315C77.3783 58.2809 81.7716 63.7778 87.9918 68.2448C87.8635 69.0123 87.7369 69.7476 87.6211 70.4195C88.1076 70.3053 88.6058 70.1995 89.1093 70.1149C90.814 59.9327 92.8948 48.0014 93 48.0234C93.1444 47.971 95.2296 59.942 96.9237 70.147C97.4272 70.2418 97.9244 70.3476 98.4119 70.4838C98.1802 69.0859 97.9084 67.4672 97.6366 65.8484L96.2749 57.7453C94.4543 47.2441 92.9207 41.7794 92.9207 41.7794C92.9207 41.7794 91.5715 47.3177 89.7571 57.7554C89.7571 57.7554 89.6413 58.4705 89.447 59.5951C89.2536 60.7628 88.9765 62.3807 88.6896 64.1247C88.661 64.2398 88.645 64.3659 88.6218 64.4818C83.6243 60.0562 80.5142 55.0113 80.5142 49.346C80.5142 41.2209 84.5778 35.3881 93.1328 35.3881C104.263 35.3881 108.43 47.5174 115.06 58.2809C116.615 60.8136 119.979 62.9477 123.018 63.6627V22.1478C123.018 22.1478 112.872 26.1105 110.101 27.0032C105.396 23.4517 96.6626 18.9094 89.4943 18.9094C72.0609 18.9094 52.38 36.3468 52.38 59.7017C52.38 71.8208 55.434 80.2082 60.231 86.5665L59.6624 86.6613C58.1671 86.8923 56.7502 87.1352 55.4224 87.345C46.8808 88.7429 42 89.6551 42 89.6551C42 89.6551 48.7237 91.0852 60.0697 92.8935C60.2194 92.9248 60.3691 92.9459 60.5241 92.9679C60.5241 92.9679 63.4507 93.419 66.9386 93.9546ZM82.6004 106.947C76.7901 110.459 71.0334 113.937 70.9835 113.852C70.8783 113.81 73.6676 107.924 76.4907 101.976C76.1476 101.565 75.8197 101.145 75.5105 100.704C75.0899 101.597 74.7976 102.227 74.7976 102.227L74.2932 103.28C70.1699 111.951 67.5356 116.963 67.5356 116.963C67.5356 116.963 71.3542 115.355 81.8251 109.039C81.8251 109.039 82.374 108.703 83.1591 108.23C83.4416 108.062 83.7517 107.883 84.0788 107.683C83.5798 107.461 83.0807 107.209 82.5995 106.947H82.6004Z" fill="#0C2C56"/>
<path id="Vector_25" d="M89.0754 109.196C89.0309 108.942 88.9926 108.691 88.9471 108.44C88.4436 108.345 87.9464 108.228 87.4536 108.093C86.5624 107.861 85.698 107.556 84.8639 107.221H84.8523V107.209C84.3381 106.989 83.84 106.769 83.3463 106.515L83.3418 106.507H83.3303C83.07 106.369 82.8089 106.222 82.5612 106.086C82.5434 106.086 82.5389 106.075 82.5273 106.075C82.2885 105.927 82.0461 105.79 81.8144 105.633C81.7913 105.622 81.7681 105.613 81.7467 105.602C81.5257 105.455 81.3145 105.318 81.1051 105.17C81.065 105.151 81.0338 105.128 80.9937 105.098C80.7486 104.931 80.5107 104.762 80.2843 104.584C80.2291 104.541 80.1792 104.509 80.1293 104.468L80.0794 104.436C80.0027 104.373 79.935 104.309 79.8584 104.247C79.7871 104.194 79.7087 104.131 79.6374 104.067C79.4823 103.94 79.3326 103.815 79.1882 103.678C79.1499 103.647 79.1169 103.616 79.0724 103.573C78.9503 103.467 78.8291 103.363 78.707 103.247C78.6019 103.152 78.5074 103.058 78.4085 102.953C78.1411 102.691 77.8827 102.417 77.627 102.144C77.6056 102.113 77.5824 102.092 77.5557 102.049C77.3124 101.787 77.0744 101.503 76.8472 101.22C76.5041 100.799 76.1878 100.357 75.8848 99.905C74.8662 98.392 74.0668 96.7318 73.5322 94.976C73.394 94.5131 73.2648 94.0409 73.1614 93.556C75.6076 93.9351 77.938 94.2812 79.9733 94.5859C83.4327 95.091 86.0509 95.4591 86.9189 95.5319C86.9527 95.5429 86.9902 95.5429 87.024 95.5429C87.4072 95.207 87.9375 94.7221 88.5345 94.1551C89.0933 93.6305 89.7019 93.0416 90.2901 92.4738C90.6153 92.1581 90.9263 91.8527 91.224 91.5599C91.3363 91.4533 91.4414 91.3483 91.5448 91.2434C92.2827 90.5182 92.8414 89.9504 92.9974 89.7626H49.6371C49.6193 89.8557 61.8457 91.8214 72.3559 93.43C72.4557 93.9123 72.5715 94.3862 72.7034 94.8389C72.715 94.8913 72.7373 94.9336 72.748 94.9861C73.1401 96.3205 73.6837 97.6025 74.3484 98.8109C71.9958 97.3301 69.7216 95.7731 67.5963 94.0604C67.3735 94.0291 67.1596 93.9978 66.9368 93.9546L60.5224 92.9679C60.3682 92.9468 60.2194 92.9256 60.0679 92.8935C63.8606 96.7403 68.581 100.167 74.2923 103.279L74.7958 102.227C74.7958 102.227 75.0899 101.597 75.5087 100.704C75.8188 101.144 76.1468 101.565 76.489 101.975C77.3471 102.994 78.3051 103.94 79.3567 104.793L70.9826 113.852C71.0325 113.937 76.7884 110.457 82.5995 106.947C83.0807 107.209 83.578 107.461 84.077 107.681C83.7509 107.882 83.4399 108.061 83.1574 108.228C84.9129 109.332 86.5384 110.445 88.0337 111.56C87.8786 110.625 87.7218 109.711 87.5846 108.881C88.0729 109.005 88.5702 109.111 89.0746 109.194L89.0754 109.196Z" fill="#005C5C"/>
<path id="Vector_26" d="M93.0161 89.7727C93.0276 89.793 93.0499 89.815 93.066 89.8353C93.7254 90.5605 97.5038 94.2499 98.9769 95.5429C99.0268 95.5429 99.0767 95.5319 99.1373 95.5319C100.062 95.4473 102.647 95.0919 106.055 94.5969C108.031 94.3032 110.279 93.9664 112.647 93.6195L113.455 93.4926C124.226 91.8747 136.981 89.8565 136.96 89.7609L93.0161 89.7727Z" fill="#C4CED4"/>
<path id="Vector_27" d="M96.9237 70.1487C96.9682 70.4111 97.0066 70.6649 97.0502 70.9162C97.5537 71.022 98.0519 71.1363 98.5438 71.2733C99.4581 71.5272 100.344 71.842 101.196 72.2084C101.704 72.4199 102.203 72.6602 102.691 72.9133C103.217 73.1967 103.725 73.4912 104.224 73.817C104.236 73.8254 104.251 73.8373 104.262 73.8373C104.485 73.9845 104.705 74.1335 104.926 74.2892C104.955 74.3103 104.989 74.3315 105.015 74.3526C105.258 74.5219 105.49 74.6996 105.723 74.879C105.773 74.9213 105.817 74.9636 105.867 74.994C105.922 75.0363 105.972 75.0787 106.028 75.121C106.078 75.1717 106.128 75.214 106.184 75.2564C106.273 75.3325 106.366 75.4044 106.454 75.4789C106.57 75.5838 106.686 75.6904 106.802 75.7937C106.842 75.8258 106.886 75.8681 106.924 75.9096C107.024 75.9925 107.124 76.0763 107.218 76.1719C107.322 76.2769 107.421 76.3809 107.526 76.4867C107.803 76.749 108.064 77.0333 108.318 77.327C108.352 77.3591 108.385 77.4014 108.423 77.4539C108.672 77.7264 108.91 78.0209 109.136 78.3153C109.475 78.7469 109.79 79.1886 110.089 79.6405C111.056 81.1314 111.815 82.7612 112.324 84.4849C112.395 84.7159 112.463 84.9469 112.517 85.1788C112.579 85.4199 112.645 85.6611 112.689 85.9031C110.276 85.5477 107.978 85.2092 105.97 84.9156C102.555 84.4104 99.9759 84.0643 99.0847 83.9806C99.0348 83.9806 98.9849 83.9696 98.9466 83.9696C98.7799 84.1168 98.2381 84.6313 97.5511 85.2947C95.8463 86.9346 93.2174 89.5104 92.9973 89.7626L92.9911 89.7727H93.0116L136.956 89.7617C136.956 89.7499 136.795 89.7194 136.506 89.6551C134.161 89.2236 123.059 87.4804 113.485 86.0292C113.396 85.5553 113.285 85.0815 113.164 84.6101C113.009 84.0745 112.831 83.538 112.632 83.0108C112.078 81.53 111.347 80.1423 110.462 78.8501C110.162 78.4101 109.842 77.9785 109.499 77.5571C108.664 76.5163 107.717 75.5703 106.688 74.7097L115.332 65.5539C115.205 65.3762 109.178 68.9709 103.411 72.4707C102.941 72.2067 102.459 71.9655 101.961 71.7345C100.832 71.2183 99.6354 70.7995 98.4083 70.4838C97.9236 70.3484 97.4263 70.2427 96.9228 70.1479L96.9237 70.1487Z" fill="#005C5C"/>
</g>
</g>
<defs>
<clipPath id="clip0_1_188">
<rect width="102" height="155" fill="white" transform="translate(42 15)"/>
</clipPath>
</defs>
</svg>
