<svg width="185" height="185" viewBox="0 0 185 185" fill="none" xmlns="http://www.w3.org/2000/svg">
<g id="SF">
<path id="Ellipse 3" d="M182 92.5C182 141.929 141.929 182 92.5 182C43.0705 182 3 141.929 3 92.5C3 43.0705 43.0705 3 92.5 3C141.929 3 182 43.0705 182 92.5Z" fill="#231F20" stroke="white" stroke-width="6"/>
<path id="Vector" d="M85.7014 84.4451V99.244C85.7014 99.244 105.146 100.456 111.099 96.9685C110.034 100.237 110.37 110.927 111.099 112.708C103.575 108.974 85.7014 110.462 85.7014 110.462V125.354H114.509L120.645 118.451V92.9335L113.535 84.9502C109.308 84.4978 94.1978 84.4451 85.7031 84.4451H85.7014ZM41.1307 31.5108C47.1119 28.7545 53.4787 22.9216 55.7368 19C61.5024 21.6344 114.511 21.2457 120.639 19C124.336 24.2262 128.308 27.1486 133.907 28.9182C133.383 33.9335 133.544 35.7087 135.234 39.7294H120.639L114.511 33.1105H62.5323L55.7238 38.9072V65.571L62.5111 71.9271L71.1051 72.2734C71.1051 62.3733 71.2108 60.4801 63.68 58.5453C66.187 53.6889 66.6914 53.1192 67.3511 47.0628C73.7976 49.1558 140.406 48.0149 143.302 46.4098C142.838 52.7202 146.523 64.7078 149 69.1811H134.403C133.661 64.2727 130.458 60.4801 125.361 59.5579H85.7014V72.2734C85.7014 72.2734 116.561 73.0854 120.639 71.7336C122.667 76.83 129.964 84.3034 135.233 86.3728C133.464 96.7734 133.794 114.559 135.233 125.348C129.492 128.105 123.63 133.767 120.64 139.476C113.382 137.542 85.7014 138.494 85.7014 138.494V146.485C87.1298 151.935 90.1575 153.247 95.4692 153.694C95.4692 153.694 91.2027 161.455 91.0295 166H66.0911C65.9812 161.567 61.6448 153.694 61.6448 153.694C66.44 153.477 70.3754 150.737 71.1051 146.486V138.495C71.1051 138.495 62.3525 138.178 55.736 139.477C53.7341 135.132 46.4343 127.349 41.1307 125.348C42.3557 122.227 41.7871 102.731 40 98.6209H55.7368L55.7246 118.453L61.8579 125.356H71.1067V84.4498C71.1067 84.4498 63.0114 84.0619 55.7384 84.5977C53.6479 80.6635 47.4039 74.3262 41.1315 71.3339C43.0919 64.1319 43.2627 38.31 41.1315 31.5116L41.1307 31.5108Z" fill="#FD5A1E"/>
<path id="Vector_2" d="M101.819 159.9H100.015V164H98.7954V159.9H97V159H101.82L101.819 159.9ZM110 164H108.78V160.028H108.742L107.022 164H105.838L104.165 160.028H104.127V164H102.917V159H105.031L106.415 162.263H106.446L107.896 159H109.998V164H110Z" fill="#FD5A1E"/>
</g>
</svg>
