<svg width="185" height="185" viewBox="0 0 185 185" fill="none" xmlns="http://www.w3.org/2000/svg">
<g id="STL">
<path id="Ellipse 3" d="M182 92.5C182 141.929 141.929 182 92.5 182C43.0705 182 3 141.929 3 92.5C3 43.0705 43.0705 3 92.5 3C141.929 3 182 43.0705 182 92.5Z" fill="#14264B" stroke="white" stroke-width="6"/>
<g id="138 1" clip-path="url(#clip0_1_202)">
<g id="Group">
<path id="Vector" d="M147.413 152.414L140.952 145.21C140.533 144.689 139.862 144.429 139.19 144.429C138.519 144.429 137.932 144.689 137.512 145.123C132.395 150.418 126.605 150.852 125.011 150.852H78.195C76.0975 150.852 74.7551 149.897 74.7551 148.161V137.745C81.4671 139.568 86.9206 140.696 92.8775 141.304C96.1497 141.651 99.3379 141.825 102.442 141.825C114.02 141.825 123.837 139.394 130.968 134.794C138.939 129.586 143.134 121.687 143.134 111.879C143.134 105.456 139.61 98.8589 133.401 93.9114C126.941 88.7034 118.299 85.6655 108.986 85.4051V77.7667H109.07C114.44 77.7667 117.46 79.0687 117.544 79.0687H117.628C117.628 79.0687 118.215 79.2423 118.467 79.2423C118.971 79.2423 119.474 79.0687 119.81 78.7215C120.481 78.0271 120.481 76.8119 120.481 76.1175V68.9132C120.397 67.698 119.474 67.0904 118.635 67.0904H86.585C85.746 67.0904 84.8231 67.698 84.7392 68.9132V76.1175C84.7392 76.8119 84.7392 78.0271 85.4104 78.7215C85.746 79.0687 86.2494 79.2423 86.7528 79.2423C87.0045 79.2423 87.5918 79.0687 87.5918 79.0687H87.6757C87.6757 79.0687 90.78 77.7667 96.1497 77.7667H96.2336V85.3183H74.6712V53.5497H75.7619C89.102 53.5497 108.986 55.5461 124.676 61.2749C124.927 61.3617 125.179 61.4485 125.431 61.4485C126.27 61.4485 127.025 61.0145 127.444 60.3201L128.451 58.5841C129.794 56.3273 131.388 53.5497 133.569 49.6438C133.989 48.8626 133.989 48.0814 133.653 47.387C133.234 46.6926 132.478 46.2586 131.556 46.2586C131.304 46.2586 130.968 46.2586 130.717 46.3454C127.444 47.2134 125.766 47.5606 124.256 47.5606C122.746 47.5606 121.488 47.2134 119.306 46.6058C118.551 46.4322 117.796 46.1718 116.873 45.9114C110.497 44.2622 93.7166 40.3562 76.1814 40.3562H74.7551V36.2767C74.7551 33.7595 76.7687 31.6763 79.2018 31.6763H80.4603C81.8027 31.6763 82.8095 30.5479 82.8095 29.2459V23.4304C82.8095 22.0416 81.7188 21 80.4603 21H55.2902C54.0317 21 52.941 22.1284 52.941 23.4304V29.2459C52.941 30.6347 54.0317 31.6763 55.2902 31.6763H56.5488C58.9819 31.6763 60.9955 33.7595 60.9955 36.2767V40.7902C47.3197 43.3074 37 55.8065 37 70.2152C37 84.6239 47.068 96.5154 60.9955 98.8589V119.257C57.8912 117.868 54.8707 116.479 52.102 115.004C50.7596 114.222 49.585 113.615 48.6621 112.92C48.3265 112.66 47.907 112.573 47.4875 112.573H47.3197C46.6485 112.573 46.0612 112.834 45.5578 113.354L44.2993 114.83C43.3764 115.872 42.3696 117.087 41.195 118.476C40.1882 119.691 39.0136 120.993 37.6712 122.468C37.2517 122.989 37 123.51 37.0839 124.118C37.0839 124.638 37.2517 125.246 37.6712 125.593C38.1746 126.114 38.8458 126.461 39.6848 126.461H39.9365C41.8662 126.288 43.2925 126.201 44.4671 126.201C47.1519 126.374 48.3265 126.982 51.1791 128.458C51.8503 128.805 52.6054 129.152 53.4444 129.586C55.1224 130.454 57.8073 131.756 61.1633 133.231V148.074C61.1633 150.678 57.22 150.939 55.542 150.939H54.4512C53.6122 151.112 53.1088 151.98 53.1088 152.848V162.396C53.1088 163.785 54.1995 164.826 55.458 164.826H125.179C134.24 164.826 141.54 161.788 147.497 155.626C148.168 154.844 148.252 153.369 147.413 152.414ZM74.6712 98.7721H96.0658V107.365C96.0658 107.712 95.9819 107.973 95.898 108.32L94.6395 111.445C94.3878 112.052 94.4717 112.747 94.8073 113.268C95.1429 113.788 95.7302 114.136 96.4014 114.136H108.735C109.406 114.136 109.993 113.788 110.329 113.268C110.664 112.747 110.748 112.052 110.497 111.445L109.154 108.32C108.986 107.973 108.986 107.626 108.986 107.278V98.7721C111.42 98.8589 117.293 99.2929 122.41 101.81C127.528 104.327 130.129 108.06 130.129 112.92C130.129 122.468 119.39 128.458 102.107 128.458C93.7166 128.458 84.2358 126.982 74.7551 124.204V98.7721H74.6712ZM60.9955 85.4051C54.1156 83.9295 49.585 77.6799 49.585 69.6076C49.585 62.4901 54.2834 56.3273 60.9955 54.2441V85.4051Z" fill="#BE0A14"/>
<path id="Vector_2" d="M142.379 162.396H141.624C141.54 162.396 141.54 162.309 141.54 162.309V161.875C141.54 161.788 141.624 161.788 141.624 161.788H144.057C144.141 161.788 144.141 161.875 144.141 161.875V162.309C144.141 162.396 144.057 162.396 144.057 162.396H143.302C143.218 162.396 143.218 162.483 143.218 162.483V164.913C143.218 165 143.134 165 143.134 165H142.63C142.546 165 142.546 164.913 142.546 164.913V162.483C142.546 162.396 142.463 162.396 142.379 162.396ZM144.896 161.702H145.483C145.567 161.702 145.567 161.702 145.567 161.788L146.322 163.004C146.322 163.09 146.406 163.09 146.406 163.004L147.161 161.788L147.245 161.702H147.832C147.916 161.702 147.916 161.788 147.916 161.788V164.913C147.916 165 147.832 165 147.832 165H147.413C147.329 165 147.329 164.913 147.329 164.913V163.09C147.329 163.004 147.245 163.004 147.161 163.09L146.406 164.306L145.651 163.09C145.651 163.004 145.483 163.09 145.483 163.09V164.913C145.483 165 145.399 165 145.399 165H144.98C144.896 165 144.896 164.913 144.896 164.913V161.788C144.728 161.702 144.812 161.702 144.896 161.702Z" fill="#BE0A14"/>
</g>
</g>
</g>
<defs>
<clipPath id="clip0_1_202">
<rect width="111" height="144" fill="white" transform="translate(37 21)"/>
</clipPath>
</defs>
</svg>
