<svg width="185" height="185" viewBox="0 0 185 185" fill="none" xmlns="http://www.w3.org/2000/svg">
<g id="TB">
<path id="Ellipse 3" d="M182 92.5C182 141.929 141.929 182 92.5 182C43.0705 182 3 141.929 3 92.5C3 43.0705 43.0705 3 92.5 3C141.929 3 182 43.0705 182 92.5Z" fill="#F5D130" stroke="white" stroke-width="6"/>
<g id="139 1" clip-path="url(#clip0_1_210)">
<path id="Vector" d="M155.786 141.873H154.623V144.935H153.841V141.873H152.695V141.219H155.786V141.873H155.786ZM161 144.935H160.226V141.972H160.205L159.092 144.935H158.342L157.276 141.972H157.25V144.935H156.473V141.219H157.827L158.723 143.644H158.727L159.657 141.219H160.998V144.935H161Z" fill="#092C5C"/>
<path id="Vector_2" d="M58.1888 41.05H38.4111L38.3181 41.0924C31.2795 43.7955 28.8762 53.2554 28.398 55.506C28.398 55.5145 28.3893 55.5568 28.3893 55.5738L25.32 55.4077L25 57.9159L30.6387 58.204L30.8674 57.1194C31.2456 55.3077 33.4785 46.2054 39.8928 43.6404H58.187V41.05H58.1888ZM108.537 68.7468V143.495H108.572C109.16 143.495 112.485 143.503 116.649 143.503C114.905 143.503 112.307 143.503 111.178 143.495V71.2448C112.341 71.2109 114.531 71.1618 114.531 71.1618C114.684 71.1533 122.177 70.8228 127.183 75.441C130.15 78.1864 131.691 82.152 131.785 87.2404C131.794 86.9676 131.798 86.6863 131.798 86.4126C131.798 67.5461 113.218 68.5723 113.218 68.5723C112.238 68.5723 110.12 68.5723 109.003 68.6968L108.536 68.7477L108.537 68.7468ZM113.989 104.511V109.401L115.206 109.494C117.441 109.675 136.825 111.604 137.207 126.068C137.22 125.77 137.229 125.489 137.229 125.199C137.229 109.012 115.835 107.06 113.992 106.92V104.511H113.987H113.989ZM88.8073 113.448C88.8073 113.448 77.4708 111.438 75.6413 111.115V43.6158H93.9617C99.9525 46.0393 102.592 56.5245 103.258 59.6936L103.484 60.7783L109.121 60.4885L105.926 34H103.565L106.461 57.9718L106.159 57.9972L105.582 58.0311L103.373 58.1379C102.912 55.9788 100.271 43.8311 93.1722 41.0755L93.0826 41.0416H73.1328V110.9C73.1328 110.9 85.4928 113.093 86.3118 113.233V117.08H45.1115L45.1028 119.663H88.8073V113.448ZM93.7399 70.228C93.7399 70.228 80.8279 68.1604 80.0106 68.0266V64.1711H80.0019V70.4187C80.0019 70.4187 91.8592 72.321 93.7312 72.6099L93.7399 70.2272V70.228ZM148.751 111.007C144.48 106.935 138.807 105.271 134.642 104.584C140.509 101.754 149.183 95.631 149.183 84.1205C149.183 70.5085 139.769 64.1694 119.561 64.1694H118.456C137.095 64.2118 146.55 69.6399 146.55 82.8299C146.55 99.3306 127.743 104.072 127.743 104.072V104.097C127.743 104.097 152.002 103.534 152.002 124.595C152.002 140.639 141.451 148.417 123.373 148.417H80.0106V144.768C80.0019 144.776 79.9932 144.776 79.9932 144.776L80.0019 145.852V150.998H124.687C143.999 150.998 154.639 142.078 154.639 125.884C154.639 119.727 152.661 114.729 148.751 111.005" fill="#8FBCE6"/>
<path id="Vector_3" d="M80.0106 148.427H123.375C141.452 148.427 152.003 140.64 152.003 124.595C152.003 103.535 127.744 104.097 127.744 104.097V104.072C127.744 104.072 146.552 99.3314 146.552 82.8308C146.552 69.6408 137.097 64.2117 118.458 64.1787C118.382 64.1702 118.319 64.1702 118.255 64.1702H80.0114V68.0266C80.8305 68.1596 93.7408 70.228 93.7408 70.228V142.237H93.7321C93.3843 142.287 80.8096 144.43 80.0114 144.57V148.427L80.0106 148.427ZM131.798 86.4134C131.798 86.6871 131.794 86.9684 131.786 87.2413C131.186 102.666 113.996 104.387 113.996 104.387V106.92C115.835 107.06 137.229 109.012 137.229 125.199C137.229 125.489 137.22 125.77 137.207 126.067C136.859 134.831 131.016 143.503 117.078 143.503H116.65C112.485 143.503 109.16 143.495 108.571 143.495H108.536V68.746L109.004 68.6951C110.12 68.5723 112.239 68.5723 113.219 68.5723C113.219 68.5723 131.798 67.547 131.798 86.4134Z" fill="#092C5C"/>
<path id="Vector_4" d="M45.1115 113.233V117.08H86.3101V113.233C85.4928 113.093 73.1372 110.9 73.1372 110.9V41.0348H93.0783L93.0826 41.0433L93.1783 41.0755C100.272 43.8311 102.912 55.9864 103.375 58.1379L105.587 58.0303L106.161 57.9964L106.462 57.971L103.565 34.0085V34L27.9389 34.0339L25.3182 55.4068L28.3876 55.5721C28.3876 55.5551 28.3963 55.5212 28.3963 55.5043C28.8745 53.2545 31.2786 43.7955 38.3225 41.0907L38.4111 41.0483H58.1888V110.898C58.1888 110.898 46.0593 113.091 45.1115 113.231" fill="#092C5C"/>
</g>
</g>
<defs>
<clipPath id="clip0_1_210">
<rect width="136" height="117" fill="white" transform="translate(25 34)"/>
</clipPath>
</defs>
</svg>
