<svg width="185" height="185" viewBox="0 0 185 185" fill="none" xmlns="http://www.w3.org/2000/svg">
<g id="TEX">
<g id="Ellipse 3">
<path d="M182 92.5C182 141.929 141.929 182 92.5 182C43.0705 182 3 141.929 3 92.5C3 43.0705 43.0705 3 92.5 3C141.929 3 182 43.0705 182 92.5Z" fill="#003278"/>
<path d="M182 92.5C182 141.929 141.929 182 92.5 182C43.0705 182 3 141.929 3 92.5C3 43.0705 43.0705 3 92.5 3C141.929 3 182 43.0705 182 92.5Z" fill="#9A9A9A" fill-opacity="0.2"/>
<path d="M182 92.5C182 141.929 141.929 182 92.5 182C43.0705 182 3 141.929 3 92.5C3 43.0705 43.0705 3 92.5 3C141.929 3 182 43.0705 182 92.5Z" stroke="white" stroke-width="6"/>
</g>
<g id="140 1" clip-path="url(#clip0_1_217)">
<path id="Vector" d="M52.3154 71.3586L52.2861 75.1604H38L43.2704 82.115H58.5829L58.5954 79.3744C58.5954 64.1295 59.978 54.4693 75.2109 52.731V50.7095C58.7672 50.7692 52.323 56.4978 52.3154 71.3586ZM101.603 98.0362V131.549C101.603 133.279 101.983 134.967 106.471 134.967H108.738V101.171C108.738 94.3194 117.804 91.6998 117.804 91.6998C117.804 91.6998 115.582 90.7737 113.324 89.0951L109.409 90.2598C109.327 90.2773 101.603 92.6408 101.603 98.0362ZM140.225 34.257V75.1604H129.62L135.29 82.586H147V41.7334M101.603 78.543C101.603 82.6974 107.351 85.9607 109.569 86.8517L111.729 87.7331C110.08 86.1572 108.738 84.1181 108.738 81.695V53.1836L110.023 53.2774C113.877 53.2774 117.522 54.6482 120.562 56.9696C116.495 53.0126 110.101 50.8885 101.603 50.8201V78.543ZM65.043 156.267V156.335L70.615 164H121.016V146.341L115.033 139.062V156.267" fill="#003278"/>
<path id="Vector_2" d="M38.3603 71.5726H48.9597C48.9597 71.4612 48.9806 71.384 48.9806 71.2981C48.9806 71.0236 48.9605 70.921 48.8951 71.1771C48.8951 54.5193 57.0646 47.1121 75.3726 47.1121H78.6387V78.5439C78.6387 83.6902 75.3173 86.722 72.6494 88.4523C75.3374 90.0362 78.6404 92.8724 78.6404 98.0274V131.257C78.6404 135.753 75.5821 138.545 70.6527 138.545H65.1813V152.695H111.609V138.548H106.473C99.6204 138.548 98.1801 134.753 98.1801 131.549V98.0283C98.1801 92.889 102.039 89.9774 105.054 88.3926C102.075 86.5352 98.1809 83.3323 98.1809 78.5439V48.8942L99.4545 47.1726H101.168C118.908 47.1726 129.087 55.6094 129.087 70.322C129.087 70.322 129.083 70.9815 129.07 71.5726H136.804V34H38.3603V71.5726Z" fill="#C0111F"/>
<path id="Vector_3" d="M123.258 157.629H125.058V162.75H126.27V157.629H128.049V156.524H123.259M132.668 160.592H132.634L131.248 156.523H129.149V162.749H130.364V157.791H130.392L132.049 162.75H133.228L134.95 157.791H134.975V162.75H136.194V156.524H134.099" fill="#003278"/>
</g>
</g>
<defs>
<clipPath id="clip0_1_217">
<rect width="109" height="130" fill="white" transform="translate(38 34)"/>
</clipPath>
</defs>
</svg>
