<svg width="185" height="185" viewBox="0 0 185 185" fill="none" xmlns="http://www.w3.org/2000/svg">
<g id="TOR">
<path id="Ellipse 3" d="M182 92.5C182 141.929 141.929 182 92.5 182C43.0705 182 3 141.929 3 92.5C3 43.0705 43.0705 3 92.5 3C141.929 3 182 43.0705 182 92.5Z" fill="#134A8E" stroke="white" stroke-width="6"/>
<g id="141 1" clip-path="url(#clip0_1_227)">
<path id="Vector" d="M141.643 114.99H142.825V118.332H143.624V114.99H144.813V114.259H141.643M147.863 116.925H147.846L146.925 114.259H145.533V118.33H146.337V115.104H146.357L147.459 118.33H148.243L149.374 115.104H149.395V118.33H150.201V114.259H148.815M60.6945 79.2044C60.6945 79.2044 59.7411 76.7335 60.9534 74.2308C61.4339 73.2383 62.3482 72.3201 63.5612 71.5961C72.5068 65.3932 91.4654 71.7426 91.4654 71.7426C86.9625 71.3282 83.2753 71.4012 80.1519 71.8328C85.4383 73.54 91.0995 75.8247 94.9309 76.7919C99.6492 77.978 102.781 78.5793 107.469 78.8637L107.322 76.9616L109.929 77.425L116.878 78.6435L117.906 75.969L119.032 73.0022L121.238 75.2212C121.296 75.2623 124.704 78.7005 126.503 80.5052C126.182 77.1074 125.381 68.5137 125.37 68.417L125.043 64.9377L128.177 66.2551L131.6 67.6699L136.736 59.012L138.481 56.0538L140.234 59.012L144.377 66.0039C145.822 59.9316 146.858 53.4927 149.884 50.518C146.855 50.6313 144.716 51.517 141.407 53.915C143.282 48.6715 146.059 44.7857 149.812 40.3391C146.168 40.8993 142.687 41.9885 139.268 43.9967C140.572 40.8018 140.663 36.8266 140.663 36.8266C124.657 55.9968 80.0141 55.7687 68.4579 59.671C60.875 62.2322 56.9877 66.4998 54.2854 70.7103C54.0217 75.0516 57.0864 79.2051 60.6931 79.2051L60.6945 79.2044Z" fill="#134A8E"/>
<path id="Vector_2" d="M125.261 106.69L122.282 110.389L125.26 106.691" fill="#1D2D5C"/>
<path id="Vector_3" d="M117.58 112.925L120.707 109.047L122.396 106.934L115.854 101.113C112.298 106.715 108.828 112.804 107.173 117.502L114.377 117.478C110.675 122.202 103.541 130.022 98.7482 138.696C93.9466 126.535 82.7129 110.894 62.4203 102.302C56.5442 99.8061 50.997 96.5137 51.714 91.7098C41.5498 90.2054 30.4343 89.0028 17.8288 88.5719C16.8718 88.556 15.982 88.5394 15.1818 88.5307C14.4494 88.5235 14.2605 88.8238 15.0559 89.4908C18.5143 92.0606 30.2398 96.7339 44.6207 99.5137C51.5391 100.839 54.6968 102.798 59.6718 106.383C70.4725 114.17 85.2116 135.086 94.1922 162.302C111.228 128.168 131.008 112.844 132.573 111.658L122.441 112.511L117.581 112.926L117.58 112.925ZM14.7236 87.6847C21.9392 87.3599 32.0705 87.0011 49.756 87.6032C51.2565 87.627 52.729 87.6522 54.1595 87.6847C55.0451 86.4735 56.6764 85.3842 59.7607 85.3842H60.6735C66.4251 85.4751 67.4883 91.5546 73.5938 91.5546C79.6713 91.5546 80.75 85.5148 86.4498 85.3928C86.6037 85.3842 86.7716 85.3842 86.9268 85.3842H107.988L107.701 81.7749H86.6072C80.7619 81.7749 79.7224 75.6052 73.5819 75.6052C67.5359 75.6052 66.4398 81.702 60.812 81.759C54.7191 81.3837 52.3037 76.117 51.8315 71.6459C49.1684 72.8153 47.798 74.1825 45.7897 77.4496C24.0182 81.1657 16.5634 84.7583 14.6096 87.0019C14.3179 87.401 14.4487 87.5959 14.7236 87.6862V87.6847ZM71.2546 78.4003C70.8251 80.189 71.0699 81.7092 71.1637 82.4975H69.1169C69.0721 80.9123 69.9913 79.278 71.2546 78.4003Z" fill="#1D2D5C"/>
<path id="Vector_4" d="M71.2546 78.4002C69.9906 79.2787 69.0721 80.9123 69.1161 82.4975H71.1637C71.0692 81.7092 70.8244 80.189 71.2546 78.4002Z" fill="white"/>
<path id="Vector_5" d="M174 89.6424L170.628 88.4405L168.785 87.7908L169.443 79.6772L169.652 76.9616L167.043 77.425L160.092 78.6435L159.067 75.9691L157.941 73.0022L155.728 75.2212C155.68 75.2624 152.269 78.7005 150.46 80.5052C150.792 77.1074 151.596 68.5138 151.6 68.417L151.922 64.9377L148.795 66.2551L147.377 66.8326C147.514 66.1418 147.652 65.4589 147.782 64.7839C148.618 60.5077 150.701 53.0214 154.636 47.3064C154.636 47.3064 152.119 46.6806 148.267 47.8348C147.176 48.1683 148.179 47.8594 148.141 47.8753C149.424 44.7294 155.12 36.6577 155.12 36.6577C155.12 36.6577 147.053 36.5104 144.011 38.4132C145.894 31.9923 144.323 27.0007 144.323 27.0007L138.057 34.5037C127.24 47.4696 100.882 51.0464 83.4516 53.4039C76.3969 54.3784 70.8195 55.127 67.3848 56.2986C59.0814 59.1109 54.7303 63.8997 52.1449 67.6533L50.487 68.3773C47.3202 69.7597 45.512 71.5477 43.7435 74.2063C25.802 77.3529 15.428 80.7578 12.0521 84.6111L11.8282 84.8955C11.0713 85.9609 10.823 87.2126 11.1217 88.3575C11.0049 89.3659 11.2057 90.8623 12.9195 92.2699L13.0363 92.358C17.1328 95.423 29.3752 100.194 43.9877 103.007C50.5423 104.268 53.3663 105.276 57.5417 109.177C78.3317 128.606 88.5449 157.774 93.173 172L98.376 162.123C115.743 130.662 132.766 116.111 132.971 115.924L136.563 112.534L136.661 112.736L138.482 116.345L140.303 112.721L140.992 111.372L154.518 112.509L159.387 112.923L156.263 109.045L154.573 106.932L171.298 92.0476L174 89.6424ZM68.4579 59.6711C80.0141 55.7694 124.658 55.9968 140.665 36.8288C140.665 36.8288 140.576 40.804 139.271 43.9989C142.69 41.99 146.172 40.9007 149.816 40.3391C146.062 44.7857 143.286 48.6722 141.411 53.9157C144.72 51.5177 146.858 50.6313 149.888 50.518C146.863 53.4942 145.826 59.9324 144.381 66.0046L140.237 59.0127L138.484 56.0546L136.74 59.0127L131.604 67.6706L128.181 66.2558L125.047 64.9399L125.374 68.4178C125.386 68.5152 126.185 77.1089 126.507 80.5059C124.708 78.7013 121.3 75.2624 121.242 75.2219L119.036 73.003L117.91 75.9698L116.881 78.6442L109.933 77.4258L107.326 76.9623L107.473 78.8644C102.784 78.58 99.652 77.9787 94.9344 76.7927C91.1009 75.8254 85.4418 73.5407 80.1554 71.8336C83.2788 71.4026 86.966 71.3283 91.4682 71.7433C91.4682 71.7433 72.511 65.3946 63.564 71.5975C62.3517 72.3208 61.4374 73.239 60.9569 74.2323C59.7453 76.7349 60.698 79.2058 60.698 79.2058C57.0906 79.2058 54.0259 75.0523 54.2903 70.7111C56.9905 66.4991 60.8799 62.2315 68.4614 59.6703L68.4579 59.6711ZM14.6082 87.0004C16.5627 84.7576 24.0189 81.165 45.7897 77.4503C47.7973 74.1817 49.1684 72.816 51.8315 71.6452C52.3044 76.1163 54.7185 81.383 60.812 81.7583C66.4405 81.7006 67.5359 75.6045 73.5819 75.6045C79.7224 75.6045 80.7619 81.7742 86.6072 81.7742H107.7L107.987 85.3835H86.9269C86.773 85.3835 86.6037 85.3835 86.4498 85.3921C80.75 85.5134 79.6713 91.5539 73.5924 91.5539C67.4883 91.5539 66.4251 85.4737 60.6742 85.3842H59.7614C56.6764 85.3842 55.0465 86.4742 54.1602 87.6854C52.7297 87.653 51.2572 87.6277 49.7567 87.6039C32.0712 87.0019 21.9399 87.3599 14.7243 87.6854C14.4487 87.5952 14.3186 87.4003 14.6096 87.0019L14.6082 87.0004ZM94.1908 162.301C85.2102 135.085 70.4697 114.168 59.6704 106.381C54.6954 102.795 51.5363 100.838 44.6194 99.5116C30.2384 96.731 18.5129 92.0577 15.0545 89.4894C14.2591 88.8224 14.448 88.5221 15.1804 88.5293C15.9799 88.538 16.8704 88.5546 17.8281 88.5704C30.4336 89.0014 41.5491 90.2047 51.7133 91.7083C50.9977 96.5123 56.5435 99.8046 62.4203 102.3C82.7136 110.893 93.948 126.533 98.7482 138.694C103.541 130.021 110.675 122.2 114.378 117.478L107.174 117.502C108.828 112.803 112.299 106.715 115.855 101.114L122.398 106.935L120.708 109.049L117.582 112.926L122.441 112.512L132.573 111.659C131.008 112.845 111.228 128.169 94.1922 162.303L94.1908 162.301ZM151.706 106.69L154.693 110.389L139.8 109.146L139.161 110.406L138.484 111.756L138.137 111.072L137.972 110.74L137.177 109.146L129.209 109.813H129.197L123.332 110.308L122.285 110.39L125.262 106.692L107.017 90.4415L110.357 89.2627L109.589 79.5083L118.179 81.0278L119.813 76.7349C119.813 76.7349 125.355 82.304 126.096 83.0353C126.573 83.5066 127.097 83.7586 127.558 83.7586C128.272 83.7586 128.807 83.0916 128.661 81.4746L128.598 80.7838C128.322 77.8415 127.42 68.2402 127.42 68.2164L132.442 70.3047L138.484 60.1193L144.527 70.3047L146.835 69.3461L149.561 68.2156C149.554 68.2395 148.658 77.8408 148.378 80.7831C148.348 81.0841 148.328 81.3368 148.308 81.4746C148.171 83.0916 148.703 83.7586 149.421 83.7586C149.873 83.7586 150.408 83.4987 150.885 83.0353C151.617 82.3033 157.16 76.7349 157.16 76.7349L158.798 81.0278L167.392 79.5076L166.615 89.2612L169.956 90.44L151.708 106.69L151.706 106.69Z" fill="white"/>
<path id="Vector_6" d="M167.391 79.5076L158.796 81.0271L157.157 76.7342C157.157 76.7342 151.616 82.3033 150.883 83.0345C150.407 83.4965 149.871 83.7578 149.419 83.7578C148.702 83.7578 148.17 83.0908 148.308 81.4739C148.327 81.3367 148.346 81.0841 148.378 80.7831C148.657 77.8408 149.553 68.2394 149.56 68.2156L146.833 69.3453L144.525 70.3039L138.484 60.1186L132.442 70.3039L127.419 68.2149C127.419 68.2387 128.321 77.8401 128.597 80.7823C128.624 81.0834 128.647 81.336 128.66 81.4739C128.806 83.0908 128.27 83.7578 127.557 83.7578C127.097 83.7578 126.572 83.5052 126.095 83.0345C125.353 82.3026 119.813 76.7342 119.813 76.7342L118.178 81.0271L109.588 79.5068L110.356 89.2605L107.016 90.4393L125.26 106.69L122.282 110.388L123.33 110.308L129.195 109.812L137.175 109.145L137.971 110.739L138.137 111.071L138.484 111.755L139.162 110.405L139.799 109.145L154.692 110.389L151.706 106.691L169.955 90.4407L166.615 89.2619L167.391 79.5076Z" fill="#E8291C"/>
</g>
</g>
<defs>
<clipPath id="clip0_1_227">
<rect width="163" height="145" fill="white" transform="translate(11 27)"/>
</clipPath>
</defs>
</svg>
