<svg width="185" height="185" viewBox="0 0 185 185" fill="none" xmlns="http://www.w3.org/2000/svg">
<g id="MIN">
<path id="Ellipse 3" d="M182 92.5C182 141.929 141.929 182 92.5 182C43.0705 182 3 141.929 3 92.5C3 43.0705 43.0705 3 92.5 3C141.929 3 182 43.0705 182 92.5Z" fill="#B3B5B7" stroke="white" stroke-width="6"/>
<g id="142 1">
<path id="Vector" d="M91.6441 140.474C88.4237 140.474 85.2881 140.295 82.322 139.936C81.983 147.654 80.2034 155.103 77.661 163H104.78C102.237 155.103 100.458 147.744 100.119 140.026C97.322 140.295 94.5254 140.474 91.6441 140.474Z" fill="#091F40"/>
<path id="Vector_2" d="M100.034 124.41C97.322 124.769 94.4407 125.038 91.4746 125.038C88.339 125.038 85.2881 124.859 82.4915 124.41C73.4237 123.064 66.0508 119.833 60.9661 115.526C55.5424 110.949 52.0678 104.936 52.0678 98.2949C52.0678 91.6538 55.4576 85.641 60.9661 81.0641C66.1356 76.7564 73.5085 73.4359 82.5763 72.1795V56.5641C65.3729 58.4487 52.7458 65.8974 40.4576 78.9102C35.3729 84.2949 29.5254 91.4743 22.5763 98.3846C29.5254 105.205 35.3729 112.474 40.4576 117.859C52.661 130.782 65.2881 138.231 82.4068 140.205C85.3729 140.564 88.5085 140.744 91.7288 140.744C94.6102 140.744 97.4915 140.564 100.203 140.295C125.797 137.782 143.763 123.962 148.593 106.731L129.271 106.641C124.441 115.526 114.186 122.436 100.034 124.41Z" fill="#E31E34"/>
<path id="Vector_3" d="M100.034 71.9102C114.186 73.8846 124.525 80.7949 129.186 89.9487L148.508 89.859C143.593 72.5385 125.627 58.7179 99.9492 56.2949C100.034 61.4102 100.034 66.6154 100.034 71.9102Z" fill="#E31E34"/>
<path id="Vector_4" d="M115.797 147.205L115.119 149.269H115.034L113.847 145.679H111.983V151.244H113.085V146.846L114.525 151.244H115.542L115.797 150.526L117.068 146.846H117.153V151.244H118.169V145.679H116.305L115.797 147.205ZM106.898 146.667H108.424V151.244H109.525V146.667H111.051V145.679H106.898V146.667ZM82.4915 72C82.4915 89.5 82.5763 107.538 82.4915 124.41C85.2881 124.859 88.339 125.038 91.4746 125.038C94.4407 125.038 97.322 124.859 100.034 124.41V51.359C100.034 45.8846 100.119 41.6667 100.119 37.8974C116.559 38.7949 131.983 44.359 145.712 54.0513L142.237 31.0769C127.915 25.6923 109.525 23 91.1356 23C72.9153 23 54.5254 25.6923 40.2034 31.0769L36.7288 54.2308C50.4576 44.5385 65.9661 38.9744 82.322 38.0769C82.4068 41.7564 82.4068 46.0641 82.4068 51.5385C82.4068 58.1795 82.4068 64.9103 82.4915 71.8205V72Z" fill="#091F40"/>
</g>
</g>
</svg>
