<svg width="185" height="185" viewBox="0 0 185 185" fill="none" xmlns="http://www.w3.org/2000/svg">
<g id="PHI">
<path id="Ellipse 3" d="M182 92.5C182 141.929 141.929 182 92.5 182C43.0705 182 3 141.929 3 92.5C3 43.0705 43.0705 3 92.5 3C141.929 3 182 43.0705 182 92.5Z" fill="#013B73" stroke="white" stroke-width="6"/>
<path id="Vector" d="M108.818 148.074H107.019V153H105.797V148.074H104V147H108.818V148.074ZM117 153H115.778V148.222H115.751L114.016 152.999H112.838L111.165 148.222H111.133V152.999H109.919V147H112.029L113.42 150.923H113.452L114.898 147H117V153Z" fill="#E81828"/>
<path id="Vector_2" fill-rule="evenodd" clip-rule="evenodd" d="M141.801 57.7623C140.945 44.7777 129.947 34.9222 119.652 31.0657C116.33 30.0174 112.908 28.9373 109.586 28.2333C98.6469 25.863 86.671 27.1622 76.8097 29.9865C63.274 33.8271 50.2046 44.4329 44.794 58.2552C42.6486 63.9183 42.1332 71.5601 44.8877 77.6921C48.1896 84.7797 55.5268 87.4069 61.86 87.4069C68.8741 87.4069 73.5585 82.2132 76.2273 77.5125V105.452L76.0782 124.389C74.9885 125.759 73.6793 127.151 72.6125 128.614C70.171 132.376 66.8697 137.515 66.6583 143.734C66.6583 145.572 66.7632 148.732 68.4279 151.359C70.6863 155.412 75.039 157.149 78.2503 157.751C82.2986 158.392 86.3265 157.727 89.6715 156.547C97.1035 153.73 103.745 146.675 105.003 138.219L105.057 137.922L105.214 101.893C108.008 100.79 110.832 99.6875 113.618 98.4592C117.174 96.8711 120.773 95.0726 124.191 92.8195C136.468 85.5854 143.278 72.288 141.8 57.7628L141.801 57.7623ZM116.959 66.8908C116.189 70.7543 112.169 74.5406 107.614 76.0966C106.863 76.3705 106.082 76.5741 105.246 76.7542L105.375 52.7562C110.079 52.6784 113.713 54.0778 115.451 56.8553L116.518 59.3972C116.795 60.7039 117.065 62.034 117.174 63.3715C117.299 64.6931 117.22 65.9295 116.959 66.8908Z" fill="white"/>
<path id="Vector_3" fill-rule="evenodd" clip-rule="evenodd" d="M138.81 57.9353C138.1 46.3574 127.898 37.3642 118.723 33.9256L118.664 33.9021C115.849 33.0093 112.341 31.8805 108.969 31.1766C96.4052 28.4505 83.9371 31.0752 77.6256 32.8769C64.185 36.6917 52.3907 47.071 47.5864 59.3224C45.4609 64.9155 45.4727 71.5973 47.6131 76.3765C49.9317 81.3356 55.2332 84.3045 61.7991 84.3045C67.0968 84.3045 71.9603 80.2004 74.8103 73.3142C74.853 73.2128 75.1358 72.3034 75.1358 72.3034C75.5978 70.8464 76.0715 69.3505 76.0715 67.6507V66.4835H74.9085C74.1488 66.4835 73.3037 66.1857 72.497 65.9044L71.9208 65.708C71.6632 65.5122 71.366 64.8862 71.366 64.4629C71.9758 60.9219 74.8925 57.4043 79.3019 54.7796V105.511C79.3019 105.511 79.1376 124.687 79.1333 125.463C78.8079 125.886 77.297 127.75 77.297 127.75L75.155 130.413C72.7937 134.017 69.9079 138.459 69.7121 143.847V143.855C69.7121 145.745 69.8722 148.071 71.0779 149.903C72.3583 152.301 75.1624 154.11 78.7375 154.792C81.8654 155.278 85.257 154.909 88.5925 153.727C95.5697 151.086 100.934 144.702 101.968 137.832C101.987 137.667 102.129 103.2 102.144 99.9487C102.202 99.8473 102.214 99.8387 102.277 99.7218C102.653 99.5804 103.189 99.3696 103.189 99.3696C109.759 96.8228 116.545 94.1757 122.65 90.165C132.928 84.1487 139 73.4087 139 61.5719C139 60.3567 138.934 59.1511 138.809 57.9375L138.81 57.9353ZM120.05 67.5247C118.926 73.1568 113.538 77.3329 108.68 79.0012C106.628 79.7377 104.365 80.067 102.144 80.3728C102.164 77.8896 102.316 49.7816 102.316 49.7592C102.532 49.7592 104.255 49.6332 104.255 49.6332C108.112 49.4064 115.058 49.8761 118.296 55.4307C118.382 55.6266 119.596 58.5176 119.596 58.5176C119.96 60.3338 120.407 62.4333 120.407 64.5254C120.407 65.5426 120.305 66.5449 120.05 67.5247Z" fill="#E81828"/>
</g>
</svg>
