<svg width="185" height="185" viewBox="0 0 185 185" fill="none" xmlns="http://www.w3.org/2000/svg">
<g id="ATL">
<path id="Ellipse 3" d="M182 92.5C182 141.929 141.929 182 92.5 182C43.0705 182 3 141.929 3 92.5C3 43.0705 43.0705 3 92.5 3C141.929 3 182 43.0705 182 92.5Z" fill="#EAAA00" stroke="white" stroke-width="6"/>
<g id="144 1" clip-path="url(#clip0_1_249)">
<path id="Vector" d="M146.721 102.711H145.675V105.873H144.963V102.71H143.92V102.031H146.721V102.71V102.711ZM151.465 105.873H150.763V102.808H150.742L149.738 105.873H149.054L148.083 102.808H148.068V105.872H147.359V102.029H148.587L149.387 104.528H149.412L150.255 102.03H151.467V105.872L151.465 105.873Z" fill="#13274F"/>
<path id="Vector_2" d="M151.542 114.145C149.971 112.514 147.416 109.857 144.264 111.51C141.901 112.741 141.466 115.375 141.466 117.36C141.466 118.107 141.533 118.763 141.575 119.223C141.635 119.873 141.663 120.498 141.663 121.103C141.663 126.793 139.019 130.211 136.129 130.724C134.093 130.815 126.626 123.925 123.031 108.31C136.758 102.756 141.824 94.1588 143.52 87.6241C144.117 85.3151 144.366 83.0734 144.366 81.0208C144.366 76.1002 142.965 72.152 141.522 70.4329C140.725 69.4815 138.295 66.5834 135.069 67.6937C131.776 68.8251 131.347 72.8245 131.189 74.3419C130.561 80.2355 127.402 84.6279 121.249 88.1285C121.906 70.9597 127.619 52.3799 138.06 33.9207C138.896 32.4474 140.195 30.1539 140.195 27.875C140.195 26.682 139.836 25.4974 138.864 24.4494C136.129 21.4749 132.554 23.7768 130.413 25.1499L129.787 25.5506C99.3041 42.592 83.9376 75.7226 72.7086 99.9032C72.7086 99.9032 72.5013 100.355 72.3156 100.756C55.0002 107.835 51.9251 120.581 51.897 120.709C51.7778 121.291 51.5842 122.182 51.5842 123.192C51.5842 124.544 51.9361 126.083 53.2938 127.245C54.0838 127.925 54.9168 128.181 55.7269 128.265C54.7167 128.93 53.7364 129.343 52.7809 129.397C43.7054 129.872 40.9151 121.413 40.8616 121.239C40.6856 116.167 37.909 115.141 36.6726 114.953C32.0488 114.229 30.3633 120.386 29.6476 123.028C28.0534 128.84 29.4469 135.828 33.2742 141.247C37.8021 147.662 45.0624 151.127 53.724 150.999C68.5052 150.779 78.0187 133.338 85.743 116.35C90.374 115.104 94.327 114.516 98.7755 113.882C98.7755 113.882 103.123 113.172 106.57 112.614C110.484 129.829 117.804 142.553 127.066 147.76C132.767 150.96 138.928 151.201 144.872 148.439C150.426 145.858 154.33 140.131 155.588 132.719C156.826 125.415 155.197 117.952 151.54 114.148L151.542 114.145ZM94.722 95.9038C97.5117 89.6172 100.49 83.3382 103.692 77.949C103.618 79.9035 103.503 81.8734 103.503 83.7915C103.503 87.3376 103.773 90.7794 104.018 94.2281C101.202 94.8397 98.1061 95.405 94.722 95.9038Z" fill="#13274F"/>
<path id="Vector_3" d="M148.701 117.307C146.973 115.511 145.145 113.556 145.636 118.778C146.482 127.745 142.273 134.113 136.782 135.073C131.491 135.993 121.597 125.05 118.203 105.496C145.44 96.6577 140.71 76.0323 138.488 73.3759C136.588 71.1201 135.641 71.1573 135.251 74.84C134.254 84.1901 128.222 90.537 117.089 94.9C116.429 77.9189 120.594 56.3352 134.567 31.6412C138.748 24.261 133.184 28.5924 131.669 29.445C101.434 46.3581 86.6779 79.7018 75.3068 104.168C60.2141 109.669 56.2564 119.955 55.881 121.706C55.3726 124.076 55.572 124.543 58.2646 123.17C62.056 121.223 65.4016 119.64 68.439 118.242C63.531 127.404 58.7795 133.479 52.9851 133.788C41.4159 134.4 36.8065 123.577 36.8065 121.705C36.8065 118.219 35.265 118.044 33.5697 124.264C31.2598 132.701 37.2653 146.837 53.6695 146.595C66.0978 146.413 74.7835 130.701 82.9184 112.581C92.3902 109.751 98.5092 109.879 109.674 107.66C114.799 135.07 128.628 151.198 143.252 144.406C153.395 139.69 153.809 122.611 148.701 117.305V117.307ZM108.281 97.7302C102.477 99.2083 95.8805 100.319 88.2383 101.201C88.1145 101.208 87.988 101.231 87.8687 101.247C94.2615 86.4851 100.725 71.9503 108.853 64.2219C107.329 76.2292 107.255 87.5499 108.279 97.7302H108.281Z" fill="#CE1141"/>
</g>
</g>
<defs>
<clipPath id="clip0_1_249">
<rect width="127" height="128" fill="white" transform="translate(29 23)"/>
</clipPath>
</defs>
</svg>
