<svg width="185" height="185" viewBox="0 0 185 185" fill="none" xmlns="http://www.w3.org/2000/svg">
<g id="CHW">
<path id="Ellipse 3" d="M182 92.5C182 141.929 141.929 182 92.5 182C43.0705 182 3 141.929 3 92.5C3 43.0705 43.0705 3 92.5 3C141.929 3 182 43.0705 182 92.5Z" fill="black" stroke="white" stroke-width="6"/>
<g id="145 1" clip-path="url(#clip0_1_259)">
<path id="Vector" d="M56.6488 29.6061C52.9514 33.7626 49.3848 42.0092 48.8694 47.5913C48.7058 49.37 48.6216 51.0398 48.6216 52.5906C48.6216 58.1899 49.7079 62.482 52.0802 66.6645C55.048 71.8839 59.7451 76.1838 65.6774 79.0927C71.2685 81.8332 79.3171 85.6444 80.284 86.0493C80.6112 86.1935 81.0308 86.412 81.4905 86.6485C79.6418 88.0473 78.5538 88.8831 77.6786 89.5583C72.6984 88.3521 66.4357 89.2794 64.9779 89.6507C59.0555 91.1271 53.6222 93.9437 49.6891 97.577C45.6775 101.288 42.6623 105.538 41.6439 108.96C40.5093 112.772 40.8766 115.471 42.7343 116.996C45.4698 119.248 49.0052 116.946 50.1595 116.18C52.5399 114.594 56.9245 111.693 62.4543 110.818C67.2545 110.066 73.7021 110.766 76.6732 112.798V118.338C75.9493 119.02 75.1942 119.763 75.1942 119.763C74.4515 120.538 74.049 121.617 74.049 122.739C74.049 123.254 74.1357 123.786 74.3157 124.291C74.8106 125.716 75.9452 126.315 75.9452 126.315C85.4997 132.454 85.4997 132.454 91.9293 136.602C91.8344 136.637 91.6512 136.645 91.5792 136.687C90.7285 137.075 88.7628 138.373 88.7628 141.99V156.755L97.0739 165.136C98.9144 167.084 100.701 167.413 101.879 167.329C103.329 167.234 104.647 166.485 105.582 165.22C105.582 165.22 111.118 157.717 114.553 153.078C117.089 157.227 121.093 163.77 121.093 163.77C121.053 163.686 121.189 163.99 121.189 163.99C121.652 165.044 122.619 167.237 124.892 167.852C125.898 168.13 127.488 168.164 129.337 166.738C131.821 164.833 137.599 160.069 138.595 159.032L138.775 158.83C139.466 158.122 140.504 157.034 140.504 155.255V141.155C140.504 139.639 139.735 137.725 137.968 136.966C136.678 136.426 135.201 136.426 133.447 137.952C132.656 138.618 131.319 139.639 129.365 141.207C128.227 139.293 127.623 138.273 126.764 136.831C128.447 134.597 132.441 129.276 134.686 126.299C134.97 126.536 135.553 127.033 135.553 127.033L135.651 127.1C138.004 128.753 139.794 128.136 140.657 127.623C142.985 126.232 143.034 123.137 142.994 122.21L142.998 110.389L135.936 102.657C134.913 101.45 133.475 100.817 132.009 100.944C130.512 101.071 129.126 101.974 128.307 103.34C127.926 103.921 124.568 108.373 121.084 112.952V97.4794C121.511 97.0157 121.959 96.5434 121.959 96.5434C122.595 95.9529 124.024 94.0896 124.024 91.8982C124.024 91.3741 123.948 90.8344 123.753 90.2862C123.345 89.1482 122.362 87.8409 120.203 87.3013C120.837 84.7214 121.084 82.2174 121.116 80.2782C121.12 80.1003 121.125 79.9242 121.125 79.7385C121.125 74.5692 119.994 70.2097 117.757 66.7698C115.113 62.6884 113.056 61.3147 110.22 59.4091L109.489 58.9195C106.186 56.6936 88.8388 47.0819 88.1034 46.6502C88.0437 46.626 81.4529 43.1861 81.4529 43.1861C77.1035 40.8669 76.8 39.2402 76.8 38.363V38.2024C76.8998 37.6722 78.0827 35.7416 80.567 35.7416C83.1069 35.7416 84.8968 35.8167 88.2482 37.0143C93.5523 38.8948 93.7077 41.1717 93.7077 42.0136C93.7036 42.2251 93.5359 44.5866 93.5359 44.5866L104.579 52.5457L121.134 30.1284L107.693 20.6437L105.91 22.5147C105.316 23.1554 104.945 23.5094 104.724 23.67C104.462 23.6355 103.767 23.5094 103.767 23.5094L100.797 22.3187C96.1348 20.3225 88.321 17 81.2198 17C68.7965 17 62.2687 23.2314 56.6488 29.6061Z" fill="white"/>
<path id="Vector_2" d="M58.3151 31.3096C54.9694 35.0612 51.6253 42.7759 51.1615 47.8097C51.0101 49.4969 50.93 51.0735 50.93 52.5241C50.93 57.6675 51.9034 61.5711 54.0368 65.3408C56.7567 70.1303 61.107 74.0848 66.5984 76.7743C72.4341 79.6409 80.2593 83.3416 81.1183 83.7042C82.7159 84.395 85.1429 85.7868 85.7834 86.5121C84.9523 87.1528 78.5456 92.0605 78.1382 92.3636C73.9287 90.9216 67.3076 91.7315 65.4294 92.1866C59.8734 93.5853 54.8082 96.2015 51.1574 99.5732C47.5074 102.938 44.7073 106.85 43.8197 109.81C43.0181 112.492 43.1097 114.254 44.0839 115.064C45.0263 115.831 46.5527 115.502 48.7409 114.086C51.078 112.517 55.9395 109.296 61.9864 108.344C66.4716 107.653 70.9682 108.192 74.3524 109.078C74.3524 109.078 76.957 109.921 79.0176 111.388V119.566C78.6658 119.903 76.8253 121.673 76.8253 121.673C76.5169 121.985 76.4015 122.415 76.4015 122.83C76.4015 123.073 76.4424 123.301 76.5136 123.503C76.6813 123.975 77.1247 124.22 77.1247 124.22L99.9082 138.866C99.9082 138.866 105.317 134.514 106.264 133.756C106.635 134.406 107.107 135.233 107.362 135.696C106.866 136.329 101.031 143.858 100.307 144.786L95.2193 139.989C93.953 138.757 92.9616 138.935 92.4912 139.154C91.6282 139.566 91.1374 140.639 91.1374 142.121V155.824L98.7417 163.496C99.9565 164.761 101.003 164.973 101.678 164.93C102.429 164.88 103.12 164.483 103.615 163.809C103.615 163.809 112.41 151.885 114.707 148.783L123.135 162.535L123.39 163.066C123.767 163.935 124.337 165.216 125.496 165.529C126.222 165.731 127.037 165.494 127.901 164.829C130.38 162.932 136.081 158.218 136.883 157.367L137.079 157.163C137.638 156.573 138.081 156.11 138.081 155.402V141.286C138.081 140.62 137.726 139.777 137.031 139.473C136.573 139.254 135.817 139.212 134.87 140.181C134.919 140.131 130.281 143.833 128.712 145.08L123.771 136.783C124.29 136.109 133.573 123.731 134.284 122.795C134.996 123.393 136.983 125.037 136.983 125.037C137.99 125.737 138.813 125.881 139.476 125.476C140.651 124.785 140.588 122.677 140.58 122.432V111.488L134.12 104.43C133.602 103.814 132.93 103.519 132.223 103.57C131.485 103.637 130.785 104.101 130.382 104.775C130.038 105.35 125.046 111.942 121.539 116.546C120.623 115.78 119.331 115.223 118.635 114.979V96.4873C118.867 96.2352 120.341 94.6499 120.341 94.6499C120.589 94.422 121.578 93.2166 121.578 91.9603C121.578 91.7074 121.544 91.4794 121.456 91.2437C121.084 90.1903 119.926 89.6584 118.025 89.6584C117.992 89.6584 117.393 89.7189 116.822 89.7767C118.225 86.4128 118.632 82.8123 118.663 80.2661C118.663 80.0968 118.668 79.9293 118.668 79.7687C118.668 75.1235 117.681 71.2354 115.728 68.2247C113.36 64.5741 111.674 63.4439 108.889 61.5892L108.139 61.0755C104.92 58.9083 87.6371 49.3216 86.8984 48.9167C86.8861 48.908 80.2921 45.4595 80.2921 45.4595C75.0993 42.6844 74.269 40.2729 74.269 38.2671C74.269 38.1739 74.269 38.0893 74.2771 37.9969C74.3246 36.3443 76.5733 33.1142 80.4876 33.1142C83.2034 33.1142 85.2566 33.2074 88.9598 34.5147C93.7649 36.2173 96.0971 38.6798 96.0971 42.0524C96.0921 42.0697 96.0128 43.2577 96.0128 43.2577L104.025 49.0341L117.575 30.6594L107.963 23.8729L107.593 24.2614C105.527 26.4528 105.444 26.4269 103.238 25.9624C102.656 25.8372 101.417 25.3234 99.8354 24.631C95.3306 22.7159 87.781 19.4953 81.1305 19.4953C69.6668 19.4953 63.7991 25.0782 58.3151 31.3096ZM78.6593 93.6216L87.278 87.0112V86.6831C87.1782 85.1565 83.0521 83.1326 81.5976 82.4669C80.7714 82.0957 72.8341 78.3613 67.1301 75.5699C61.8702 72.9899 57.7146 69.2038 55.1231 64.6596C53.2376 61.3198 51.5893 56.9949 52.4237 47.947C52.8507 43.2327 56.1015 35.7554 59.246 32.2214C64.5263 26.2162 70.1772 20.8371 81.1297 20.8371C87.5365 20.8371 94.9379 23.9903 99.3675 25.8795C101.061 26.6048 102.296 27.1436 102.995 27.2783C105.418 27.7851 106.062 27.6927 108.111 25.592C108.823 26.0988 114.805 30.3149 115.74 30.9815C114.977 32.009 104.416 46.3186 103.746 47.2209C102.942 46.6312 97.8419 42.9642 97.3306 42.5843C97.347 42.3563 97.3585 42.1111 97.3585 42.1111C97.3585 38.0893 94.6704 35.1294 89.3541 33.2411C85.4791 31.8743 83.2386 31.7733 80.4827 31.7733C75.7136 31.7733 73.0771 35.7865 73.0059 37.9364C72.8775 41.4195 74.9545 44.1186 79.7194 46.6467L86.3225 50.1125C86.4861 50.1971 104.281 60.0704 107.456 62.204L108.209 62.7099C110.943 64.556 112.466 65.5506 114.687 68.9828C116.548 71.8666 117.466 75.6614 117.39 80.2479C117.354 82.9297 116.955 86.8247 115.266 90.2231L114.726 91.311L118.085 90.9916C119.288 90.9916 120.103 91.2592 120.266 91.6996C120.474 92.2971 119.771 93.4023 119.507 93.6466L117.315 95.9986L117.362 96.2179V115.965L117.822 116.101C118.828 116.429 120.614 117.189 121.105 117.897L121.596 118.614L122.108 117.914C123.016 116.742 130.94 106.344 131.455 105.485C131.647 105.166 131.987 104.938 132.326 104.92C132.634 104.879 132.918 105.03 133.176 105.326C133.176 105.326 138.422 111.068 139.312 112.038V122.627C139.312 123.276 139.168 124.129 138.845 124.322C138.649 124.44 138.226 124.296 137.723 123.942L134.084 120.924L122.225 136.69L128.372 147.046L135.689 141.194C136.149 140.73 136.421 140.654 136.54 140.705C136.692 140.764 136.816 141.068 136.816 141.287V155.402C136.816 155.554 136.528 155.865 136.184 156.212L135.993 156.414C135.278 157.174 129.75 161.761 127.158 163.742C126.614 164.165 126.159 164.324 125.807 164.241C125.232 164.089 124.828 163.17 124.541 162.503L124.206 161.813L114.807 146.474L102.617 162.985C102.424 163.246 102.093 163.559 101.602 163.6C101.003 163.643 100.332 163.272 99.6407 162.555C99.6407 162.555 92.7824 155.632 92.4029 155.253V142.124C92.4029 141.053 92.7104 140.531 93.0025 140.388C93.3215 140.244 93.8369 140.463 94.3686 140.994C94.38 141.003 100.455 146.719 100.455 146.719L108.907 135.808L106.618 131.786C106.618 131.786 100.444 136.752 99.8289 137.25C99.1139 136.811 77.7521 123.051 77.7096 123.033C77.685 122.975 77.6687 122.915 77.6687 122.831C77.6687 122.745 77.685 122.654 77.7243 122.611L80.2847 120.157L80.2888 119.862V110.639L79.9943 110.445C78.2715 109.273 76.8776 108.421 74.3933 107.764C70.1968 106.633 65.2511 106.439 61.808 107.03C55.5011 108.092 50.4768 111.347 48.0718 112.949C45.7552 114.466 45.0288 114.138 44.8602 113.993C44.5085 113.708 44.3367 112.545 45.032 110.217C45.8312 107.526 48.5675 103.732 51.9934 100.578C55.497 97.349 60.3699 94.8364 65.7223 93.4955C67.827 92.9731 74.3663 92.2979 78.0687 93.7062L78.3877 93.8331L78.6601 93.6224L78.6593 93.6216Z" fill="black"/>
<g id="Group">
<path id="Vector_3" d="M138.361 163.597H137.41V166.347H136.763V163.596H135.812V163.007H138.36V163.596L138.361 163.597ZM142.698 166.347H142.047V163.681H142.035L141.117 166.346H140.49L139.611 163.68H139.586V166.345H138.944V163.006H140.067L140.801 165.182H140.813L141.577 163.006H142.699V166.345L142.698 166.347Z" fill="black"/>
</g>
<g id="Group_2">
<path id="Vector_4" d="M138.279 122.678V112.636L132.337 107.003L115.877 128.572L113.568 124.683C115.57 123.107 118.15 121.066 118.438 120.923C118.917 120.67 120.104 119.911 120.694 119.911C121.234 119.911 119.868 117.407 115.946 117.407V95.2138L118.202 92.5665C118.202 92.5665 115.458 93.0302 114.164 92.6252C113.887 92.5242 113.42 92.2971 112.861 91.9846C113.599 90.7447 114.263 89.3373 114.759 87.6847C117.458 78.6964 115.693 70.3988 109.294 65.2804C104.806 61.698 86.3675 51.8498 86.3675 51.8498C86.3675 51.8498 75.2113 46.0821 74.0088 44.8007C73.1458 43.8984 71.3928 42.4902 71.3928 38.0297C71.3928 35.3738 74.197 32.4563 75.4068 31.8562C77.3333 30.8874 77.9591 30.4315 81.8823 30.365C84.095 30.3391 86.1442 30.8952 86.424 30.9289C88.8535 31.1991 94.6238 33.2057 97.5875 37.4478C98.7344 38.6445 98.9577 42.1768 98.9577 42.1768L103.588 45.3058L113.687 31.3848L108.223 27.4993C106.677 29.2694 103.714 29.3781 102.515 28.7547C101.329 28.1219 91.1366 24.201 89.6903 23.721C86.9581 22.7928 81.0193 22.1098 77.811 22.6158C74.6043 23.1053 69.3396 24.1423 65.2135 28.7547C60.4035 34.1512 60.3446 38.4683 60.3446 40.7953C60.3446 44.4286 61.2362 49.2267 65.1014 53.3064C70.6574 59.176 79.1174 62.8611 81.0185 63.9568C84.3944 65.9383 95.0434 71.8226 96.5813 72.7594C103.12 76.7744 105.612 81.0397 104.897 86.4362C104.866 86.6978 104.783 86.9508 104.73 87.196C101.867 85.4329 97.8403 82.7519 96.2181 81.0397C96.2181 81.0397 95.248 82.1363 94.6246 82.7925L89.8801 86.5544C90.4388 84.1178 90.5018 79.9518 90.4036 79.5391C90.2875 79.0331 89.9275 75.0199 86.6047 72.5237C84.347 70.8202 79.2998 67.6246 74.961 65.3745C73.1 64.404 67.0409 60.5333 64.1525 57.987C64.1525 57.987 59.1568 53.0801 58.3895 50.0694C56.904 46.6217 56.8435 38.4683 57.6108 37.6498C57.6108 37.6498 55.7129 39.9103 54.4123 44.4294C53.7685 46.6312 53.3407 49.5064 53.3407 51.4534C53.3407 54.7086 53.8806 60.4158 57.2557 65.2476C58.7486 67.3716 61.0923 69.7918 63.5692 71.5204C66.6008 73.6185 69.6488 74.8593 69.8484 75.0199C70.6828 75.6519 78.5276 79.1428 79.2352 79.5218C79.9493 79.8931 83.5478 81.6718 84.311 82.0948C87.0146 83.6283 88.4052 84.5988 89.2641 87.0423L81.1313 93.4602C81.1313 93.4602 81.4913 94.1423 81.4913 95.2129V96.0332C80.3968 95.6446 79.2777 95.3079 78.1677 95.1041C72.8235 94.1423 69.5678 94.1932 65.3378 95.3062C60.6424 96.5288 55.7129 98.5268 51.0797 103.417C45.8533 108.95 45.9081 112.635 45.9081 112.635L51.1377 109.389C55.5076 106.792 61.2632 105.249 65.337 105.249C75.0485 105.249 80.0892 108.2 81.4913 109.852V119.793C81.4913 121.766 80.9318 122.019 80.5121 122.39C80.3567 122.534 80.2135 122.551 79.6532 122.956C79.6532 122.956 80.3649 123.234 80.5407 123.428C81.0201 123.799 99.5139 135.596 99.5139 135.596L106.675 130.047L110.214 135.992L100.379 148.883L93.6144 142.367V154.525L101.33 162.054L114.966 143.985L126.167 162.806L135.194 155.158V143.126L127.944 148.885L120.594 136.524L133.883 118.918L138.281 122.679L138.279 122.678ZM92.1264 95.5946L96.3449 92.3308C97.4902 93.3263 98.8374 94.2536 100.183 95.0713C100.091 95.1473 100.028 95.2146 100.028 95.2146C100.028 95.2146 95.1604 99.5991 92.1256 100.063V95.5954L92.1264 95.5946ZM99.5131 124.178L92.1264 119.416V107.611C95.2185 107.029 102.771 103.233 106.679 99.1113C106.73 99.8798 106.71 107.771 106.694 113.116L102.164 105.486L95.2553 110.68V119.956L99.0779 117.282L101.938 122.097L99.5131 124.178Z" fill="black"/>
</g>
</g>
</g>
<defs>
<clipPath id="clip0_1_259">
<rect width="102" height="151" fill="white" transform="translate(41 17)"/>
</clipPath>
</defs>
</svg>
