<svg width="185" height="185" viewBox="0 0 185 185" fill="none" xmlns="http://www.w3.org/2000/svg">
<g id="MIA">
<path id="Ellipse 3" d="M182 92.5C182 141.929 141.929 182 92.5 182C43.0705 182 3 141.929 3 92.5C3 43.0705 43.0705 3 92.5 3C141.929 3 182 43.0705 182 92.5Z" fill="black" stroke="white" stroke-width="6"/>
<g id="146 1">
<path id="Vector" d="M97.0659 92.4528C100.646 87.1596 105.549 79.9111 110.119 73.4103L110.154 73.3632C118.378 62.6584 123.617 57.4092 130.172 53.3051C132.268 52.0264 134.462 50.9486 136.729 50.0839C133.54 51.0405 130.173 52.4521 126.806 54.5116C126.131 54.9343 125.464 55.3728 124.806 55.8265C118.7 59.7861 113.46 64.186 105.599 75.1604C105.534 75.2522 105.448 75.3743 105.385 75.4685C101.67 80.9928 97.9535 86.5158 94.2354 92.0374L94.9224 95.6177C95.5431 94.7045 96.2653 93.6369 97.0659 92.4528ZM76.7178 104.45C77.4329 103.81 78.1624 103.19 78.9055 102.589L76.4376 89.8006L74.9443 95.1384L76.7178 104.45ZM80.9735 116.089C80.6189 116.656 80.5299 116.94 80.4964 117.26C80.4924 117.295 80.4896 117.331 80.4879 117.367C80.4266 118.512 80.2677 119.957 79.9256 120.969C79.9143 121.003 79.899 121.041 79.8859 121.077L78.9668 116.254L83.7388 141.301L85.7994 138.298L81.3849 115.431L80.9735 116.089ZM117.574 91.6004L113.301 97.8805L99.3988 146.251L122.499 146.259L125.023 143.501L102.878 143.502L117.574 91.6004ZM52.1254 147.434C46.1041 150.518 39.8224 150.899 37.0843 151.112C35.9661 151.2 34.866 151.237 33.7744 151.246C37.8889 147.729 41.1477 144.295 43.3167 139.427C43.9962 137.988 44.5788 136.497 45.0596 134.966C45.8403 132.489 53.6062 105.056 59.1384 85.4789C58.5621 86.1877 58.0252 86.9337 57.5306 87.7126C56.241 89.7566 54.8198 91.9444 53.9767 94.2934L53.8694 94.6735C53.853 94.7212 53.8382 94.7733 53.8224 94.8216L53.4019 96.3133L53.4014 96.3157L52.9577 97.8873C52.2258 100.48 51.4769 103.127 50.7473 105.701L50.3893 106.962L50.3723 106.944C46.3152 121.229 42.9803 132.909 42.5145 134.454C39.7696 143.566 33.7636 147.905 26.1884 154.147C28.8975 154.2 31.8148 154.267 34.6084 154.023C38.4851 153.686 49.4679 152.954 56.755 144.713C57.0381 144.407 57.3133 144.092 57.5805 143.77C58.2826 142.912 58.9388 142.012 59.5458 141.072C59.3223 141.37 59.0936 141.664 58.857 141.951C56.8889 144.341 54.544 146.112 52.1254 147.434Z" fill="#EF3340"/>
<path id="Vector_2" d="M77.3952 152.348C77.3272 152.334 72.5699 151.288 70.7555 138.006C69.6747 130.091 69.7388 127.483 69.4744 125.142C69.3684 124.205 69.1703 122.222 68.0192 119.903L68.4617 118.321L68.4594 118.319L74.9443 95.1384L76.4375 89.8006L78.9061 102.589C78.163 103.19 77.4335 103.81 76.7184 104.45C75.1491 105.852 73.9435 107.059 73.3534 107.577C72.3719 108.438 71.6775 108.944 71.008 109.213L70.3414 111.598C71.657 111.256 72.9188 110.369 74.4314 108.852C75.9644 107.314 76.5329 106.911 78.5203 105.029C79.5881 104.017 80.5758 103.185 81.4887 102.503L76.8897 78.6786C76.8897 78.6786 64.1135 124.36 64.054 124.584C63.3834 127.106 61.3432 134.779 56.9672 140.092C55.6322 141.713 51.8287 146.33 41.1511 147.91C43.1459 145.466 45.6769 141.541 47.4646 135.871C48.3315 133.121 57.3348 101.293 62.8676 81.7022C61.531 82.8305 60.2663 84.0828 59.139 85.4777C53.6073 105.055 45.8409 132.488 45.0602 134.965C44.5793 136.496 43.9968 137.987 43.3173 139.426C41.1483 144.294 37.8889 147.728 33.775 151.245C34.8793 151.239 35.9832 151.195 37.0849 151.111C39.823 150.898 46.1047 150.517 52.126 147.433C54.5446 146.111 56.8895 144.339 58.8576 141.95C59.0942 141.663 59.3223 141.369 59.5464 141.071C63.8327 135.369 65.8213 127.899 66.4964 125.359C66.5532 125.146 66.6008 124.966 66.6394 124.826L67.2226 122.741C67.4717 123.534 67.6141 124.395 67.693 125.38C67.693 125.38 68.1644 130.204 68.8555 136.974C70.5286 153.371 77.2704 153.675 80.0085 154.345C80.0073 154.347 78.7393 153.777 77.3952 152.348ZM151.68 47.3375C147.784 47.3375 142.449 47.8923 136.729 50.0851C134.463 50.9498 132.269 52.0276 130.173 53.3064C123.617 57.4105 118.378 62.659 110.154 73.3644L110.12 73.4115C105.549 79.9117 100.646 87.1609 97.0665 92.454C96.2659 93.6382 95.5437 94.7057 94.923 95.6195L94.2359 92.0393L89.4038 66.8586C88.5868 66.8698 87.7295 66.9262 86.8377 67.0278L93.584 102.184L95.2691 99.7559C96.052 98.6282 97.4018 96.6325 99.1112 94.1056C102.681 88.8279 107.568 81.603 112.119 75.1282C120.119 64.7185 125.175 59.6374 131.425 55.7242C138.637 51.3126 145.889 50.219 150.933 50.1242C145.676 55.4477 141.791 62.6627 139.105 72.0637L122.56 130.289C122.041 132.238 121.684 133.74 121.505 135.201C121.247 137.319 121.252 139.118 121.529 140.723L106.327 140.724L124.392 76.9229L87.1242 131.697L83.395 112.378C82.7041 113.379 82.0343 114.399 81.386 115.434L85.8006 138.3L113.302 97.8817L117.575 91.6016L102.879 143.503L125.025 143.502C124.568 142.231 124.506 142.016 124.388 141.629C123.836 140.006 123.721 138.08 124.027 135.569C124.184 134.281 124.517 132.891 124.997 131.09L141.534 72.8901C144.479 62.584 148.901 55.0857 155.054 49.9667C155.897 49.2439 156.751 48.5378 157.617 47.8489C157.615 47.8477 154.581 47.3759 151.68 47.3375Z" fill="#00A3E0"/>
<path id="Vector_3" d="M78.8397 115.579C78.9226 115.394 79.0178 115.217 79.1245 115.048L79.1285 115.041C79.7282 114.082 81.4478 111.344 82.9683 109.433L83.4954 108.77L83.5765 108.668L83.6174 108.616C86.5216 104.962 89.0259 101.839 90.9969 101.117C90.9685 101.108 90.9385 101.106 90.9101 101.099C90.5152 101.045 89.1059 101.073 86.4643 103.329C85.1833 104.529 83.5913 106.217 81.6623 108.596C79.5302 111.226 78.539 113.039 77.8037 114.079C77.254 114.852 77.0889 115.281 76.9799 116.004C76.9595 116.138 76.9107 118.232 76.5493 119.301C76.2741 120.116 75.1491 121.891 75.0901 121.999C74.5636 122.958 74.6271 123.424 74.6441 123.956C74.6612 124.488 74.5636 131.56 74.7474 139.427C74.9312 147.295 77.3981 152.348 77.3981 152.348L77.3947 152.347C78.7382 153.776 80.0068 154.347 80.0068 154.347C78.7172 151.888 76.5612 144.811 76.4341 139.38C76.3014 133.709 76.412 128.76 76.3649 125.851C76.3558 125.212 76.3445 124.575 76.3303 123.936L76.3258 123.769C76.3156 123.502 76.315 123.423 76.5561 122.917C76.5834 122.868 76.6066 122.831 76.6441 122.769C77.2676 121.742 77.8792 120.687 78.1322 119.939C78.4743 118.927 78.5889 117.483 78.6502 116.338C78.6519 116.309 78.6542 116.272 78.6587 116.231C78.6894 116.034 78.7268 115.838 78.838 115.579H78.8397Z" fill="#41748D"/>
<path id="Vector_4" d="M50.7473 105.701C42.46 95.4286 39.4496 80.8237 43.6702 68.0762C42.9343 68.1078 42.2206 68.1444 41.5307 68.1865C40.2683 72.339 39.6794 76.7785 39.8037 81.2459C39.8037 81.2682 39.8178 81.6216 39.8178 81.6216C40.2802 92.0579 45.1277 101.16 50.3723 106.944L50.3836 106.956C50.5079 106.539 50.6293 106.12 50.7473 105.701Z" fill="#00A3E0"/>
<path id="Vector_5" d="M121.416 40.6389L101.635 44.539L121.477 40.6345C121.477 40.6345 101.553 48.6046 97.1697 50.4149C92.7869 52.2252 92.8913 56.7316 92.8913 56.7316L101.452 56.1638C108.041 55.7118 110.253 57.6733 110.253 57.6733L94.7982 59.4805L89.8934 64.6906C77.343 64.5821 50.2026 75.7208 52.9571 97.8867L53.4002 96.3164L53.4014 96.312L53.8218 94.8204C53.8377 94.7721 53.8524 94.72 53.8689 94.6722L53.9761 94.2922L54.5435 92.2842C54.6955 91.7591 54.8481 91.2408 54.9877 90.7783C55.4201 89.0853 56.0116 87.4457 56.7527 85.8856C60.1154 78.8113 66.9367 74.2175 71.8857 71.711C76.7445 69.2498 82.2183 67.5529 86.8365 67.026C87.6891 66.9268 88.5454 66.8703 89.4027 66.8567C89.5042 66.8555 89.6097 66.8499 89.7102 66.8499L90.6928 66.8574L95.9873 61.2009L114.681 59.0031C113.972 58.1569 110.443 54.4031 103.476 54.2512C102.794 54.2363 102.073 54.2766 101.335 54.3274L95.5147 54.7162C95.8432 53.6548 96.6693 52.5947 97.8675 52.1C102.191 50.3139 125.273 41.0387 125.472 40.9587L127.323 38.9842L121.416 40.6389Z" fill="#41748D"/>
<path id="Vector_6" d="M45.9231 81.492C46.0183 83.7907 46.3307 86.0724 46.8553 88.3009C46.293 80.2886 47.5701 73.5404 50.2083 67.9906C49.5194 67.9786 48.8304 67.9734 48.1415 67.9751C46.4769 72.192 45.7302 76.7351 45.9231 81.492ZM79.7872 48.3957C79.5892 48.4 79.39 48.4025 79.1937 48.4093C70.5172 48.705 62.4807 51.2642 56.7192 56.0174C55.8003 56.7756 54.9232 57.5925 54.0924 58.4638C53.0844 59.5641 52.1525 60.7446 51.3044 61.9956C52.3291 61.8072 53.3356 61.6435 54.3216 61.5034C60.4065 54.0906 69.5885 49.8129 79.7872 48.3957Z" fill="#EF3340"/>
<path id="Vector_7" d="M101.453 56.1644L92.8919 56.7323C92.8919 56.7323 92.7875 52.2258 97.1703 50.4155C101.553 48.6053 121.477 40.6351 121.477 40.6351L101.636 44.5396L97.3575 45.3815C93.9574 45.2451 91.2131 45.7169 91.2131 45.7169C89.6849 44.8903 88.0636 44.2875 86.3912 43.924C85.9064 43.7957 85.418 43.684 84.9268 43.5892C82.6205 38.226 78.0902 29.0891 70.924 20.5784C68.9701 26.892 71.7251 31.125 67.9148 39.8174C67.4876 40.792 67.0978 41.6736 66.2377 42.707C62.9425 46.6679 61.1151 47.1335 57.7723 49.5929C52.2644 53.3386 48.2799 58.0552 45.6638 63.2585C47.5292 62.7637 49.4102 62.3423 51.3033 61.9951C52.1516 60.7442 53.0834 59.5636 54.0913 58.4632C54.922 57.5919 55.7992 56.775 56.7181 56.0168C62.479 51.2636 70.5161 48.7045 79.1926 48.4088C79.3895 48.4019 79.5881 48.3995 79.7861 48.3951C69.5873 49.8129 60.4053 54.09 54.3205 61.5022C61.6734 60.4569 67.8728 60.6863 71.564 61.2554C68.9332 62.3119 66.2638 63.6435 63.7187 65.2535C62.1573 66.2375 60.6551 67.3296 59.2213 68.5232C56.2243 68.2146 53.2172 68.037 50.2072 67.9906C47.569 73.5405 46.2919 80.2887 46.8541 88.301C46.3298 86.0724 46.0174 83.7907 45.922 81.492C45.7291 76.7345 46.4757 72.1914 48.1403 67.9751C46.5767 67.9789 45.084 68.0167 43.669 68.0762C39.4485 80.8237 42.4589 95.4286 50.7462 105.701C51.4758 103.127 52.2247 100.48 52.9566 97.8873C50.2021 75.7215 77.343 64.5827 89.8929 64.6912L94.7976 59.4811L110.253 57.674C110.254 57.674 108.042 55.7124 101.453 56.1644ZM72.9364 28.8405C72.9302 28.7395 72.9302 28.4735 72.9262 28.2094C76.6531 33.7301 79.3776 39.0939 80.8839 42.3109C76.1987 42.3444 72.1092 43.5843 68.8634 45.0939C70.9915 41.9445 73.4198 36.4046 72.9364 28.8405ZM90.711 56.8773L86.9755 57.1265C86.9755 57.1265 87.7511 53.7335 92.6842 51.9419C92.6842 51.9425 91.1331 52.9183 90.711 56.8773Z" fill="black"/>
<path id="Vector_8" d="M72.9256 28.2094C72.9302 28.4728 72.9296 28.7394 72.9359 28.8405C73.4192 36.4045 70.991 41.9451 68.8623 45.0944C72.1087 43.5842 76.1976 42.3443 80.8827 42.3115C79.377 39.0945 76.6526 33.73 72.9256 28.2094Z" fill="#00A3E0"/>
<path id="Vector_9" d="M86.9755 57.1272L90.711 56.878C91.1331 52.9183 92.6842 51.9431 92.6842 51.9431C87.7511 53.7335 86.9755 57.1272 86.9755 57.1272ZM48.1415 67.9751C48.8177 67.9733 49.5082 67.9795 50.2083 67.9906C53.049 68.0371 56.0759 68.1958 59.2224 68.5232C60.6563 67.3298 62.1585 66.2377 63.7198 65.2535C54.3903 64.809 41.8478 65.3199 29.8795 69.5746C30.1751 69.5126 34.6833 68.6081 41.5307 68.1872C42.2206 68.145 42.9349 68.1078 43.6702 68.0768C45.0851 68.0167 46.5778 67.9789 48.1415 67.9751Z" fill="#41748D"/>
<path id="Vector_10" d="M63.7198 65.2542C66.2644 63.6441 68.9343 62.3131 71.5651 61.2561C67.8734 60.6863 61.6745 60.4569 54.3216 61.5028C51.4092 61.9168 48.5194 62.5029 45.665 63.2585C48.281 58.0546 52.2655 53.338 57.7734 49.5929C61.1162 47.1335 62.9437 46.6679 66.2388 42.707C67.0989 41.6736 67.4887 40.792 67.9159 39.8174C71.7263 31.125 68.9706 26.892 70.9252 20.5784C78.0914 29.0897 82.6211 38.226 84.928 43.5892C85.4193 43.6847 85.9072 43.7963 86.3923 43.924C88.0647 44.2875 89.686 44.8903 91.2142 45.7169C91.2142 45.7169 93.9579 45.2451 97.3586 45.3815L101.637 44.5396L121.418 40.6395L127.327 38.9861L129.272 36.9396L97.2128 43.2141C95.3158 43.1553 93.4173 43.2475 91.5325 43.49C89.9887 42.7131 88.3653 42.1411 86.697 41.7864C86.5704 41.7573 86.4445 41.7244 86.3185 41.6928C83.8733 36.1535 79.4547 27.5622 72.478 19.2727C71.32 17.9987 70.9064 17.6038 69.9113 16.7173C69.5051 17.6863 68.923 20.0204 68.923 20.0204C68.2955 22.326 68.0878 25.6979 68.0674 29.0147C68.1219 31.4896 67.8314 35.7226 66.0193 39.2018C64.7824 41.4801 62.9028 43.3902 60.0695 45.4813C59.8465 45.6332 59.6207 45.7919 59.3886 45.9605C57.968 46.8837 55.5806 48.366 53.7719 49.8706C48.7304 53.8222 45.5821 58.2642 43.0756 64C38.7433 65.3242 34.2714 67.1339 29.8603 69.5783L29.8784 69.5746C41.8478 65.3199 54.3903 64.809 63.7198 65.2542Z" fill="#00A3E0"/>
<path id="Vector_11" d="M79.9256 120.97C80.2677 119.958 80.4266 118.513 80.4879 117.368C80.4896 117.339 80.4918 117.302 80.4964 117.261C80.5299 116.94 80.6189 116.657 80.9735 116.09C81.0785 115.922 81.2192 115.697 81.3849 115.433C82.0331 114.398 82.703 113.379 83.3938 112.377L87.123 131.696L124.391 76.9223L106.326 140.723L121.528 140.722C121.251 139.117 121.246 137.318 121.504 135.201C121.683 133.739 122.04 132.238 122.559 130.288L139.104 72.0631C141.79 62.6621 145.675 55.4471 150.932 50.1235C145.889 50.2184 138.637 51.312 131.424 55.7236C125.176 59.6367 120.119 64.7179 112.119 75.1275C107.568 81.6017 102.681 88.8273 99.1112 94.105C97.4018 96.6319 96.052 98.6276 95.2691 99.7552L93.584 102.183L86.8377 67.0272C82.2194 67.5542 76.7456 69.251 71.8868 71.7122C66.9378 74.2187 60.1165 78.8126 56.7539 85.8869C56.0125 87.4468 55.421 89.0864 54.9888 90.7795C54.8487 91.242 54.6961 91.7609 54.5446 92.2854L53.9772 94.2934C54.8203 91.9444 56.2415 89.7566 57.5311 87.7126C58.0258 86.9337 58.5627 86.1877 59.139 85.4789C60.2658 84.084 61.531 82.8311 62.8676 81.7034C57.3348 101.293 48.331 133.122 47.4646 135.872C45.6769 141.543 43.1459 145.468 41.1511 147.911C51.8287 146.331 55.6322 141.714 56.9672 140.093C61.3432 134.78 63.3834 127.107 64.054 124.586C64.1135 124.361 76.8897 78.6799 76.8897 78.6799L81.4887 102.504C80.5758 103.187 79.5886 104.017 78.5203 105.03C76.5329 106.913 75.9649 107.315 74.4314 108.853C72.9183 110.371 71.6565 111.258 70.3414 111.599L68.4617 118.322L68.0192 119.903C69.1709 122.222 69.3689 124.206 69.4744 125.143C69.7394 127.484 69.6747 130.092 70.7555 138.007C72.5699 151.289 77.3272 152.334 77.3952 152.348L77.3986 152.349C77.3986 152.349 74.9318 147.296 74.748 139.429C74.5636 131.561 74.6612 124.49 74.6447 123.958C74.6277 123.426 74.5636 122.96 75.0907 122C75.1502 121.892 76.2747 120.117 76.5499 119.302C76.9113 118.234 76.9601 116.139 76.9805 116.005C77.0894 115.283 77.2545 114.853 77.8043 114.08C78.5396 113.04 79.5302 111.228 81.6629 108.598C83.5919 106.218 85.1838 104.53 86.4649 103.331C89.1059 101.074 90.5158 101.046 90.9107 101.1C90.9396 101.107 90.9691 101.109 90.9975 101.118C89.0265 101.84 86.5222 104.963 83.6179 108.618L83.5771 108.669L83.496 108.771L82.9689 109.434C81.4478 111.345 79.7288 114.083 79.1291 115.043L79.1251 115.049C79.0616 115.152 79.0015 115.257 78.9447 115.364C78.905 115.441 78.8692 115.513 78.8403 115.58L78.8391 115.582L78.9679 116.257L79.887 121.079C79.899 121.042 79.9143 121.004 79.9256 120.97Z" fill="black"/>
<path id="Vector_12" d="M129.112 140.249H129.101L128.611 138.569H127.861V141.138H128.293V139.092H128.305L128.897 141.135H129.311L129.925 139.092H129.935V141.135H130.367V138.569H129.623L129.112 140.249ZM125.766 139.029H126.403V141.138H126.834V139.029H127.476V138.569H125.766V139.029Z" fill="#00A3E0"/>
</g>
</g>
</svg>
