<svg width="185" height="185" viewBox="0 0 185 185" fill="none" xmlns="http://www.w3.org/2000/svg">
<g id="NYY">
<path id="Ellipse 3" d="M182 92.5C182 141.929 141.929 182 92.5 182C43.0705 182 3 141.929 3 92.5C3 43.0705 43.0705 3 92.5 3C141.929 3 182 43.0705 182 92.5Z" fill="#142448" stroke="white" stroke-width="6"/>
<g id="Group">
<path id="Vector" d="M144.876 136.955C143.114 139.359 132.701 150.999 123.706 158C122.211 133.585 111.872 117.873 94.9379 104.476V104.485C94.4085 117.518 94.351 128.952 94.7593 136.955C95.1127 143.878 98.0304 148.087 102.787 152.495C96.6123 154.094 78.52 153.792 72.3523 151.597C73.0604 151 80.6895 146.195 81.351 130.551C81.8153 119.306 81.8759 111.001 81.5264 97.2762L80.8069 93.7588C72.5622 86.8616 65.3701 79.7652 56.1105 68.4089C64.5842 93.8696 53.8167 125.528 52.5875 137.154C52.1691 141.06 51.0821 148.984 51.4348 157.101C48.794 155.295 38.1095 147.378 33 139.764C47.9112 110.802 58.6716 82.3502 35.29 56.491C39.708 48.9708 46.2335 42.2562 51.4348 39.3525C56.9175 57.2865 68.9097 71.5198 77.5626 77.7258C70.9375 49.8619 62.4575 40.7522 57.0884 37.6398C60.607 28.2562 72.2611 18.498 78.4403 16C75.6132 26.4145 75.3734 33.2342 78.1698 44.3565C80.9938 55.584 85.4098 69.2138 90.3451 79.4378C92.9975 74.2258 102.353 52.1781 104.816 42.5591C107.296 32.9393 107.296 24.3237 106.23 18.0988C111.614 21.2018 123.173 33.5356 125.822 39.551C120.174 40.942 117.527 44.2355 114.174 50.7603C110.727 57.4836 101.995 82.8422 97.145 93.7588C102.266 98.7795 111.173 105.088 118.227 114.716C110.466 80.0333 118.406 53.6727 128.645 45.7736C133.408 47.3639 139.492 51.7724 143.913 56.9924C127.316 64.9089 128.387 88.9619 128.294 90.7507C127.538 104.545 132.438 129.054 141.63 135.027C143.627 136.331 143.829 136.418 144.875 136.954C143.114 139.359 132.701 150.999 123.706 158" fill="white"/>
<path id="Vector_2" d="M145.115 123.801H143.377V129.177H142.197V123.801H140.463V122.626H145.115V123.801ZM152.999 129.177H151.828V123.974H151.797L150.126 129.177H148.988L147.374 123.974H147.341V129.177H146.173V122.626H148.208L149.548 126.904H149.58L150.972 122.625H153V129.176L152.999 129.177Z" fill="white"/>
</g>
</g>
</svg>
