<svg width="185" height="185" viewBox="0 0 185 185" fill="none" xmlns="http://www.w3.org/2000/svg">
<g id="MIL">
<path id="Ellipse 3" d="M182 92.5C182 141.929 141.929 182 92.5 182C43.0705 182 3 141.929 3 92.5C3 43.0705 43.0705 3 92.5 3C141.929 3 182 43.0705 182 92.5Z" fill="#12284B" stroke="white" stroke-width="6"/>
<g id="158 1" clip-path="url(#clip0_1_290)">
<path id="Vector" d="M159 62.2455V80.5344C159 95.7987 156.5 105.046 144.5 130.393C131.864 157.076 116.283 165 97.637 165C85.379 165 73.8507 160.967 64.539 153.518L64.4553 153.549L62.3783 151.691L61.9935 151.352C59.35 148.995 57.0988 146.456 55.1579 143.848C54.9943 143.634 54.8344 143.417 54.6784 143.198C54.6505 143.163 54.6193 143.125 54.6015 143.087C54.4823 142.93 54.3706 142.769 54.2556 142.612C53.1443 141.047 52.1206 139.422 51.1892 137.743C51.0819 137.566 50.9803 137.386 50.8848 137.202C47.8183 131.684 45.7938 126.195 44.0948 121.599C43.6086 120.286 43.1511 119.046 42.7003 117.894C39.1823 108.866 32.3704 91.2267 29.0731 82.336C25.6465 73.1058 25.1221 66.5548 27.315 60.4261C29.6643 53.8675 34.9201 48.6189 42.0881 42.763C49.2695 36.8928 55.4303 32.0209 63.9445 25.8821C69.2765 22.0356 74.9966 20 80.4859 20C82.8106 20 85.0069 20.3733 87.0204 21.1073C87.3807 21.2399 87.779 21.3827 88.3008 21.5786C90.1503 22.2771 91.7934 23.2265 93.2099 24.3963C93.357 24.3127 93.4966 24.2283 93.6327 24.148C97.5448 21.8641 101.937 20.6597 106.332 20.6597C109.808 20.6597 113.213 21.4105 116.185 22.8279C116.829 23.1353 117.203 23.3237 117.63 23.5542L118.378 23.9419C120.714 25.1362 122.724 26.6659 124.347 28.4439C126.948 27.5739 129.472 27.1338 131.882 27.1338C135.549 27.1338 138.979 28.1364 142.077 30.1061L142.815 30.574C144.231 31.4753 144.945 31.9255 146.046 32.6941C154.447 38.5018 159 44.9312 159 62.2455Z" fill="#FFC52F"/>
<path id="Vector_2" d="M142.944 37.1715C141.762 36.3547 141.073 35.9282 139.147 34.6992C135.402 32.314 130.437 31.5285 123.664 34.5523C123.217 34.7516 122.797 34.9366 122.385 35.1216C120.878 32.0378 118.206 29.971 115.895 28.7901C114.947 28.3045 114.685 28.1474 113.832 27.742C109.234 25.545 102.587 25.2275 96.3812 28.8493C95.133 29.5757 93.5 30.5428 92.0945 31.3705C90.6611 28.9261 88.4513 27.4556 86.3777 26.6735C85.8813 26.4885 85.4999 26.3483 85.1507 26.2224C80.5705 24.5534 73.8711 25.4403 67.137 30.2911C59.12 36.0777 53.2349 40.6844 45.5427 46.9735C31.4723 58.4741 28.4829 65.0817 34.1861 80.444C37.3185 88.8913 43.9689 106.133 47.7803 115.918C49.9655 121.526 52.2489 128.801 56.3715 135.824H56.3749C56.7545 136.472 57.1475 137.112 57.5538 137.744C57.662 137.912 57.777 138.076 57.8861 138.24C59.7601 141.079 61.9843 143.827 64.6625 146.377C64.8756 146.579 65.0921 146.789 65.3095 146.988C65.4211 147.089 65.5192 147.194 65.6308 147.292L65.641 147.281C74.036 154.915 85.1549 159.556 97.6379 159.556C120.536 159.556 139.099 141.012 139.099 118.15V118.104C139.099 96.2743 121.382 78.5791 99.5254 78.5791C87.6513 78.5791 75.7214 85.4342 68.6862 96.2464C63.9586 84.6831 59.2208 73.1239 54.473 61.5689C51.8785 55.262 52.473 52.0667 56.4375 48.3968C58.462 46.5217 60.9238 44.6457 63.6579 42.7951C66.4511 40.9057 69.6021 42.0197 69.6021 45.7074V84.7669C75.9793 78.3375 83.801 74.1506 93.8188 72.3034L93.6649 40.0602C94.3787 39.6201 95.0459 39.2113 95.5465 38.9216C98.1022 37.4409 99.9314 39.0821 99.9314 41.4606V71.4799C100.089 71.4799 100.249 71.4731 100.407 71.4731C108.551 71.4677 116.548 73.6329 123.575 77.7454V44.0933C124.214 43.8349 124.816 43.5941 125.281 43.4092C127.841 42.3931 129.571 43.9784 129.571 46.2902C129.571 48.602 129.393 81.9661 129.393 81.9661C138.799 89.7148 144.903 101.121 145.865 113.98C150.351 104.442 153.547 95.558 153.547 80.5344V62.2454C153.545 47.0166 150.087 42.1101 142.944 37.1715ZM99.1652 94.8037C112.364 94.8037 123.063 105.493 123.063 118.673C123.063 131.853 112.364 142.543 99.1652 142.543C85.9693 142.543 75.2698 131.853 75.2698 118.673C75.2698 105.493 85.9684 94.8037 99.1652 94.8037Z" fill="#12284B"/>
<path id="Vector_3" d="M81.0424 118.674C81.0424 114.344 82.5705 110.366 85.116 107.244C90.1824 113.991 90.1824 123.354 85.116 130.101C82.4779 126.876 81.0385 122.839 81.0424 118.674ZM88.2839 133.15C94.952 124.685 94.952 112.661 88.2873 104.196C91.4194 101.832 95.2386 100.555 99.1643 100.557C103.091 100.555 106.912 101.833 110.046 104.196C103.377 112.661 103.377 124.685 110.046 133.15C106.912 135.513 103.091 136.791 99.1643 136.788C95.2376 136.791 91.4173 135.513 88.2839 133.15ZM113.214 130.1C108.148 123.353 108.148 113.991 113.214 107.244C115.76 110.365 117.291 114.343 117.291 118.673C117.291 123.004 115.76 126.979 113.214 130.1Z" fill="white"/>
<path id="Vector_4" d="M143.455 151.647H141.719V156.379H140.547V151.647H138.808V150.619H143.455V151.647ZM151.345 156.379H150.173V151.795H150.142L148.469 156.379H147.328L145.721 151.795H145.69V156.379H144.508V150.619H146.553L147.895 154.379H147.927L149.323 150.619H151.344L151.345 156.379Z" fill="#FFC52F"/>
</g>
</g>
<defs>
<clipPath id="clip0_1_290">
<rect width="133" height="145" fill="white" transform="translate(26 20)"/>
</clipPath>
</defs>
</svg>
